<svg width="24" height="24" viewBox="0 0 24 24" fill="none" xmlns="http://www.w3.org/2000/svg">
<g opacity="0.7">
<path fill-rule="evenodd" clip-rule="evenodd" d="M11 4.5H13.5C14.0523 4.5 14.5 4.94772 14.5 5.5V6.5H10V5.5C10 4.94772 10.4477 4.5 11 4.5ZM8.5 6.5V5.5C8.5 4.11929 9.61929 3 11 3H13.5C14.8807 3 16 4.11929 16 5.5V6.5H18.5C20.1569 6.5 21.5 7.84315 21.5 9.5V19C21.5 20.1046 20.6046 21 19.5 21H5C3.89543 21 3 20.1046 3 19V9.5C3 7.84315 4.34315 6.5 6 6.5H8.5ZM16 8H8.5H6C5.17157 8 4.5 8.67157 4.5 9.5V19C4.5 19.2761 4.72386 19.5 5 19.5H19.5C19.7761 19.5 20 19.2761 20 19V9.5C20 8.67157 19.3284 8 18.5 8H16ZM8 16.25C8 15.8358 8.33579 15.5 8.75 15.5H16.25C16.6642 15.5 17 15.8358 17 16.25C17 16.6642 16.6642 17 16.25 17H8.75C8.33579 17 8 16.6642 8 16.25ZM15.5221 10.7201C15.8195 10.4317 15.8268 9.9569 15.5384 9.65953C15.2501 9.36217 14.7753 9.35486 14.4779 9.64322L11.5625 12.4703L10.5221 11.4614C10.2247 11.173 9.74993 11.1803 9.46158 11.4777C9.17322 11.7751 9.18053 12.2499 9.47789 12.5382L11.0404 14.0534C11.3313 14.3355 11.7937 14.3355 12.0846 14.0534L15.5221 10.7201Z" fill="white"/>
</g>
</svg>
