<svg width="24" height="24" viewBox="0 0 24 24" fill="none" xmlns="http://www.w3.org/2000/svg">
<path d="M18.447 14.7238C18.0016 15.7769 17.3051 16.7049 16.4183 17.4267C15.5315 18.1484 14.4814 18.6419 13.3598 18.8641C12.2382 19.0862 11.0792 19.0302 9.98426 18.701C8.8893 18.3717 7.89165 17.7793 7.07854 16.9754C6.26544 16.1715 5.66164 15.1807 5.31992 14.0896C4.9782 12.9985 4.90898 11.8402 5.1183 10.7161C5.32762 9.59208 5.80911 8.5364 6.52068 7.6414C7.23224 6.7464 8.15222 6.03934 9.20018 5.58203" stroke="white" stroke-width="1.5" stroke-linecap="round" stroke-linejoin="round"/>
<path d="M18.9998 11.9998C18.9998 11.0806 18.8188 10.1704 18.467 9.32111C18.1152 8.47185 17.5996 7.7002 16.9496 7.0502C16.2996 6.40021 15.528 5.8846 14.6787 5.53283C13.8295 5.18106 12.9192 5 12 5V11.9998H18.9998Z" stroke="white" stroke-width="1.5" stroke-linecap="round" stroke-linejoin="round"/>
</svg>
