<svg width="24" height="24" viewBox="0 0 24 24" fill="none" xmlns="http://www.w3.org/2000/svg">
<g opacity="0.7">
<path fill-rule="evenodd" clip-rule="evenodd" d="M9.66363 5.5C8.33604 5.5 7.25981 6.57622 7.25981 7.90381C7.25981 9.2314 8.33604 10.3076 9.66363 10.3076C10.9912 10.3076 12.0674 9.2314 12.0674 7.90381C12.0674 6.57622 10.9912 5.5 9.66363 5.5ZM5.75981 7.90381C5.75981 5.7478 7.50761 4 9.66363 4C11.8196 4 13.5674 5.7478 13.5674 7.90381C13.5674 10.0598 11.8196 11.8076 9.66363 11.8076C7.50761 11.8076 5.75981 10.0598 5.75981 7.90381ZM4.1434 14.6048C4.87551 13.8727 5.86846 13.4614 6.90381 13.4614H12.423C13.4583 13.4614 14.4513 13.8727 15.1834 14.6048C15.9155 15.3369 16.3268 16.3299 16.3268 17.3652V18.9421C16.3268 19.3564 15.991 19.6921 15.5768 19.6921H3.75C3.33579 19.6921 3 19.3564 3 18.9421V17.3652C3 16.3299 3.41129 15.3369 4.1434 14.6048ZM6.90381 14.9614C6.26628 14.9614 5.65486 15.2147 5.20406 15.6655C4.75326 16.1163 4.5 16.7277 4.5 17.3652V18.1921H14.8268V17.3652C14.8268 16.7277 14.5735 16.1163 14.1227 15.6655C13.6719 15.2147 13.0605 14.9614 12.423 14.9614H6.90381ZM21.6443 9.204C21.9269 8.90119 21.9105 8.4266 21.6077 8.14397C21.3049 7.86134 20.8303 7.87771 20.5477 8.18052L17.4165 11.5353L16.1251 10.1517C15.8425 9.84884 15.3679 9.83248 15.065 10.1151C14.7622 10.3977 14.7459 10.8723 15.0285 11.1751L16.8682 13.1463C17.0101 13.2982 17.2086 13.3845 17.4165 13.3845C17.6244 13.3845 17.823 13.2982 17.9648 13.1463L21.6443 9.204Z" fill="white"/>
</g>
</svg>
