<svg width="14" height="10" viewBox="0 0 14 10" fill="none" xmlns="http://www.w3.org/2000/svg">
<path fill-rule="evenodd" clip-rule="evenodd" d="M6.24579 1.38775C6.53868 1.09486 6.53868 0.619985 6.24579 0.327092C5.95289 0.0341986 5.47802 0.0341986 5.18513 0.327092L1.17655 4.33567C1.02834 4.47268 0.935547 4.66876 0.935547 4.88651C0.935547 4.88665 0.935547 4.8868 0.935547 4.88694C0.935446 5.07901 1.00867 5.27112 1.15522 5.41766L5.18513 9.44757C5.47802 9.74047 5.95289 9.74047 6.24579 9.44757C6.53868 9.15468 6.53868 8.67981 6.24579 8.38691L3.49539 5.63651H12.9693C13.3835 5.63651 13.7193 5.30073 13.7193 4.88651C13.7193 4.4723 13.3835 4.13651 12.9693 4.13651H3.49703L6.24579 1.38775Z" fill="#666666"/>
</svg>
