<svg width="24" height="24" viewBox="0 0 24 24" fill="none" xmlns="http://www.w3.org/2000/svg">
<path d="M17.0383 8.5926C17.0383 7.31933 16.5325 6.09822 15.6321 5.19788C14.7318 4.29755 13.5107 3.79175 12.2374 3.79175C10.9641 3.79175 9.74303 4.29755 8.84269 5.19788C7.94236 6.09822 7.43656 7.31933 7.43656 8.5926C7.43656 14.1936 5.03613 15.7939 5.03613 15.7939H19.4387C19.4387 15.7939 17.0383 14.1936 17.0383 8.5926Z" stroke="#222529" stroke-width="1.5" stroke-linecap="round" stroke-linejoin="round"/>
<path d="M13.6218 18.9944C13.4811 19.2369 13.2792 19.4382 13.0362 19.5781C12.7933 19.718 12.5179 19.7917 12.2375 19.7917C11.9572 19.7917 11.6817 19.718 11.4388 19.5781C11.1959 19.4382 10.9939 19.2369 10.8533 18.9944" stroke="#222529" stroke-width="1.5" stroke-linecap="round" stroke-linejoin="round"/>
</svg>
