<svg width="15" height="17" viewBox="0 0 15 17" fill="none" xmlns="http://www.w3.org/2000/svg">
<path fill-rule="evenodd" clip-rule="evenodd" d="M5.04335 0.496094C5.45756 0.496094 5.79335 0.83188 5.79335 1.24609V1.90306H9.92209V1.2462C9.92209 0.831987 10.2579 0.496201 10.6721 0.496201C11.0863 0.496201 11.4221 0.831987 11.4221 1.2462V1.90306H12.7828C13.9742 1.90306 14.94 2.86886 14.94 4.06024V6.87002C14.94 6.87163 14.94 6.87324 14.94 6.87485C14.94 6.87646 14.94 6.87808 14.94 6.87969V13.9105C14.94 15.1019 13.9742 16.0677 12.7828 16.0677H2.93257C1.74119 16.0677 0.775391 15.1019 0.775391 13.9105V4.06024C0.775391 2.86886 1.74119 1.90306 2.93257 1.90306H4.29335V1.24609C4.29335 0.83188 4.62913 0.496094 5.04335 0.496094ZM13.44 6.12485V4.06024C13.44 3.69729 13.1458 3.40306 12.7828 3.40306H11.4221V4.06056C11.4221 4.47477 11.0863 4.81056 10.6721 4.81056C10.2579 4.81056 9.92209 4.47477 9.92209 4.06056V3.40306H5.79335V4.06045C5.79335 4.47467 5.45756 4.81045 5.04335 4.81045C4.62913 4.81045 4.29335 4.47467 4.29335 4.06045V3.40306H2.93257C2.56962 3.40306 2.27539 3.69729 2.27539 4.06024V6.12485H13.44ZM2.27539 7.62485H13.44V13.9105C13.44 14.2734 13.1458 14.5677 12.7828 14.5677H2.93257C2.56962 14.5677 2.27539 14.2734 2.27539 13.9105V7.62485Z" fill="#D5D5E0"/>
</svg>
