<svg width="24" height="24" viewBox="0 0 24 24" fill="none" xmlns="http://www.w3.org/2000/svg">
<path fill-rule="evenodd" clip-rule="evenodd" d="M9.04335 3.99512C9.45756 3.99512 9.79335 4.3309 9.79335 4.74512V5.40209H13.9221V4.74522C13.9221 4.33101 14.2579 3.99522 14.6721 3.99522C15.0863 3.99522 15.4221 4.33101 15.4221 4.74522V5.40209H16.7828C17.9742 5.40209 18.94 6.36789 18.94 7.55927V10.369C18.94 10.3706 18.94 10.3723 18.94 10.3739C18.94 10.3755 18.94 10.3771 18.94 10.3787V17.4095C18.94 18.6009 17.9742 19.5667 16.7828 19.5667H6.93257C5.74119 19.5667 4.77539 18.6009 4.77539 17.4095V7.55927C4.77539 6.36789 5.74119 5.40209 6.93257 5.40209H8.29335V4.74512C8.29335 4.3309 8.62913 3.99512 9.04335 3.99512ZM17.44 9.62387V7.55927C17.44 7.19631 17.1458 6.90209 16.7828 6.90209H15.4221V7.55958C15.4221 7.9738 15.0863 8.30958 14.6721 8.30958C14.2579 8.30958 13.9221 7.9738 13.9221 7.55958V6.90209H9.79335V7.55948C9.79335 7.97369 9.45756 8.30948 9.04335 8.30948C8.62913 8.30948 8.29335 7.97369 8.29335 7.55948V6.90209H6.93257C6.56962 6.90209 6.27539 7.19631 6.27539 7.55927V9.62387H17.44ZM6.27539 11.1239H17.44V17.4095C17.44 17.7725 17.1458 18.0667 16.7828 18.0667H6.93257C6.56962 18.0667 6.27539 17.7725 6.27539 17.4095V11.1239Z" fill="#222529"/>
</svg>
