<svg width="24" height="25" viewBox="0 0 24 25" fill="none" xmlns="http://www.w3.org/2000/svg">
<path fill-rule="evenodd" clip-rule="evenodd" d="M5.5 12.1428C5.5 8.75023 8.25023 6 11.6428 6C15.0354 6 17.7856 8.75023 17.7856 12.1428C17.7856 15.5354 15.0354 18.2856 11.6428 18.2856C8.25023 18.2856 5.5 15.5354 5.5 12.1428ZM11.6428 4.5C7.42181 4.5 4 7.92181 4 12.1428C4 16.3638 7.42181 19.7856 11.6428 19.7856C15.8638 19.7856 19.2856 16.3638 19.2856 12.1428C19.2856 7.92181 15.8638 4.5 11.6428 4.5ZM12.3927 8.00645C12.3927 7.59224 12.0569 7.25645 11.6427 7.25645C11.2285 7.25645 10.8927 7.59224 10.8927 8.00645V12.1421C10.8927 12.4262 11.0532 12.6859 11.3073 12.813L14.0644 14.1915C14.4349 14.3768 14.8854 14.2266 15.0707 13.8561C15.2559 13.4856 15.1057 13.0351 14.7352 12.8499L12.3927 11.6786V8.00645Z" fill="#D5D5E0"/>
</svg>
