<svg width="22" height="22" viewBox="0 0 22 22" fill="none" xmlns="http://www.w3.org/2000/svg">
<rect x="1" y="1" width="20" height="20" rx="10" stroke="#533EED" stroke-width="1.5" stroke-linecap="round" stroke-linejoin="round"/>
<path fill-rule="evenodd" clip-rule="evenodd" d="M11.3537 8.28033C11.0608 7.98744 11.0608 7.51256 11.3537 7.21967C11.6466 6.92678 12.1214 6.92678 12.4143 7.21967L15.7738 10.5791C15.7999 10.6046 15.8241 10.6319 15.8462 10.6608C15.8768 10.7008 15.9029 10.7432 15.9243 10.7872C15.9728 10.8865 16 10.998 16 11.1159C16 11.2054 15.9843 11.2912 15.9556 11.3708C15.9193 11.4713 15.8609 11.5657 15.7803 11.6463L12.4143 15.0123C12.1214 15.3052 11.6466 15.3052 11.3537 15.0123C11.0608 14.7194 11.0608 14.2445 11.3537 13.9517L13.4394 11.8659H5.82522C5.41101 11.8659 5.07522 11.5301 5.07522 11.1159C5.07522 10.7017 5.41101 10.3659 5.82522 10.3659H13.4393L11.3537 8.28033Z" fill="#533EED"/>
</svg>
