<svg width="24" height="24" viewBox="0 0 24 24" fill="none" xmlns="http://www.w3.org/2000/svg">
<path fill-rule="evenodd" clip-rule="evenodd" d="M6 5.5H8.58824C8.86438 5.5 9.08824 5.72386 9.08824 6V11.4118C9.08824 11.6879 8.86438 11.9118 8.58823 11.9118H6C5.72386 11.9118 5.5 11.6879 5.5 11.4118V6C5.5 5.72386 5.72386 5.5 6 5.5ZM4 6C4 4.89543 4.89543 4 6 4H8.58824C9.69281 4 10.5882 4.89543 10.5882 6V11.4118C10.5882 12.5163 9.6928 13.4118 8.58823 13.4118H6C4.89543 13.4118 4 12.5163 4 11.4118V6ZM14.4706 12.0882H17.0588C17.335 12.0882 17.5588 12.3121 17.5588 12.5882V18C17.5588 18.2761 17.335 18.5 17.0588 18.5H14.4706C14.1944 18.5 13.9706 18.2761 13.9706 18V12.5882C13.9706 12.3121 14.1944 12.0882 14.4706 12.0882ZM12.4706 12.5882C12.4706 11.4837 13.366 10.5882 14.4706 10.5882H17.0588C18.1634 10.5882 19.0588 11.4837 19.0588 12.5882V18C19.0588 19.1046 18.1634 20 17.0588 20H14.4706C13.366 20 12.4706 19.1046 12.4706 18V12.5882ZM17.0588 5.5H14.4706C14.1944 5.5 13.9706 5.72386 13.9706 6V6.70588C13.9706 6.98203 14.1944 7.20588 14.4706 7.20588H17.0588C17.335 7.20588 17.5588 6.98202 17.5588 6.70588V6C17.5588 5.72386 17.335 5.5 17.0588 5.5ZM14.4706 4C13.366 4 12.4706 4.89543 12.4706 6V6.70588C12.4706 7.81045 13.366 8.70588 14.4706 8.70588H17.0588C18.1634 8.70588 19.0588 7.81045 19.0588 6.70588V6C19.0588 4.89543 18.1634 4 17.0588 4H14.4706ZM6 16.7941H8.58824C8.86438 16.7941 9.08824 17.018 9.08824 17.2941V18C9.08824 18.2761 8.86438 18.5 8.58823 18.5H6C5.72386 18.5 5.5 18.2761 5.5 18V17.2941C5.5 17.018 5.72386 16.7941 6 16.7941ZM4 17.2941C4 16.1895 4.89543 15.2941 6 15.2941H8.58824C9.69281 15.2941 10.5882 16.1895 10.5882 17.2941V18C10.5882 19.1046 9.6928 20 8.58823 20H6C4.89543 20 4 19.1046 4 18V17.2941Z" fill="white"/>
</svg>
