<svg width="17" height="19" viewBox="0 0 17 19" fill="none" xmlns="http://www.w3.org/2000/svg">
<path fill-rule="evenodd" clip-rule="evenodd" d="M6.1845 2.01849C6.35641 1.84658 6.58957 1.75 6.83268 1.75H10.166C10.4091 1.75 10.6423 1.84658 10.8142 2.01849C10.9861 2.19039 11.0827 2.42355 11.0827 2.66667V3.5835H5.91602V2.66667C5.91602 2.42355 6.01259 2.19039 6.1845 2.01849ZM4.41602 3.5835V2.66667C4.41602 2.02573 4.67063 1.41104 5.12384 0.957825C5.57705 0.504612 6.19174 0.25 6.83268 0.25H10.166C10.807 0.25 11.4216 0.504612 11.8749 0.957825C12.3281 1.41104 12.5827 2.02573 12.5827 2.66667V3.5835H14.3169L14.3327 3.58333L14.3485 3.5835H16C16.4142 3.5835 16.75 3.91928 16.75 4.3335C16.75 4.74771 16.4142 5.0835 16 5.0835H15.0827V16C15.0827 16.6409 14.8281 17.2556 14.3749 17.7088C13.9216 18.1621 13.307 18.4167 12.666 18.4167H4.33268C3.69174 18.4167 3.07705 18.1621 2.62384 17.7088C2.17063 17.2556 1.91602 16.6409 1.91602 16V5.0835H1C0.585786 5.0835 0.25 4.74771 0.25 4.3335C0.25 3.91928 0.585786 3.5835 1 3.5835H2.65024L2.66602 3.58333L2.68179 3.5835H4.41602ZM3.41602 5.0835V16C3.41602 16.2431 3.51259 16.4763 3.6845 16.6482C3.85641 16.8201 4.08957 16.9167 4.33268 16.9167H12.666C12.9091 16.9167 13.1423 16.8201 13.3142 16.6482C13.4861 16.4763 13.5827 16.2431 13.5827 16V5.0835H3.41602ZM6.83398 7.75C7.2482 7.75 7.58398 8.08579 7.58398 8.5V13.5C7.58398 13.9142 7.2482 14.25 6.83398 14.25C6.41977 14.25 6.08398 13.9142 6.08398 13.5V8.5C6.08398 8.08579 6.41977 7.75 6.83398 7.75ZM10.916 8.5C10.916 8.08579 10.5802 7.75 10.166 7.75C9.7518 7.75 9.41602 8.08579 9.41602 8.5V13.5C9.41602 13.9142 9.7518 14.25 10.166 14.25C10.5802 14.25 10.916 13.9142 10.916 13.5V8.5Z" fill="#533EED"/>
</svg>
