<svg width="117" height="22" viewBox="0 0 117 22" fill="none" xmlns="http://www.w3.org/2000/svg">
<path d="M25.3984 1.10059H40.3936V5.06104H29.6404V8.88071H37.8449V12.7004H29.6404V16.6608H40.3936V20.9048H25.3984V1.10059Z" fill="#0D0359"/>
<path d="M45.4883 1.10059H49.308L56.1007 9.58854L62.8934 1.10059H66.7131V20.9048H62.4603V7.89036L56.0948 15.8122L49.7283 7.89036V20.9048H45.4883V1.10059Z" fill="#0D0359"/>
<path d="M71.7969 1.10059H76.0408V20.9048H71.7969V1.10059Z" fill="#0D0359"/>
<path d="M81.1328 1.10059H88.3469C94.4298 1.10059 98.8155 5.48632 98.8155 11.0032C98.8155 16.5201 94.4298 20.9048 88.3469 20.9048H81.1328V1.10059ZM88.3469 16.9444C91.884 16.9444 94.4298 14.3976 94.4298 11.0032C94.4298 7.6088 91.884 5.06104 88.3469 5.06104H85.3768V16.9444H88.3469Z" fill="#0D0359"/>
<path d="M104.192 15.3878C104.543 15.803 104.953 16.1651 105.408 16.4628C106.427 17.1523 107.63 17.5174 108.86 17.5103C111.124 17.5103 112.109 16.5209 112.109 15.246C112.109 11.8792 102.207 13.3756 102.207 6.47555C102.207 3.3637 104.895 0.676141 109.421 0.676141C111.174 0.6609 112.898 1.13073 114.4 2.0337C115.01 2.40826 115.572 2.8548 116.074 3.3637L113.246 6.18908C112.942 5.87625 112.611 5.59217 112.255 5.34048C111.462 4.79987 110.527 4.50473 109.568 4.49188C107.418 4.49188 106.597 5.34048 106.597 6.47161C106.597 9.83844 116.499 8.34208 116.499 15.2421C116.499 18.4957 113.67 21.325 109.002 21.325C106.427 21.325 104.531 20.5611 103.258 19.7696C102.545 19.359 101.905 18.8331 101.363 18.2132L104.192 15.3878Z" fill="#0D0359"/>
<path d="M20.3043 4.38473V12.3913H9.01562V1.09961H17.0192C17.4506 1.09961 17.8778 1.18458 18.2764 1.34967C18.675 1.51477 19.0371 1.75675 19.3422 2.0618C19.6472 2.36685 19.8892 2.729 20.0543 3.12757C20.2194 3.52614 20.3043 3.95332 20.3043 4.38473Z" fill="#0FE4BD"/>
<path d="M15.4095 12.3915V18.7855H4.07258C3.88211 18.7857 3.69349 18.7482 3.5175 18.6754C3.3415 18.6026 3.18159 18.4958 3.04692 18.3611C2.91224 18.2264 2.80543 18.0665 2.7326 17.8905C2.65977 17.7145 2.62235 17.5259 2.62248 17.3354V5.99257H9.01551V3.87305H0.5V17.6199C0.5 18.4912 0.84611 19.3268 1.46219 19.9429C2.07827 20.559 2.91385 20.9051 3.78512 20.9051H17.531V12.3915H15.4095Z" fill="#0D0359"/>
</svg>
