<svg width="20" height="21" viewBox="0 0 20 21" fill="none" xmlns="http://www.w3.org/2000/svg">
<path d="M20.0004 3.31829V11.4057H8.59766V0H16.6821C17.1178 0 17.5493 0.0858301 17.9519 0.25259C18.3545 0.41935 18.7203 0.663773 19.0285 0.971905C19.3366 1.28004 19.581 1.64584 19.7478 2.04844C19.9145 2.45103 20.0004 2.88253 20.0004 3.31829Z" fill="#0FE4BD"/>
<path d="M15.0601 11.4014V17.86H3.60866C3.41627 17.8601 3.22574 17.8223 3.04797 17.7487C2.8702 17.6752 2.70867 17.5673 2.57263 17.4312C2.43659 17.2952 2.32871 17.1337 2.25514 16.9559C2.18158 16.7781 2.14378 16.5876 2.14391 16.3952V4.9378H8.60151V2.79688H0V16.6826C0 17.5627 0.349605 18.4067 0.971905 19.029C1.59421 19.6513 2.43823 20.0009 3.31829 20.0009H17.203V11.4014H15.0601Z" fill="#0D0359"/>
</svg>
