<svg width="124" height="120" viewBox="0 0 124 120" fill="none" xmlns="http://www.w3.org/2000/svg">
<path d="M58.8678 61.2627L13 83.7379H31.8058H44.3048H54.969H77.2149L124 61.2627H58.8678Z" fill="#BEBECA"/>
<rect x="63.5" y="66.8945" width="51.21" height="12.7395" rx="3.5" fill="white" fill-opacity="0.6" stroke="url(#paint0_linear_1707_35999)"/>
<rect x="77.1992" y="70.334" width="25.647" height="1.83193" rx="0.915965" fill="#D5D5E0"/>
<rect x="77.1992" y="74.458" width="18.3193" height="1.83193" rx="0.915965" fill="#EDEDF0"/>
<path fill-rule="evenodd" clip-rule="evenodd" d="M68.2742 70.6516H68.3748C68.4183 70.0801 68.8958 69.6299 69.4784 69.6299H70.1596C70.7422 69.6299 71.2197 70.0801 71.2632 70.6516H71.3638C71.6717 70.6516 71.9201 70.6516 72.1205 70.6698C72.3269 70.6885 72.5074 70.7281 72.6713 70.8227C72.8655 70.9348 73.0267 71.096 73.1388 71.2902C73.2334 71.4541 73.273 71.6345 73.2917 71.841C73.3099 72.0414 73.3099 72.2897 73.3099 72.5977V72.6221C73.3099 72.93 73.3099 73.1784 73.2917 73.3788C73.273 73.5853 73.2334 73.7657 73.1388 73.9296C73.1132 73.974 73.085 74.0166 73.0544 74.0573H70.7203C70.6091 73.6642 70.2477 73.3762 69.819 73.3762C69.3903 73.3762 69.0289 73.6642 68.9177 74.0573H66.5836C66.553 74.0166 66.5248 73.974 66.4992 73.9296C66.4046 73.7657 66.365 73.5853 66.3463 73.3788C66.3281 73.1784 66.3281 72.9301 66.3281 72.6221V72.5977C66.3281 72.2898 66.3281 72.0414 66.3463 71.841C66.365 71.6345 66.4046 71.4541 66.4992 71.2902C66.6113 71.096 66.7725 70.9348 66.9667 70.8227C67.1306 70.7281 67.311 70.6885 67.5175 70.6698C67.7179 70.6516 67.9663 70.6516 68.2742 70.6516ZM70.7495 70.6516H68.8885C68.9298 70.3628 69.1782 70.1407 69.4784 70.1407H70.1596C70.4598 70.1407 70.7082 70.3628 70.7495 70.6516Z" fill="#533EED"/>
<path opacity="0.4" d="M72.7995 74.5674H70.721C70.6098 74.9605 70.2484 75.2485 69.8196 75.2485C69.3909 75.2485 69.0295 74.9605 68.9183 74.5674H66.8398C66.8408 74.9256 66.8466 75.6467 66.8793 75.8902C66.9205 76.1968 67.0087 76.4549 67.2137 76.6599C67.4187 76.8649 67.6768 76.9531 67.9834 76.9943C68.2786 77.034 68.654 77.034 69.1198 77.034H70.5195C70.9853 77.034 71.3607 77.034 71.6559 76.9943C71.9625 76.9531 72.2206 76.8649 72.4256 76.6599C72.6306 76.4549 72.7188 76.1968 72.76 75.8902C72.7927 75.6467 72.7984 74.9256 72.7995 74.5674Z" fill="#533EED"/>
<path d="M69.8234 73.8008C69.5412 73.8008 69.3125 74.0295 69.3125 74.3116C69.3125 74.5938 69.5412 74.8225 69.8234 74.8225C70.1055 74.8225 70.3342 74.5938 70.3342 74.3116C70.3342 74.0295 70.1055 73.8008 69.8234 73.8008Z" fill="#EDEDF0"/>
<g opacity="0.44" filter="url(#filter0_d_1707_35999)">
<path fill-rule="evenodd" clip-rule="evenodd" d="M35.067 83.7383C35.1509 84.4475 35.3321 85.1433 35.6065 85.8058C35.9984 86.7518 36.5727 87.6114 37.2968 88.3355C38.0209 89.0596 38.8804 89.6339 39.8265 90.0258C40.7725 90.4177 41.7865 90.6193 42.8105 90.6193C43.8345 90.6193 44.8484 90.4177 45.7944 90.0258C46.7405 89.6339 47.6001 89.0596 48.3241 88.3355C49.0482 87.6114 49.6226 86.7518 50.0144 85.8058C50.2888 85.1433 50.47 84.4475 50.5539 83.7383H77.2149V110.718C77.2149 111.27 76.7672 111.718 76.2149 111.718H17C14.7909 111.718 13 109.927 13 107.718V83.7383H35.067Z" fill="white"/>
</g>
<path d="M35.0143 82.8216C35.0143 83.8456 35.216 84.8596 35.6079 85.8056C35.9997 86.7516 36.5741 87.6112 37.2982 88.3353C38.0222 89.0594 38.8818 89.6337 39.8279 90.0256C40.7739 90.4175 41.7879 90.6191 42.8119 90.6191C43.8358 90.6191 44.8498 90.4175 45.7958 90.0256C46.7419 89.6337 47.6015 89.0594 48.3255 88.3353C49.0496 87.6112 49.624 86.7516 50.0158 85.8056C50.4077 84.8596 50.6094 83.8456 50.6094 82.8216L42.8119 82.8216L35.0143 82.8216Z" fill="#BEBECA"/>
<path opacity="0.44" d="M77.2148 83.7372L124 61.2627V92.9108L77.2148 111.62V83.7372Z" fill="#E2A600"/>
<rect x="32.2656" y="98.874" width="18.3471" height="4.58678" rx="2.29339" fill="#BEBECA"/>
<path d="M40.5396 31.6149C36.3306 26.8194 39.1778 17.4376 46.8992 10.6602C54.6206 3.88271 64.2924 2.27584 68.5014 7.07159C68.7725 7.38048 69.013 7.70936 69.226 8.0542C69.1779 7.57019 69.1019 7.09753 68.9914 6.64136L69.8651 5.87441L67.1567 3.03144C67.1559 3.03063 67.1554 3.02982 67.1548 3.02901C67.0097 2.86362 66.8584 2.70526 66.7016 2.55365L66.5865 2.43285L66.5762 2.44177C61.6962 -2.08184 51.585 -0.176618 43.4453 6.96782C35.4704 13.9677 32.235 23.4975 35.7306 28.9832L35.6733 29.0324L36.0171 29.4035C36.1579 29.5964 36.306 29.785 36.4651 29.9666C36.7154 30.2517 36.9864 30.5123 37.2705 30.7563L39.1754 32.812L39.8089 32.2561C40.4637 32.5086 41.1617 32.6945 41.8938 32.8172C41.3971 32.4737 40.9428 32.0743 40.5396 31.6149Z" fill="#BEBECA"/>
<path d="M69.8676 5.87375C65.2478 0.610481 54.6326 2.37382 46.158 9.81255C37.6834 17.251 34.5583 27.5481 39.1782 32.8114C43.798 38.0746 54.4131 36.3113 62.8877 28.8726C71.3623 21.4338 74.4874 11.137 69.8676 5.87375ZM62.144 28.0254C54.4226 34.8028 44.7508 36.4094 40.5415 31.6139C36.3325 26.8184 39.1798 17.4367 46.9012 10.6592C54.6229 3.88205 64.2946 2.27518 68.5037 7.07093C72.713 11.8664 69.8657 21.2479 62.144 28.0254Z" fill="white"/>
<path d="M32.7617 31.822L34.1459 34.9679C34.1459 34.9679 35.7817 34.2128 37.0402 33.8982C38.2987 33.5837 39.862 33.2926 39.862 33.2926L37.0244 26.4014C37.0244 26.4014 35.7817 29.6827 32.7617 31.822Z" fill="white"/>
<path opacity="0.44" fill-rule="evenodd" clip-rule="evenodd" d="M32.6379 27.6674C33.6445 26.4092 34.4593 25.1836 34.4593 25.1836L34.8647 27.3455L35.6754 28.6968C34.5255 30.5885 32.7638 31.82 32.7638 31.82L30.6875 29.4291C30.6875 29.4291 31.6312 28.9257 32.6379 27.6674ZM31.9349 32.6703L30.6875 29.4298L32.7641 31.8209L34.1482 34.9668L31.9349 32.6703Z" fill="#D5D5E0"/>
<path d="M28.0938 31.6518L31.0054 36.3464L33.2497 34.1112L31.121 30.7529L28.0938 31.6518Z" fill="white"/>
<path d="M28.095 31.6514L1.04688 47.4914L3.14316 51.5302L31.0066 36.346L28.095 31.6514Z" fill="#BEBECA"/>
<path d="M1.04314 47.4925C1.04314 47.4925 0.685333 46.7256 0.429682 47.0834C0.174031 47.4412 -0.33727 49.3329 0.32753 50.7644C0.992059 52.1959 3.34399 52.1959 3.39507 51.9913C3.44614 51.7867 3.13942 51.5311 3.13942 51.5311L1.04314 47.4925Z" fill="white"/>
<path d="M40.1328 31.1073C40.1563 31.1395 40.1806 31.1714 40.2047 31.2033C40.3109 31.3435 40.4203 31.4816 40.5373 31.6149C40.6552 31.7489 40.7784 31.8762 40.9046 32.0002C40.9489 32.044 40.9949 32.0859 41.0405 32.1283C41.1238 32.2062 41.2089 32.2821 41.2956 32.3559C41.3516 32.4034 41.4075 32.451 41.4651 32.4967C41.5508 32.5653 41.6389 32.631 41.7278 32.6958C41.7826 32.7361 41.8361 32.778 41.8923 32.8166C46.5832 36.0536 55.1583 34.1541 62.1401 28.026C69.3645 21.6848 72.321 13.0645 69.2243 8.05313C69.2243 8.05313 69.2243 8.05367 69.2245 8.05421C69.1978 8.01097 69.1667 7.97043 69.1391 7.92773C70.8646 13.0348 67.8198 20.5987 61.3107 26.3119C53.5893 33.0893 43.9176 34.6959 39.7082 29.9004C39.4691 29.628 39.2602 29.3364 39.0664 29.0357C39.0775 29.0684 39.0902 29.1002 39.1015 29.1329C39.1486 29.267 39.1994 29.3994 39.2531 29.5299C39.2726 29.577 39.2915 29.624 39.3118 29.6705C39.3769 29.8202 39.4461 29.9677 39.5201 30.1126C39.5391 30.1496 39.5593 30.1855 39.5788 30.2223C39.6474 30.3512 39.7196 30.478 39.7958 30.6023C39.8131 30.6306 39.8293 30.6593 39.8471 30.6874C39.9366 30.8306 40.0325 30.9703 40.1328 31.1073Z" fill="#D5D5E0"/>
<path fill-rule="evenodd" clip-rule="evenodd" d="M59.02 7.10189C59.2584 6.96261 59.3388 6.6564 59.1995 6.41796C59.0602 6.17952 58.754 6.09914 58.5156 6.23842L53.924 8.92062C51.4402 10.3716 49.2895 12.3291 47.6118 14.6658L44.764 18.6322C44.603 18.8565 44.6543 19.1689 44.8786 19.33C45.1029 19.491 45.4153 19.4397 45.5764 19.2154L48.4241 15.249C50.02 13.0263 52.0657 11.1643 54.4284 9.78409L59.02 7.10189ZM44.4167 20.0582C44.6319 19.8852 44.6662 19.5705 44.4932 19.3552C44.3202 19.14 44.0055 19.1057 43.7903 19.2787L41.8708 20.8211C41.6556 20.994 41.6213 21.3088 41.7943 21.524C41.9672 21.7393 42.282 21.7735 42.4972 21.6006L44.4167 20.0582Z" fill="white"/>
<path d="M58.3071 19.3017C58.5503 20.0014 57.0516 21.1582 54.9595 21.8855C52.8674 22.6128 50.5842 22.9034 50.341 22.2037C50.0977 21.504 51.9865 20.0789 54.0786 19.3516C56.1707 18.6243 58.0638 18.602 58.3071 19.3017Z" fill="white"/>
<path d="M57.641 48.6319L50.3805 22.4254C50.2441 21.933 50.5008 21.4169 50.9759 21.2287L57.2469 18.7444C57.6107 18.6003 58.0252 18.6816 58.3076 18.9526L88.2039 47.6435C88.8539 48.2672 88.4124 49.365 87.5115 49.365H58.6047C58.1553 49.365 57.761 49.0651 57.641 48.6319Z" fill="url(#paint1_linear_1707_35999)"/>
<defs>
<filter id="filter0_d_1707_35999" x="9" y="83.7383" width="72.2148" height="35.9795" filterUnits="userSpaceOnUse" color-interpolation-filters="sRGB">
<feFlood flood-opacity="0" result="BackgroundImageFix"/>
<feColorMatrix in="SourceAlpha" type="matrix" values="0 0 0 0 0 0 0 0 0 0 0 0 0 0 0 0 0 0 127 0" result="hardAlpha"/>
<feOffset dy="4"/>
<feGaussianBlur stdDeviation="2"/>
<feComposite in2="hardAlpha" operator="out"/>
<feColorMatrix type="matrix" values="0 0 0 0 0.745098 0 0 0 0 0.745098 0 0 0 0 0.792157 0 0 0 0.14 0"/>
<feBlend mode="normal" in2="BackgroundImageFix" result="effect1_dropShadow_1707_35999"/>
<feBlend mode="normal" in="SourceGraphic" in2="effect1_dropShadow_1707_35999" result="shape"/>
</filter>
<linearGradient id="paint0_linear_1707_35999" x1="64.3739" y1="67.588" x2="107.653" y2="77.8926" gradientUnits="userSpaceOnUse">
<stop stop-color="white"/>
<stop offset="1" stop-color="white" stop-opacity="0"/>
</linearGradient>
<linearGradient id="paint1_linear_1707_35999" x1="52.8201" y1="19.8642" x2="75.9265" y2="57.2363" gradientUnits="userSpaceOnUse">
<stop stop-color="white"/>
<stop offset="1" stop-color="white" stop-opacity="0"/>
</linearGradient>
</defs>
</svg>
