<svg width="24" height="25" viewBox="0 0 24 25" fill="none" xmlns="http://www.w3.org/2000/svg">
<mask id="path-1-inside-1_1741_54399" fill="white">
<path fill-rule="evenodd" clip-rule="evenodd" d="M16.2322 7.23885C16.1538 7.39573 16.2322 7.60489 16.4152 7.68333C17.095 7.94479 17.5918 8.59844 17.5918 9.38281C17.5918 10.1672 17.095 10.8208 16.4152 11.0823C16.2322 11.1346 16.1538 11.3437 16.2322 11.5268C16.5198 12.2066 16.4152 12.9909 15.8662 13.54C15.3171 14.0629 14.5066 14.1936 13.8529 13.906C13.6961 13.8276 13.4869 13.906 13.4085 14.0891C13.147 14.7688 12.4934 15.2656 11.709 15.2656C10.9246 15.2656 10.271 14.7688 10.0095 14.0891C9.95721 13.906 9.74805 13.8276 9.56502 13.906C8.88523 14.1936 8.10086 14.0891 7.5518 13.54C7.02888 12.9909 6.89815 12.1804 7.18575 11.5268C7.26419 11.3699 7.18575 11.1607 7.00273 11.0823C6.32294 10.8208 5.82617 10.1672 5.82617 9.38281C5.82617 8.59844 6.32294 7.94479 7.00273 7.68333C7.18575 7.63104 7.26419 7.42187 7.18575 7.23885C6.89815 6.55906 7.00273 5.77469 7.5518 5.22562C8.10086 4.70271 8.91138 4.57198 9.56502 4.85958C9.7219 4.93802 9.93107 4.85958 10.0095 4.67656C10.271 3.99677 10.9246 3.5 11.709 3.5C12.4934 3.5 13.147 3.99677 13.4085 4.67656C13.4608 4.85958 13.6699 4.93802 13.8529 4.85958C14.5327 4.57198 15.3171 4.67656 15.8662 5.22562C16.3891 5.77469 16.5198 6.58521 16.2322 7.23885ZM14.8889 15.0786H15.1534C15.3517 15.0786 15.5832 15.0437 15.7815 15.0089C15.9468 14.974 16.1122 15.0437 16.2113 15.1831L19.9143 20.5148C20.1127 20.7936 19.9474 21.1769 19.6167 21.2118L17.5008 21.3512C17.3355 21.3512 17.2032 21.4557 17.1371 21.6299L16.3767 23.7208C16.2444 24.0344 15.8477 24.1041 15.6493 23.8254L11.8472 18.3194C11.6818 18.0755 11.3512 18.0755 11.1859 18.3194L7.35071 23.8254C7.15234 24.1041 6.7556 24.0344 6.62335 23.7208L5.86292 21.6299C5.7968 21.4557 5.66455 21.3512 5.49924 21.3512L3.38326 21.2118C3.05264 21.1769 2.88733 20.7936 3.08571 20.5148L6.85478 15.1831C6.95397 15.0437 7.11928 14.974 7.28459 15.0089C7.48296 15.0437 7.71439 15.0786 7.94583 15.0786H8.21033C8.34257 15.0437 8.47482 15.1134 8.57401 15.218C9.30137 16.0892 10.3924 16.6467 11.5496 16.6467C12.7068 16.6467 13.7978 16.124 14.5252 15.218C14.6244 15.1134 14.7566 15.0786 14.8889 15.0786Z"/>
</mask>
<path d="M16.4152 7.68333L15.8244 9.06205L15.8504 9.07319L15.8768 9.08335L16.4152 7.68333ZM16.2322 7.23885L17.5738 7.90968L17.5903 7.8767L17.6052 7.84296L16.2322 7.23885ZM16.4152 11.0823L16.8273 12.5246L16.8914 12.5063L16.9537 12.4823L16.4152 11.0823ZM16.2322 11.5268L17.6137 10.9423L17.6109 10.9359L16.2322 11.5268ZM15.8662 13.54L16.9006 14.6262L16.9139 14.6136L16.9268 14.6007L15.8662 13.54ZM13.8529 13.906L13.1821 15.2477L13.2151 15.2642L13.2488 15.279L13.8529 13.906ZM13.4085 14.0891L12.0297 13.4982L12.0186 13.5242L12.0084 13.5506L13.4085 14.0891ZM10.0095 14.0891L8.56722 14.5011L8.58554 14.5653L8.60949 14.6275L10.0095 14.0891ZM9.56502 13.906L10.1495 15.2875L10.1559 15.2848L9.56502 13.906ZM7.5518 13.54L6.46559 14.5745L6.4782 14.5877L6.49114 14.6007L7.5518 13.54ZM7.18575 11.5268L5.84411 10.8559L5.82763 10.8889L5.81278 10.9227L7.18575 11.5268ZM7.00273 11.0823L7.59361 9.70357L7.56761 9.69243L7.5412 9.68227L7.00273 11.0823ZM7.00273 7.68333L6.59065 6.24105L6.52652 6.25937L6.46426 6.28331L7.00273 7.68333ZM7.18575 7.23885L5.80429 7.82332L5.80704 7.82973L7.18575 7.23885ZM7.5518 5.22562L6.51731 4.13942L6.50407 4.15203L6.49114 4.16496L7.5518 5.22562ZM9.56502 4.85958L10.2358 3.51794L10.2029 3.50146L10.1691 3.48661L9.56502 4.85958ZM10.0095 4.67656L11.3882 5.26744L11.3994 5.24144L11.4095 5.21503L10.0095 4.67656ZM13.4085 4.67656L14.8507 4.26448L14.8324 4.20035L14.8085 4.13809L13.4085 4.67656ZM13.8529 4.85958L13.2685 3.47812L13.2621 3.48087L13.8529 4.85958ZM15.8662 5.22562L16.9524 4.19114L16.9398 4.1779L16.9268 4.16496L15.8662 5.22562ZM15.7815 15.0089L16.0411 16.4863L16.0661 16.4819L16.0909 16.4766L15.7815 15.0089ZM16.2113 15.1831L17.4434 14.3275L17.4385 14.3204L17.4335 14.3135L16.2113 15.1831ZM19.9143 20.5148L18.6823 21.3705L18.6872 21.3775L18.6921 21.3845L19.9143 20.5148ZM19.6167 21.2118L19.7153 22.7085L19.7447 22.7066L19.774 22.7035L19.6167 21.2118ZM17.5008 21.3512V22.8512H17.5501L17.5994 22.8479L17.5008 21.3512ZM17.1371 21.6299L15.7347 21.0977L15.731 21.1075L15.7274 21.1173L17.1371 21.6299ZM16.3767 23.7208L17.7588 24.3036L17.7734 24.2689L17.7863 24.2335L16.3767 23.7208ZM15.6493 23.8254L14.415 24.6777L14.421 24.6864L14.4271 24.695L15.6493 23.8254ZM11.8472 18.3194L10.6054 19.1609L10.6128 19.1718L11.8472 18.3194ZM11.1859 18.3194L12.4167 19.1768L12.4222 19.1689L12.4276 19.1609L11.1859 18.3194ZM7.35071 23.8254L8.57288 24.695L8.57724 24.6889L8.58155 24.6827L7.35071 23.8254ZM6.62335 23.7208L5.21368 24.2335L5.22656 24.2689L5.2412 24.3036L6.62335 23.7208ZM5.86292 21.6299L7.27258 21.1173L7.26902 21.1075L7.26533 21.0977L5.86292 21.6299ZM5.49924 21.3512L5.40064 22.8479L5.44988 22.8512H5.49924V21.3512ZM3.38326 21.2118L3.22604 22.7035L3.2553 22.7066L3.28466 22.7085L3.38326 21.2118ZM3.08571 20.5148L4.30788 21.3845L4.31056 21.3807L3.08571 20.5148ZM6.85478 15.1831L5.63261 14.3135L5.62993 14.3172L6.85478 15.1831ZM7.28459 15.0089L6.97518 16.4766L7.00004 16.4819L7.02506 16.4863L7.28459 15.0089ZM8.21033 15.0786V16.5786H8.40463L8.59253 16.5291L8.21033 15.0786ZM8.57401 15.218L9.72545 14.2566L9.69494 14.2201L9.66218 14.1856L8.57401 15.218ZM14.5252 15.218L13.437 14.1856L13.3943 14.2306L13.3555 14.2789L14.5252 15.218ZM17.0061 6.30461C17.5366 6.53195 17.9191 7.21908 17.5738 7.90968L14.8906 6.56803C14.3884 7.57238 14.9278 8.67783 15.8244 9.06205L17.0061 6.30461ZM19.0918 9.38281C19.0918 7.93862 18.1754 6.75318 16.9537 6.28331L15.8768 9.08335C16.0147 9.1364 16.0918 9.25825 16.0918 9.38281H19.0918ZM16.9537 12.4823C18.1754 12.0124 19.0918 10.827 19.0918 9.38281H16.0918C16.0918 9.50737 16.0147 9.62922 15.8768 9.68227L16.9537 12.4823ZM17.6109 10.9359C17.8109 11.4026 17.692 12.2775 16.8273 12.5246L16.0031 9.64C14.7724 9.99165 14.4966 11.2849 14.8535 12.1176L17.6109 10.9359ZM16.9268 14.6007C17.9511 13.5763 18.1144 12.126 17.6137 10.9423L14.8508 12.1112C14.8889 12.2013 14.8929 12.2789 14.8837 12.3336C14.8755 12.3826 14.8546 12.4302 14.8055 12.4793L16.9268 14.6007ZM13.2488 15.279C14.4585 15.8112 15.9148 15.5651 16.9006 14.6262L14.8317 12.4538C14.7801 12.5029 14.7131 12.5366 14.6389 12.5496C14.5628 12.563 14.4988 12.5514 14.457 12.5331L13.2488 15.279ZM14.7872 14.6799C14.5598 15.2104 13.8727 15.593 13.1821 15.2477L14.5238 12.5644C13.5194 12.0622 12.414 12.6017 12.0297 13.4982L14.7872 14.6799ZM11.709 16.7656C13.1532 16.7656 14.3386 15.8492 14.8085 14.6275L12.0084 13.5506C11.9554 13.6885 11.8335 13.7656 11.709 13.7656V16.7656ZM8.60949 14.6275C9.07935 15.8492 10.2648 16.7656 11.709 16.7656V13.7656C11.5844 13.7656 11.4626 13.6885 11.4095 13.5506L8.60949 14.6275ZM10.1559 15.2848C9.68922 15.4848 8.81428 15.3658 8.56722 14.5011L11.4518 13.677C11.1001 12.4462 9.80688 12.1704 8.97414 12.5273L10.1559 15.2848ZM6.49114 14.6007C7.51544 15.625 8.96581 15.7883 10.1495 15.2875L8.98057 12.5246C8.89045 12.5627 8.81288 12.5667 8.75823 12.5576C8.70917 12.5493 8.66158 12.5285 8.61246 12.4793L6.49114 14.6007ZM5.81278 10.9227C5.28054 12.1323 5.52671 13.5887 6.46559 14.5745L8.638 12.5055C8.58884 12.4539 8.5552 12.3869 8.54214 12.3127C8.52876 12.2366 8.54034 12.1727 8.55873 12.1309L5.81278 10.9227ZM6.41186 12.461C5.8814 12.2337 5.49882 11.5465 5.84411 10.8559L8.5274 12.1976C9.02957 11.1932 8.49011 10.0878 7.59361 9.70357L6.41186 12.461ZM4.32617 9.38281C4.32617 10.827 5.24261 12.0124 6.46427 12.4823L7.5412 9.68227C7.40327 9.62922 7.32617 9.50737 7.32617 9.38281H4.32617ZM6.46426 6.28331C5.24261 6.75318 4.32617 7.93862 4.32617 9.38281H7.32617C7.32617 9.25825 7.40327 9.1364 7.5412 9.08335L6.46426 6.28331ZM5.80704 7.82973C5.60703 7.36305 5.72594 6.48811 6.59065 6.24105L7.41482 9.12562C8.64556 8.77397 8.92135 7.4807 8.56447 6.64797L5.80704 7.82973ZM6.49114 4.16496C5.46683 5.18927 5.30352 6.63964 5.8043 7.82331L8.56721 6.65439C8.52908 6.56427 8.52505 6.4867 8.53424 6.43206C8.54249 6.383 8.56333 6.33541 8.61246 6.28628L6.49114 4.16496ZM10.1691 3.48661C8.9595 2.95437 7.50313 3.20054 6.51731 4.13942L8.58628 6.31183C8.6379 6.26267 8.70488 6.22903 8.77909 6.21597C8.85515 6.20259 8.91914 6.21417 8.96092 6.23256L10.1691 3.48661ZM8.63079 4.08568C8.85812 3.55523 9.54525 3.17264 10.2358 3.51794L8.8942 6.20122C9.89855 6.7034 11.004 6.16394 11.3882 5.26744L8.63079 4.08568ZM11.709 2C10.2648 2 9.07935 2.91644 8.60949 4.13809L11.4095 5.21503C11.4626 5.0771 11.5844 5 11.709 5V2ZM14.8085 4.13809C14.3386 2.91644 13.1532 2 11.709 2V5C11.8335 5 11.9554 5.0771 12.0084 5.21503L14.8085 4.13809ZM13.2621 3.48087C13.7287 3.28086 14.6037 3.39977 14.8507 4.26448L11.9662 5.08865C12.3178 6.31939 13.6111 6.59518 14.4438 6.2383L13.2621 3.48087ZM16.9268 4.16496C15.9025 3.14066 14.4522 2.97735 13.2685 3.47813L14.4374 6.24103C14.5275 6.20291 14.6051 6.19888 14.6597 6.20807C14.7088 6.21632 14.7564 6.23716 14.8055 6.28628L16.9268 4.16496ZM17.6052 7.84296C18.1374 6.63333 17.8913 5.17696 16.9524 4.19114L14.78 6.26011C14.8291 6.31173 14.8628 6.37871 14.8758 6.45292C14.8892 6.52898 14.8776 6.59297 14.8592 6.63475L17.6052 7.84296ZM15.1534 13.5786H14.8889V16.5786H15.1534V13.5786ZM15.522 13.5315C15.3288 13.5654 15.2097 13.5786 15.1534 13.5786V16.5786C15.4938 16.5786 15.8375 16.522 16.0411 16.4863L15.522 13.5315ZM17.4335 14.3135C17.0117 13.7207 16.2601 13.375 15.4721 13.5411L16.0909 16.4766C15.6336 16.573 15.2126 16.3667 14.9892 16.0528L17.4335 14.3135ZM21.1463 19.6592L17.4434 14.3275L14.9793 16.0388L18.6823 21.3705L21.1463 19.6592ZM19.774 22.7035C21.3202 22.5405 21.9568 20.798 21.1365 19.6452L18.6921 21.3845C18.2686 20.7892 18.5746 19.8133 19.4595 19.72L19.774 22.7035ZM17.5994 22.8479L19.7153 22.7085L19.5181 19.715L17.4022 19.8544L17.5994 22.8479ZM18.5395 22.1622C18.491 22.2898 18.3905 22.464 18.199 22.612C17.9984 22.7671 17.7501 22.8512 17.5008 22.8512V19.8512C16.5864 19.8512 15.9735 20.4683 15.7347 21.0977L18.5395 22.1622ZM17.7863 24.2335L18.5467 22.1426L15.7274 21.1173L14.967 23.2081L17.7863 24.2335ZM14.4271 24.695C14.8651 25.3106 15.5829 25.5837 16.2675 25.4775C16.9296 25.3749 17.4935 24.9328 17.7588 24.3036L14.9945 23.138C15.1276 22.8224 15.4269 22.572 15.808 22.5129C16.2116 22.4504 16.6318 22.6189 16.8715 22.9557L14.4271 24.695ZM10.6128 19.1718L14.415 24.6777L16.8836 22.973L13.0815 17.4671L10.6128 19.1718ZM12.4276 19.1609C12.2374 19.4416 11.9011 19.6365 11.5165 19.6365C11.132 19.6365 10.7956 19.4416 10.6054 19.1609L13.0889 17.4779C12.3286 16.356 10.7045 16.356 9.94418 17.4779L12.4276 19.1609ZM8.58155 24.6827L12.4167 19.1768L9.95507 17.4621L6.11988 22.968L8.58155 24.6827ZM5.2412 24.3036C5.50651 24.9328 6.07036 25.3749 6.73247 25.4775C7.41707 25.5837 8.13486 25.3106 8.57288 24.695L6.12855 22.9557C6.3682 22.6189 6.78842 22.4504 7.192 22.5129C7.57308 22.572 7.87243 22.8224 8.00549 23.138L5.2412 24.3036ZM4.45325 22.1426L5.21368 24.2335L8.03301 23.2081L7.27258 21.1173L4.45325 22.1426ZM5.49924 22.8512C5.24985 22.8512 5.00162 22.7671 4.80095 22.612C4.60949 22.464 4.50896 22.2898 4.46051 22.1622L7.26533 21.0977C7.02645 20.4683 6.41361 19.8512 5.49924 19.8512V22.8512ZM3.28466 22.7085L5.40064 22.8479L5.59784 19.8544L3.48187 19.715L3.28466 22.7085ZM1.86354 19.6452C1.04322 20.798 1.67984 22.5405 3.22604 22.7035L3.54049 19.72C4.42545 19.8133 4.73145 20.7892 4.30788 21.3845L1.86354 19.6452ZM5.62993 14.3172L1.86085 19.6489L4.31056 21.3807L8.07963 16.049L5.62993 14.3172ZM7.59399 13.5411C6.80603 13.375 6.05439 13.7207 5.63261 14.3135L8.07695 16.0528C7.85354 16.3667 7.43252 16.573 6.97518 16.4766L7.59399 13.5411ZM7.94583 13.5786C7.85077 13.5786 7.72535 13.5633 7.54411 13.5315L7.02506 16.4863C7.24057 16.5241 7.57802 16.5786 7.94583 16.5786V13.5786ZM8.21033 13.5786H7.94583V16.5786H8.21033V13.5786ZM9.66218 14.1856C9.40068 13.9099 8.73533 13.389 7.82812 13.6281L8.59253 16.5291C8.28087 16.6112 8.00548 16.5556 7.82184 16.4782C7.65028 16.4059 7.54296 16.3106 7.48584 16.2504L9.66218 14.1856ZM11.5496 15.1467C10.8735 15.1467 10.192 14.8154 9.72545 14.2566L7.42257 16.1793C8.41074 17.3629 9.91132 18.1467 11.5496 18.1467V15.1467ZM13.3555 14.2789C12.9125 14.8308 12.2514 15.1467 11.5496 15.1467V18.1467C13.1621 18.1467 14.6832 17.4173 15.6949 16.157L13.3555 14.2789ZM14.8889 13.5786C14.5047 13.5786 13.9131 13.6837 13.437 14.1856L15.6133 16.2504C15.3356 16.5431 15.0085 16.5786 14.8889 16.5786V13.5786Z" fill="#222529" mask="url(#path-1-inside-1_1741_54399)"/>
</svg>
