<svg width="13" height="17" viewBox="0 0 13 17" fill="none" xmlns="http://www.w3.org/2000/svg">
<path d="M0.414859 16.8528C0.414833 16.8528 2.8664 16.8528 2.8664 16.8528C3.42293 16.8399 3.41925 16.0207 2.86638 16.0098C2.8664 16.0098 2.06156 16.0098 2.06156 16.0098V9.60313H11.444C11.7601 9.60313 12.0467 9.43032 12.1942 9.15214C12.3375 8.87397 12.3206 8.54099 12.1394 8.27964L10.1795 5.45145L12.1394 2.62323C12.3206 2.36191 12.3375 2.02895 12.1942 1.75076C12.0467 1.47257 11.7601 1.29974 11.444 1.29974H2.06156V0.414619C2.05452 -0.132396 1.22862 -0.143995 1.21859 0.414645C1.22653 1.06635 1.21859 16.0098 1.21859 16.0098H0.414833C-0.134832 16.0144 -0.141721 16.8455 0.414859 16.8528Z" fill="#DE2626"/>
</svg>
