<svg width="24" height="24" viewBox="0 0 24 24" fill="none" xmlns="http://www.w3.org/2000/svg">
<g opacity="0.7">
<path d="M12 20C7.5816 20 4 16.4184 4 12C4 7.5816 7.5816 4 12 4C16.4184 4 20 7.5816 20 12C20 16.4184 16.4184 20 12 20ZM12 18.4C13.6974 18.4 15.3253 17.7257 16.5255 16.5255C17.7257 15.3253 18.4 13.6974 18.4 12C18.4 10.3026 17.7257 8.67475 16.5255 7.47452C15.3253 6.27428 13.6974 5.6 12 5.6C10.3026 5.6 8.67475 6.27428 7.47452 7.47452C6.27428 8.67475 5.6 10.3026 5.6 12C5.6 13.6974 6.27428 15.3253 7.47452 16.5255C8.67475 17.7257 10.3026 18.4 12 18.4ZM12 16C11.7878 16 11.5843 15.9157 11.4343 15.7657C11.2843 15.6157 11.2 15.4122 11.2 15.2C11.2 14.9878 11.2843 14.7843 11.4343 14.6343C11.5843 14.4843 11.7878 14.4 12 14.4C12.2122 14.4 12.4157 14.4843 12.5657 14.6343C12.7157 14.7843 12.8 14.9878 12.8 15.2C12.8 15.4122 12.7157 15.6157 12.5657 15.7657C12.4157 15.9157 12.2122 16 12 16ZM13.0208 13.4256C12.8536 13.5563 12.6413 13.6152 12.4307 13.5894C12.2201 13.5636 12.0283 13.4552 11.8976 13.288C11.7669 13.1208 11.708 12.9085 11.7338 12.6979C11.7596 12.4873 11.868 12.2955 12.0352 12.1648L12.3504 11.9184C12.4752 11.8216 12.5796 11.7011 12.6577 11.5638C12.7358 11.4266 12.786 11.2753 12.8055 11.1186C12.825 10.9619 12.8134 10.8028 12.7713 10.6506C12.7292 10.4984 12.6575 10.356 12.5603 10.2316C12.4631 10.1072 12.3422 10.0031 12.2047 9.92549C12.0672 9.84784 11.9157 9.7981 11.759 9.77911C11.6022 9.76012 11.4432 9.77226 11.2912 9.81483C11.1391 9.8574 10.9969 9.92957 10.8728 10.0272L10.5576 10.2736C10.4752 10.3418 10.3799 10.3928 10.2774 10.4236C10.175 10.4544 10.0673 10.4643 9.96097 10.4527C9.8546 10.4411 9.75163 10.4084 9.65815 10.3563C9.56467 10.3042 9.48259 10.2339 9.41676 10.1496C9.35093 10.0652 9.30268 9.96854 9.27489 9.86522C9.24709 9.7619 9.2403 9.65404 9.25493 9.54805C9.26955 9.44206 9.30529 9.34007 9.36003 9.24813C9.41476 9.1562 9.48739 9.07617 9.5736 9.0128L9.888 8.7664C10.4732 8.30917 11.216 8.10312 11.9531 8.19359C12.6902 8.28406 13.3612 8.66363 13.8184 9.2488C14.2756 9.83397 14.4817 10.5768 14.3912 11.3139C14.3007 12.051 13.9212 12.722 13.336 13.1792L13.0208 13.4256Z" fill="white"/>
</g>
</svg>
