<svg width="24" height="24" viewBox="0 0 24 24" fill="none" xmlns="http://www.w3.org/2000/svg">
<path opacity="0.7" fill-rule="evenodd" clip-rule="evenodd" d="M12.5491 3.61013C12.2783 3.39949 11.899 3.39949 11.6282 3.61013L4.92822 8.82124C4.74553 8.96334 4.63867 9.18182 4.63867 9.41326V17.6021C4.63867 18.1959 4.87455 18.7654 5.29443 19.1853C5.7143 19.6052 6.28377 19.841 6.87756 19.841H17.2998C17.8936 19.841 18.463 19.6052 18.8829 19.1853C19.3028 18.7654 19.5387 18.1959 19.5387 17.6021V9.41326C19.5387 9.18182 19.4318 8.96334 19.2491 8.82124L12.5491 3.61013ZM6.13867 17.6021V9.78007L12.0887 5.15229L18.0387 9.78007V17.6021C18.0387 17.7981 17.9608 17.9861 17.8223 18.1246C17.6837 18.2632 17.4957 18.341 17.2998 18.341H15.0721V11.6465C15.0721 11.2323 14.7363 10.8965 14.3221 10.8965H9.85547C9.44126 10.8965 9.10547 11.2323 9.10547 11.6465V18.341H6.87756C6.6816 18.341 6.49366 18.2632 6.35509 18.1246C6.21652 17.9861 6.13867 17.7981 6.13867 17.6021ZM10.6055 18.341H13.5721V12.3965H10.6055V18.341Z" fill="white"/>
</svg>
