<svg width="15" height="17" viewBox="0 0 15 17" fill="none" xmlns="http://www.w3.org/2000/svg">
<g clip-path="url(#clip0_1628_6504)">
<circle cx="7.62891" cy="10" r="7" fill="#DE2626"/>
<path fill-rule="evenodd" clip-rule="evenodd" d="M6.62891 8C6.62891 8.55234 7.07756 9 7.62891 9C8.18025 9 8.62891 8.55234 8.62891 8C8.62891 7.44766 8.18025 7 7.62891 7C7.07756 7 6.62891 7.44766 6.62891 8ZM6.88011 13.47H8.37563C8.51321 13.47 8.62488 13.3583 8.62488 13.2207V9.73119C8.62488 9.5941 8.51321 9.48193 8.37563 9.48193H6.88011C6.74252 9.48193 6.63086 9.5941 6.63086 9.73119V13.2207C6.63086 13.3578 6.74252 13.47 6.88011 13.47Z" fill="white"/>
</g>
<defs>
<clipPath id="clip0_1628_6504">
<rect width="14" height="17" fill="white" transform="translate(0.628906)"/>
</clipPath>
</defs>
</svg>
