<svg width="14" height="14" viewBox="0 0 14 14" fill="none" xmlns="http://www.w3.org/2000/svg">
<path fill-rule="evenodd" clip-rule="evenodd" d="M7.15279 2C4.37834 2 2.12891 4.24972 2.12891 7.02526C2.12891 9.80081 4.37834 12.0505 7.15279 12.0505C9.92723 12.0505 12.1767 9.80081 12.1767 7.02526C12.1767 4.24972 9.92723 2 7.15279 2ZM0.628906 7.02526C0.628906 3.42163 3.54958 0.5 7.15279 0.5C10.756 0.5 13.6767 3.42163 13.6767 7.02526C13.6767 10.6289 10.756 13.5505 7.15279 13.5505C3.54958 13.5505 0.628906 10.6289 0.628906 7.02526ZM7.15318 6.62142C7.56739 6.62142 7.90318 6.95721 7.90318 7.37142V9.49581C7.90318 9.91003 7.56739 10.2458 7.15318 10.2458C6.73896 10.2458 6.40318 9.91003 6.40318 9.49581V7.37142C6.40318 6.95721 6.73896 6.62142 7.15318 6.62142ZM7.15318 4.24726C6.60089 4.24726 6.15318 4.69497 6.15318 5.24726C6.15318 5.79954 6.60089 6.24726 7.15318 6.24726H7.16356C7.71584 6.24726 8.16356 5.79954 8.16356 5.24726C8.16356 4.69497 7.71584 4.24726 7.16356 4.24726H7.15318Z" fill="#666666"/>
</svg>
