<svg width="24" height="24" viewBox="0 0 24 24" fill="none" xmlns="http://www.w3.org/2000/svg">
<mask id="path-1-inside-1_1823_24203" fill="white">
<path fill-rule="evenodd" clip-rule="evenodd" d="M8.59926 6.41463H8.83689C8.93964 5.06396 10.0681 4 11.4451 4H13.0549C14.4319 4 15.5604 5.06396 15.6631 6.41463H15.9008H15.9008C16.6286 6.41463 17.2156 6.41462 17.689 6.45753C18.177 6.50177 18.6035 6.59537 18.9909 6.819C19.4497 7.08392 19.8307 7.46494 20.0956 7.92378C20.3192 8.31113 20.4128 8.73755 20.4571 9.22559C20.5 9.69909 20.5 10.2861 20.5 11.0139V11.0715C20.5 11.7993 20.5 12.3863 20.4571 12.8598C20.4128 13.3478 20.3192 13.7742 20.0956 14.1616C20.0351 14.2664 19.9685 14.3671 19.8963 14.4634H14.3801C14.1173 13.5343 13.2632 12.8537 12.25 12.8537C11.2368 12.8537 10.3827 13.5343 10.1199 14.4634H4.60366C4.53148 14.3671 4.4649 14.2664 4.40438 14.1616C4.18074 13.7742 4.08714 13.3478 4.0429 12.8598C3.99999 12.3863 3.99999 11.7993 4 11.0715V11.0139C3.99999 10.2861 3.99999 9.69908 4.0429 9.22559C4.08714 8.73755 4.18074 8.31113 4.40438 7.92378C4.66929 7.46494 5.05031 7.08392 5.50915 6.81901C5.89649 6.59537 6.32292 6.50177 6.81096 6.45753C7.28444 6.41462 7.87141 6.41463 8.59918 6.41463H8.59926ZM14.4492 6.41463H10.0508C10.1485 5.73204 10.7355 5.20732 11.4451 5.20732H13.0549C13.7645 5.20732 14.3515 5.73204 14.4492 6.41463ZM19.2918 15.6706H14.3798C14.117 16.5997 13.2628 17.2804 12.2496 17.2804C11.2365 17.2804 10.3823 16.5997 10.1195 15.6706H5.20746C5.20982 16.5172 5.22338 18.2215 5.30075 18.797C5.39815 19.5214 5.60653 20.1314 6.091 20.6158C6.57547 21.1004 7.18546 21.3087 7.90994 21.4061C8.60774 21.4999 9.49497 21.4999 10.5957 21.4999H13.9036C15.0043 21.4999 15.8916 21.4999 16.5894 21.4061C17.3139 21.3087 17.9238 21.1004 18.4083 20.6158C18.8928 20.1314 19.1012 19.5214 19.1986 18.797C19.2759 18.2215 19.2894 16.5172 19.2918 15.6706ZM11.0431 15.0672C11.0431 14.4004 11.5836 13.8598 12.2504 13.8598C12.9171 13.8598 13.4577 14.4004 13.4577 15.0672C13.4577 15.7339 12.9171 16.2745 12.2504 16.2745C11.5836 16.2745 11.0431 15.7339 11.0431 15.0672Z"/>
</mask>
<path d="M8.83689 6.41463V7.91463H10.2271L10.3326 6.52842L8.83689 6.41463ZM15.6631 6.41463L14.1674 6.52836L14.2728 7.91463H15.6631V6.41463ZM15.9008 6.41463V7.91463H15.9009L15.9008 6.41463ZM17.689 6.45753L17.8245 4.96366L17.8244 4.96366L17.689 6.45753ZM18.9909 6.819L19.7408 5.51996L19.7408 5.51993L18.9909 6.819ZM20.0956 7.92378L21.3947 7.17388L21.3947 7.17383L20.0956 7.92378ZM20.4571 9.22559L21.951 9.09024L21.951 9.09008L20.4571 9.22559ZM20.4571 12.8598L21.951 12.9953L21.951 12.9951L20.4571 12.8598ZM20.0956 14.1616L21.3945 14.9118L21.3948 14.9114L20.0956 14.1616ZM19.8963 14.4634V15.9634H20.6463L21.0963 15.3634L19.8963 14.4634ZM14.3801 14.4634L12.9367 14.8717L13.2455 15.9634H14.3801V14.4634ZM10.1199 14.4634V15.9634H11.2545L11.5633 14.8717L10.1199 14.4634ZM4.60366 14.4634L3.40356 15.3633L3.85356 15.9634H4.60366V14.4634ZM4.40438 14.1616L3.10531 14.9115L3.10542 14.9117L4.40438 14.1616ZM4.0429 12.8598L2.54902 12.9951L2.54903 12.9952L4.0429 12.8598ZM4 11.0715L5.5 11.0715V11.0715H4ZM4 11.0139H5.5V11.0139L4 11.0139ZM4.0429 9.22559L2.54902 9.09018L2.54902 9.09021L4.0429 9.22559ZM4.40438 7.92378L5.70342 8.67378H5.70342L4.40438 7.92378ZM5.50915 6.81901L6.25915 8.11805L6.25917 8.11804L5.50915 6.81901ZM6.81096 6.45753L6.67556 4.96366L6.67555 4.96366L6.81096 6.45753ZM8.59918 6.41463L8.59916 7.91463H8.59918V6.41463ZM10.0508 6.41463L8.56596 6.20223L8.32102 7.91463H10.0508V6.41463ZM14.4492 6.41463V7.91463H16.179L15.9341 6.20225L14.4492 6.41463ZM14.3798 15.6706V14.1706H13.2452L12.9364 15.2624L14.3798 15.6706ZM19.2918 15.6706L20.7918 15.6749L20.7961 14.1706H19.2918V15.6706ZM10.1195 15.6706L11.5629 15.2624L11.2541 14.1706H10.1195V15.6706ZM5.20746 15.6706V14.1706H3.70326L3.70746 15.6748L5.20746 15.6706ZM5.30075 18.797L6.78738 18.5971L6.78737 18.5971L5.30075 18.797ZM6.091 20.6158L7.15173 19.5552L7.15165 19.5551L6.091 20.6158ZM7.90994 21.4061L7.71009 22.8928L7.71017 22.8928L7.90994 21.4061ZM16.5894 21.4061L16.7891 22.8928L16.7892 22.8928L16.5894 21.4061ZM18.4083 20.6158L17.3477 19.5552L17.3477 19.5552L18.4083 20.6158ZM19.1986 18.797L20.6852 18.9968L20.6852 18.9968L19.1986 18.797ZM8.83689 4.91463H8.59926V7.91463H8.83689V4.91463ZM11.4451 2.5C9.27783 2.5 7.503 4.17415 7.34121 6.30085L10.3326 6.52842C10.3763 5.95377 10.8584 5.5 11.4451 5.5V2.5ZM13.0549 2.5H11.4451V5.5H13.0549V2.5ZM17.1588 6.30091C16.9971 4.17413 15.2221 2.5 13.0549 2.5V5.5C13.6416 5.5 14.1237 5.95379 14.1674 6.52836L17.1588 6.30091ZM15.9008 4.91463H15.6631V7.91463H15.9008V4.91463ZM15.9008 4.91463H15.9008V7.91463H15.9008V4.91463ZM17.8244 4.96366C17.2681 4.91323 16.6032 4.91463 15.9008 4.91463L15.9009 7.91463C16.654 7.91463 17.163 7.91601 17.5536 7.95141L17.8244 4.96366ZM19.7408 5.51993C19.0872 5.14263 18.4167 5.01735 17.8245 4.96366L17.5536 7.95141C17.9374 7.98619 18.1197 8.04811 18.2409 8.11808L19.7408 5.51993ZM21.3947 7.17383C20.9981 6.48691 20.4277 5.91652 19.7408 5.51996L18.2409 8.11805C18.4717 8.25132 18.6634 8.44298 18.7966 8.67373L21.3947 7.17383ZM21.951 9.09008C21.8972 8.49787 21.772 7.8274 21.3947 7.17388L18.7965 8.67368C18.8665 8.79486 18.9284 8.97724 18.9632 9.3611L21.951 9.09008ZM22 11.0139C22 10.3114 22.0014 9.64659 21.951 9.09024L18.9632 9.36094C18.9986 9.75159 19 10.2607 19 11.0139H22ZM22 11.0715V11.0139H19V11.0715H22ZM21.951 12.9951C22.0014 12.4388 22 11.7739 22 11.0715H19C19 11.8246 18.9986 12.3338 18.9632 12.7244L21.951 12.9951ZM21.3948 14.9114C21.772 14.2579 21.8972 13.5875 21.951 12.9953L18.9632 12.7243C18.9284 13.1081 18.8665 13.2905 18.7965 13.4117L21.3948 14.9114ZM21.0963 15.3634C21.2045 15.2192 21.3041 15.0684 21.3945 14.9118L18.7967 13.4114C18.7661 13.4643 18.7326 13.5151 18.6963 13.5634L21.0963 15.3634ZM14.3801 15.9634H19.8963V12.9634H14.3801V15.9634ZM12.25 14.3537C12.5744 14.3537 12.8518 14.5714 12.9367 14.8717L15.8235 14.0551C15.3828 12.4973 13.952 11.3537 12.25 11.3537V14.3537ZM11.5633 14.8717C11.6482 14.5714 11.9256 14.3537 12.25 14.3537V11.3537C10.5481 11.3537 9.11716 12.4973 8.67653 14.0552L11.5633 14.8717ZM4.60366 15.9634H10.1199V12.9634H4.60366V15.9634ZM3.10542 14.9117C3.19595 15.0685 3.29556 15.2192 3.40356 15.3633L5.80376 13.5635C5.7674 13.5151 5.73385 13.4643 5.70334 13.4114L3.10542 14.9117ZM2.54903 12.9952C2.60271 13.5875 2.72801 14.258 3.10531 14.9115L5.70345 13.4116C5.63348 13.2904 5.57156 13.1081 5.53678 12.7244L2.54903 12.9952ZM2.5 11.0715C2.49999 11.774 2.4986 12.4388 2.54902 12.9951L5.53678 12.7244C5.50138 12.3338 5.49999 11.8247 5.5 11.0715L2.5 11.0715ZM2.5 11.0139V11.0715H5.5V11.0139H2.5ZM2.54902 9.09021C2.4986 9.64658 2.49999 10.3115 2.5 11.0139L5.5 11.0139C5.49999 10.2607 5.50138 9.75159 5.53678 9.36097L2.54902 9.09021ZM3.10534 7.17378C2.728 7.82735 2.60271 8.49789 2.54902 9.09018L5.53678 9.361C5.57156 8.97722 5.63349 8.7949 5.70342 8.67378L3.10534 7.17378ZM4.75915 5.51997C4.07228 5.91654 3.5019 6.48691 3.10534 7.17378L5.70342 8.67378C5.83667 8.44297 6.02834 8.25131 6.25915 8.11805L4.75915 5.51997ZM6.67555 4.96366C6.08328 5.01734 5.41272 5.14262 4.75913 5.51999L6.25917 8.11804C6.38027 8.04812 6.56256 7.9862 6.94636 7.95141L6.67555 4.96366ZM8.5992 4.91463C7.89682 4.91463 7.23193 4.91323 6.67556 4.96366L6.94636 7.95141C7.33695 7.91601 7.84599 7.91463 8.59916 7.91463L8.5992 4.91463ZM8.59926 4.91463H8.59918V7.91463H8.59926V4.91463ZM10.0508 7.91463H14.4492V4.91463H10.0508V7.91463ZM11.4451 3.70732C9.97858 3.70732 8.76778 4.79131 8.56596 6.20223L11.5357 6.62704C11.532 6.65283 11.5193 6.67251 11.5057 6.68433C11.4905 6.69764 11.4671 6.70732 11.4451 6.70732V3.70732ZM13.0549 3.70732H11.4451V6.70732H13.0549V3.70732ZM15.9341 6.20225C15.7322 4.79128 14.5214 3.70732 13.0549 3.70732V6.70732C13.0329 6.70732 13.0095 6.69764 12.9943 6.68434C12.9808 6.67253 12.968 6.65284 12.9643 6.62702L15.9341 6.20225ZM14.3798 17.1706H19.2918V14.1706H14.3798V17.1706ZM12.2496 18.7804C13.9516 18.7804 15.3825 17.6367 15.8231 16.0789L12.9364 15.2624C12.8514 15.5627 12.5741 15.7804 12.2496 15.7804V18.7804ZM8.67617 16.0789C9.1168 17.6367 10.5477 18.7804 12.2496 18.7804V15.7804C11.9252 15.7804 11.6479 15.5627 11.5629 15.2624L8.67617 16.0789ZM5.20746 17.1706H10.1195V14.1706H5.20746V17.1706ZM6.78737 18.5971C6.7267 18.1458 6.70998 16.5724 6.70745 15.6664L3.70746 15.6748C3.70966 16.462 3.72005 18.2971 3.81413 18.9968L6.78737 18.5971ZM7.15165 19.5551C6.9926 19.3961 6.86248 19.1558 6.78738 18.5971L3.81412 18.9968C3.93381 19.8871 4.22046 20.8666 5.03035 21.6765L7.15165 19.5551ZM8.10979 19.9195C7.55108 19.8444 7.31075 19.7143 7.15173 19.5552L5.03026 21.6764C5.84018 22.4864 6.81984 22.7731 7.71009 22.8928L8.10979 19.9195ZM10.5957 19.9999C9.45589 19.9999 8.68518 19.9968 8.10971 19.9195L7.71017 22.8928C8.53031 23.003 9.53405 22.9999 10.5957 22.9999V19.9999ZM13.9036 19.9999H10.5957V22.9999H13.9036V19.9999ZM16.3896 19.9195C15.8141 19.9968 15.0434 19.9999 13.9036 19.9999V22.9999C14.9653 22.9999 15.969 23.003 16.7891 22.8928L16.3896 19.9195ZM17.3477 19.5552C17.1885 19.7143 16.9482 19.8444 16.3895 19.9195L16.7892 22.8928C17.6795 22.7731 18.6591 22.4864 19.469 21.6765L17.3477 19.5552ZM17.7119 18.5971C17.6368 19.1558 17.5067 19.3961 17.3477 19.5552L19.469 21.6765C20.2789 20.8666 20.5655 19.8871 20.6852 18.9968L17.7119 18.5971ZM17.7918 15.6664C17.7893 16.5725 17.7726 18.1458 17.7119 18.5971L20.6852 18.9968C20.7792 18.2971 20.7896 16.4619 20.7918 15.6749L17.7918 15.6664ZM12.2504 12.3598C10.7552 12.3598 9.54306 13.572 9.54306 15.0672H12.5431C12.5431 15.2288 12.412 15.3598 12.2504 15.3598V12.3598ZM14.9577 15.0672C14.9577 13.572 13.7456 12.3598 12.2504 12.3598V15.3598C12.0887 15.3598 11.9577 15.2288 11.9577 15.0672H14.9577ZM12.2504 17.7745C13.7456 17.7745 14.9577 16.5623 14.9577 15.0672H11.9577C11.9577 14.9055 12.0887 14.7745 12.2504 14.7745V17.7745ZM9.54306 15.0672C9.54306 16.5623 10.7552 17.7745 12.2504 17.7745V14.7745C12.412 14.7745 12.5431 14.9055 12.5431 15.0672H9.54306Z" fill="white" fill-opacity="0.7" mask="url(#path-1-inside-1_1823_24203)"/>
</svg>
