<svg width="24" height="25" viewBox="0 0 24 25" fill="none" xmlns="http://www.w3.org/2000/svg">
<path fill-rule="evenodd" clip-rule="evenodd" d="M9.61625 12.0625C9.70611 11.909 9.83954 11.749 10.0376 11.5533L13.0645 8.56445C13.9403 7.69885 14.1162 6.5988 14.2501 5.76147C14.3677 5.02613 14.4529 4.49342 14.9512 4.50006C16.1999 4.54682 16.6905 5.62834 16.6905 7.63073V10.3348H18.9995C20.8154 10.3348 21.1587 11.6672 20.9429 12.7356L19.4498 18.5244C19.214 19.4386 18.7447 19.9717 17.9346 19.9717H12.3795C12.0822 19.9717 11.7463 19.8931 11.4512 19.6812L9.92682 18.5895C9.81957 18.513 9.70696 18.4178 9.61625 18.2798C9.50838 18.1157 9.43149 17.8912 9.43149 17.5659V13.1044C9.43149 13.0077 9.43198 12.9189 9.43419 12.8367C9.44267 12.5216 9.4775 12.2997 9.61625 12.0625ZM8.11626 11.9534C8.11626 11.8991 8.10923 11.8462 8.09593 11.7955C8.0157 11.4895 7.70724 11.2614 7.3361 11.2614H3.7806C3.34795 11.2614 3 11.5717 3 11.9536V19.2804C3 19.6635 3.34793 19.9716 3.7806 19.9716L7.3361 19.9715C7.76846 19.9715 8.11626 19.6632 8.11626 19.2803V11.9534ZM4.49999 18.4716L6.61627 18.4715V12.7614H4.49999V18.4716ZM10.9315 13.1044C10.9315 12.9373 10.9333 12.8474 10.9377 12.7854C10.964 12.7534 11.0114 12.6999 11.0915 12.6206L14.1184 9.6318C14.6206 9.13551 14.9584 8.58718 15.1906 8.0567V11.8348H18.9995C19.2718 11.8348 19.3952 11.8846 19.4306 11.9023C19.4402 11.9071 19.4459 11.9107 19.4487 11.9126L19.4516 11.9147L19.4523 11.9155L19.454 11.9181C19.46 11.9279 19.4836 11.9732 19.4946 12.0735C19.5048 12.1663 19.5011 12.2814 19.4788 12.4063L17.9974 18.1497C17.9974 18.1497 17.9974 18.1497 17.9974 18.1497C17.9589 18.2986 17.9193 18.3989 17.8875 18.4621C17.8858 18.4655 17.8842 18.4687 17.8826 18.4717H12.3795C12.3611 18.4717 12.3453 18.4691 12.335 18.4661C12.3297 18.4645 12.3271 18.4633 12.3261 18.4628L10.9315 17.464V13.1044Z" fill="#222529"/>
</svg>
