<svg width="16" height="19" viewBox="0 0 16 19" fill="none" xmlns="http://www.w3.org/2000/svg">
<path fill-rule="evenodd" clip-rule="evenodd" d="M3.26486 3.51486C4.39488 2.38484 5.92752 1.75 7.52561 1.75C9.1237 1.75 10.6563 2.38484 11.7864 3.51486C12.9164 4.64488 13.5512 6.17752 13.5512 7.77561C13.5512 10.1091 12.033 12.373 10.369 14.1295C9.55226 14.9916 8.73302 15.6973 8.11711 16.1878C7.88708 16.3709 7.68626 16.5234 7.52561 16.6421C7.36497 16.5234 7.16415 16.3709 6.93412 16.1878C6.31821 15.6973 5.49897 14.9916 4.68227 14.1295C3.01821 12.373 1.5 10.1091 1.5 7.77561C1.5 6.17752 2.13484 4.64488 3.26486 3.51486ZM7.10918 18.1864C7.1094 18.1865 7.10959 18.1866 7.52561 17.5626L7.10959 18.1866C7.36151 18.3546 7.68971 18.3546 7.94164 18.1866L7.52561 17.5626C7.94164 18.1866 7.94183 18.1865 7.94204 18.1864L7.94261 18.186L7.94419 18.1849L7.9492 18.1816L7.96645 18.1699C7.9811 18.16 8.002 18.1457 8.02873 18.1272C8.08219 18.0901 8.15902 18.0362 8.25587 17.9662C8.4495 17.8264 8.72364 17.6222 9.0515 17.3612C9.70602 16.84 10.5807 16.0871 11.4579 15.1611C13.1816 13.3416 15.0512 10.712 15.0512 7.77561C15.0512 5.7797 14.2583 3.86553 12.847 2.4542C11.4357 1.04287 9.52153 0.25 7.52561 0.25C5.5297 0.25 3.61553 1.04287 2.2042 2.4542C0.792875 3.86553 0 5.7797 0 7.77561C0 10.712 1.8696 13.3416 3.59334 15.1611C4.47055 16.0871 5.34521 16.84 5.99973 17.3612C6.32758 17.6222 6.60172 17.8264 6.79535 17.9662C6.89221 18.0362 6.96903 18.0901 7.02249 18.1272C7.04923 18.1457 7.07013 18.16 7.08478 18.1699L7.10202 18.1816L7.10703 18.1849L7.10862 18.186L7.10918 18.1864ZM6.01714 7.77567C6.01714 6.94253 6.69253 6.26714 7.52567 6.26714C8.35882 6.26714 9.03421 6.94253 9.03421 7.77567C9.03421 8.60882 8.35882 9.28421 7.52567 9.28421C6.69253 9.28421 6.01714 8.60882 6.01714 7.77567ZM7.52567 4.76714C5.86411 4.76714 4.51714 6.11411 4.51714 7.77567C4.51714 9.43724 5.86411 10.7842 7.52567 10.7842C9.18724 10.7842 10.5342 9.43724 10.5342 7.77567C10.5342 6.11411 9.18724 4.76714 7.52567 4.76714Z" fill="#666666"/>
</svg>
