<?xml version="1.0" encoding="UTF-8"?>
<svg id="Artworks" xmlns="http://www.w3.org/2000/svg" viewBox="0 0 1194.83 87.05">
  <defs>
    <style>
      .cls-1 {
        fill: none;
        stroke: #0fe4bd;
        stroke-miterlimit: 10;
        stroke-width: 3.08px;
      }

      .cls-2 {
        fill: #0d0359;
      }

      .cls-2, .cls-3 {
        stroke-width: 0px;
      }

      .cls-3 {
        fill: #0fe4bd;
      }
    </style>
  </defs>
  <path class="cls-2" d="m104.94,1.79h63.2v16.7h-45.31v16.1h34.58v16.1h-34.58v16.69h45.31v17.89h-63.2V1.79Z"/>
  <path class="cls-2" d="m189.61,1.79h16.1l28.62,35.77L262.95,1.79h16.1v83.47h-17.89V30.41l-26.83,33.39-26.83-33.39v54.85h-17.89V1.79Z"/>
  <path class="cls-2" d="m300.52,1.79h17.89v83.47h-17.89V1.79Z"/>
  <path class="cls-2" d="m339.87,1.79h30.41c25.64,0,44.12,18.48,44.12,41.74s-18.48,41.74-44.12,41.74h-30.41V1.79Zm30.41,66.78c14.91,0,25.64-10.73,25.64-25.04s-10.73-25.04-25.64-25.04h-12.52v50.08h12.52Z"/>
  <path class="cls-2" d="m437.06,62.01c1.43,1.67,3.1,3.22,5.13,4.53,3.34,2.27,8.23,4.41,14.55,4.41,9.54,0,13.71-4.17,13.71-9.54,0-14.19-41.74-7.87-41.74-36.97,0-13.12,11.33-24.45,30.41-24.45,9.18,0,16.34,2.86,20.99,5.72,2.74,1.67,5.01,3.58,7.04,5.6l-11.92,11.93c-1.31-1.31-2.62-2.5-4.17-3.58-2.74-1.79-6.56-3.58-11.33-3.58-9.06,0-12.52,3.58-12.52,8.35,0,14.19,41.74,7.87,41.74,36.97,0,13.71-11.92,25.64-31.6,25.64-10.85,0-18.84-3.22-24.21-6.56-3.22-1.91-5.84-4.05-7.99-6.56l11.92-11.92Z"/>
  <path class="cls-3" d="m83.47,15.63v33.74h-47.58V1.79h33.73c7.65,0,13.85,6.2,13.85,13.85Z"/>
  <path class="cls-2" d="m62.84,49.37v26.95H15.06c-3.38,0-6.11-2.74-6.11-6.11V22.42h26.95v-8.94H0v57.94c0,7.65,6.2,13.85,13.85,13.85h57.94v-35.89h-8.94Z"/>
  <line class="cls-1" x1="554.84" y1="6.85" x2="554.84" y2="82.16"/>
  <g>
    <path class="cls-2" d="m645.73,20.26v3.06c0,.48-.24.71-.71.71h-13.96c-.19,0-.29.1-.29.28v44.37c0,.48-.24.71-.71.71h-3.63c-.48,0-.71-.24-.71-.71V24.32c0-.19-.1-.28-.29-.28h-13.39c-.48,0-.71-.24-.71-.71v-3.06c0-.47.24-.71.71-.71h32.97c.47,0,.71.24.71.71Z"/>
    <path class="cls-2" d="m675.78,36.07c2.33,2.18,3.49,5.08,3.49,8.69v23.93c0,.48-.24.71-.71.71h-3.63c-.47,0-.71-.24-.71-.71v-2.92c0-.09-.04-.17-.11-.21-.07-.05-.15-.02-.25.07-1.19,1.42-2.73,2.51-4.63,3.24-1.9.74-4.01,1.1-6.34,1.1-3.37,0-6.2-.85-8.48-2.56s-3.42-4.32-3.42-7.83,1.29-6.37,3.88-8.44,6.18-3.1,10.79-3.1h8.26c.19,0,.29-.09.29-.29v-2.71c0-2.42-.68-4.33-2.03-5.73-1.35-1.4-3.45-2.1-6.3-2.1-2.28,0-4.13.44-5.56,1.32-1.42.88-2.3,2.1-2.63,3.67-.14.48-.43.69-.85.64l-3.85-.5c-.52-.09-.74-.29-.64-.57.38-2.66,1.8-4.82,4.27-6.48,2.47-1.66,5.56-2.49,9.26-2.49,4.27,0,7.57,1.09,9.9,3.28Zm-4.63,27.46c2.04-1.4,3.06-3.29,3.06-5.66v-5.56c0-.19-.1-.28-.29-.28h-7.48c-3.13,0-5.65.64-7.55,1.92-1.9,1.28-2.85,3.06-2.85,5.34,0,2.09.72,3.67,2.17,4.74,1.45,1.07,3.33,1.6,5.66,1.6,2.8,0,5.22-.7,7.26-2.1Z"/>
    <path class="cls-2" d="m689.81,68.69V20.26c0-.47.24-.71.71-.71h3.63c.47,0,.71.24.71.71v48.43c0,.48-.24.71-.71.71h-3.63c-.48,0-.71-.24-.71-.71Z"/>
    <path class="cls-2" d="m734.11,50.32v2.28c0,.48-.24.71-.71.71h-23c-.19,0-.29.1-.29.29.09,2.61.24,4.3.43,5.06.52,2.14,1.64,3.82,3.35,5.06,1.71,1.24,3.89,1.85,6.55,1.85,1.99,0,3.75-.45,5.27-1.35,1.52-.9,2.71-2.18,3.56-3.85.28-.43.62-.52,1-.29l2.78,1.64c.38.24.47.57.29,1-1.19,2.28-2.97,4.07-5.34,5.38-2.38,1.31-5.1,1.96-8.19,1.96-3.37-.05-6.2-.85-8.48-2.42-2.28-1.57-3.92-3.75-4.91-6.55-.85-2.28-1.28-5.56-1.28-9.83,0-1.99.04-3.62.11-4.88.07-1.26.25-2.39.53-3.38.81-3.09,2.43-5.56,4.88-7.41s5.4-2.78,8.87-2.78c4.32,0,7.64,1.09,9.97,3.28,2.33,2.18,3.78,5.27,4.34,9.26.19,1.33.29,2.99.29,4.99Zm-20.41-11.29c-1.54,1.21-2.55,2.84-3.03,4.88-.29,1-.48,2.61-.57,4.84,0,.19.09.29.29.29h18.45c.19,0,.29-.09.29-.29-.1-2.14-.24-3.66-.43-4.56-.52-2.14-1.58-3.83-3.17-5.09-1.59-1.26-3.6-1.89-6.02-1.89s-4.26.61-5.8,1.82Z"/>
    <path class="cls-2" d="m768.19,36.21c2.25,2.23,3.38,5.22,3.38,8.97v23.5c0,.48-.24.71-.71.71h-3.63c-.48,0-.71-.24-.71-.71v-22.51c0-2.61-.79-4.75-2.39-6.41-1.59-1.66-3.64-2.49-6.16-2.49s-4.73.81-6.34,2.42c-1.62,1.61-2.42,3.73-2.42,6.34v22.65c0,.48-.24.71-.71.71h-3.63c-.47,0-.71-.24-.71-.71v-34.61c0-.47.24-.71.71-.71h3.63c.47,0,.71.24.71.71v3.06c0,.1.04.17.11.21.07.05.13.02.18-.07,2.09-2.94,5.29-4.42,9.62-4.42,3.8,0,6.82,1.12,9.08,3.35Z"/>
    <path class="cls-2" d="m797.99,37.57h-8.05c-.19,0-.28.1-.28.29v21.01c0,2.28.51,3.88,1.53,4.81,1.02.93,2.62,1.39,4.81,1.39h1.78c.47,0,.71.24.71.71v2.92c0,.48-.24.71-.71.71-.57.05-1.45.07-2.64.07-3.42,0-6.01-.64-7.76-1.92-1.76-1.28-2.63-3.66-2.63-7.12v-22.58c0-.19-.1-.29-.29-.29h-4.34c-.48,0-.71-.24-.71-.71v-2.78c0-.47.24-.71.71-.71h4.34c.19,0,.29-.09.29-.28v-8.26c0-.47.24-.71.71-.71h3.49c.47,0,.71.24.71.71v8.26c0,.19.09.28.28.28h8.05c.47,0,.71.24.71.71v2.78c0,.48-.24.71-.71.71Z"/>
    <path class="cls-2" d="m856.89,19.55h3.7c.47,0,.71.24.71.71v48.43c0,.48-.24.71-.71.71h-3.63c-.48,0-.71-.24-.71-.71V29.09c0-.14-.05-.24-.14-.29-.1-.05-.17,0-.21.14l-11.61,17.81c-.24.33-.52.5-.85.5h-1.85c-.33,0-.62-.14-.85-.43l-11.61-17.66c-.05-.14-.12-.19-.21-.14-.1.05-.14.14-.14.28v39.39c0,.48-.24.71-.71.71h-3.63c-.48,0-.71-.24-.71-.71V20.26c0-.47.24-.71.71-.71h3.7c.38,0,.66.14.85.43l13.39,20.3s.12.07.21.07.17-.02.21-.07l13.25-20.23c.24-.33.52-.5.85-.5Z"/>
    <path class="cls-2" d="m895.99,36.07c2.33,2.18,3.49,5.08,3.49,8.69v23.93c0,.48-.24.71-.71.71h-3.63c-.47,0-.71-.24-.71-.71v-2.92c0-.09-.04-.17-.11-.21-.07-.05-.16-.02-.25.07-1.19,1.42-2.73,2.51-4.63,3.24-1.9.74-4.01,1.1-6.34,1.1-3.37,0-6.2-.85-8.48-2.56-2.28-1.71-3.42-4.32-3.42-7.83s1.29-6.37,3.88-8.44c2.59-2.07,6.18-3.1,10.79-3.1h8.26c.19,0,.29-.09.29-.29v-2.71c0-2.42-.68-4.33-2.03-5.73-1.35-1.4-3.46-2.1-6.3-2.1-2.28,0-4.13.44-5.55,1.32-1.42.88-2.3,2.1-2.64,3.67-.14.48-.43.69-.85.64l-3.85-.5c-.52-.09-.74-.29-.64-.57.38-2.66,1.8-4.82,4.27-6.48,2.47-1.66,5.56-2.49,9.26-2.49,4.27,0,7.57,1.09,9.9,3.28Zm-4.63,27.46c2.04-1.4,3.06-3.29,3.06-5.66v-5.56c0-.19-.1-.28-.29-.28h-7.48c-3.13,0-5.65.64-7.55,1.92-1.9,1.28-2.85,3.06-2.85,5.34,0,2.09.72,3.67,2.17,4.74,1.45,1.07,3.33,1.6,5.66,1.6,2.8,0,5.22-.7,7.26-2.1Z"/>
    <path class="cls-2" d="m928.61,33.93c.38.19.52.5.43.93l-.78,3.49c-.14.48-.45.62-.93.43-.81-.33-1.73-.5-2.78-.5l-.93.07c-2.47.1-4.51,1.01-6.12,2.74-1.61,1.73-2.42,3.93-2.42,6.59v21.01c0,.48-.24.71-.71.71h-3.63c-.48,0-.71-.24-.71-.71v-34.61c0-.47.24-.71.71-.71h3.63c.47,0,.71.24.71.71v4.34c0,.14.04.23.11.25.07.02.13-.01.18-.11,1-1.76,2.27-3.12,3.81-4.1,1.54-.97,3.33-1.46,5.38-1.46,1.57,0,2.92.31,4.06.93Z"/>
    <path class="cls-2" d="m935.95,68.69V20.26c0-.47.24-.71.71-.71h3.63c.47,0,.71.24.71.71v29.13c0,.1.04.17.11.21.07.05.15.02.25-.07l15.1-15.81c.24-.24.52-.36.86-.36h4.27c.29,0,.47.1.57.29.09.19.05.38-.14.57l-9.12,10.11c-.1.1-.12.21-.07.36l10.9,23.86.07.28c0,.38-.21.57-.64.57h-3.85c-.38,0-.64-.19-.78-.57l-9.19-20.8c-.1-.19-.21-.21-.36-.07l-7.83,8.26c-.1.1-.14.21-.14.36v12.11c0,.48-.24.71-.71.71h-3.63c-.48,0-.71-.24-.71-.71Z"/>
    <path class="cls-2" d="m998.19,50.32v2.28c0,.48-.24.71-.71.71h-23c-.19,0-.28.1-.28.29.09,2.61.24,4.3.43,5.06.52,2.14,1.64,3.82,3.35,5.06,1.71,1.24,3.89,1.85,6.55,1.85,1.99,0,3.75-.45,5.27-1.35,1.52-.9,2.71-2.18,3.56-3.85.29-.43.62-.52,1-.29l2.78,1.64c.38.24.47.57.29,1-1.19,2.28-2.97,4.07-5.34,5.38-2.38,1.31-5.1,1.96-8.19,1.96-3.37-.05-6.2-.85-8.48-2.42-2.28-1.57-3.92-3.75-4.91-6.55-.85-2.28-1.28-5.56-1.28-9.83,0-1.99.04-3.62.11-4.88.07-1.26.25-2.39.53-3.38.81-3.09,2.43-5.56,4.88-7.41,2.44-1.85,5.4-2.78,8.87-2.78,4.32,0,7.64,1.09,9.97,3.28,2.33,2.18,3.77,5.27,4.34,9.26.19,1.33.29,2.99.29,4.99Zm-20.4-11.29c-1.54,1.21-2.55,2.84-3.03,4.88-.29,1-.48,2.61-.57,4.84,0,.19.09.29.28.29h18.45c.19,0,.29-.09.29-.29-.1-2.14-.24-3.66-.43-4.56-.52-2.14-1.58-3.83-3.17-5.09-1.59-1.26-3.6-1.89-6.02-1.89s-4.26.61-5.8,1.82Z"/>
    <path class="cls-2" d="m1023.19,37.57h-8.05c-.19,0-.29.1-.29.29v21.01c0,2.28.51,3.88,1.53,4.81,1.02.93,2.62,1.39,4.81,1.39h1.78c.47,0,.71.24.71.71v2.92c0,.48-.24.71-.71.71-.57.05-1.45.07-2.64.07-3.42,0-6.01-.64-7.76-1.92-1.76-1.28-2.64-3.66-2.64-7.12v-22.58c0-.19-.1-.29-.28-.29h-4.34c-.48,0-.71-.24-.71-.71v-2.78c0-.47.24-.71.71-.71h4.34c.19,0,.28-.09.28-.28v-8.26c0-.47.24-.71.71-.71h3.49c.47,0,.71.24.71.71v8.26c0,.19.09.28.29.28h8.05c.47,0,.71.24.71.71v2.78c0,.48-.24.71-.71.71Z"/>
    <path class="cls-2" d="m1062.72,51.38c0,3.8-.31,6.74-.93,8.83-.85,3.04-2.41,5.42-4.67,7.16-2.26,1.73-5.09,2.6-8.51,2.6-1.85,0-3.56-.37-5.13-1.1-1.57-.74-2.87-1.79-3.92-3.17-.1-.09-.18-.13-.25-.11-.07.02-.11.08-.11.18v16.74c0,.47-.24.71-.71.71h-3.63c-.47,0-.71-.24-.71-.71v-48.43c0-.47.24-.71.71-.71h3.63c.47,0,.71.24.71.71v2.99c0,.1.04.15.11.18.07.02.15-.01.25-.11,1.04-1.38,2.34-2.44,3.88-3.21,1.54-.76,3.26-1.14,5.16-1.14,3.32,0,6.11.85,8.37,2.56,2.25,1.71,3.81,4.04,4.67,6.98.71,2.28,1.07,5.29,1.07,9.04Zm-5.52,5.45c.26-1.31.39-3.12.39-5.45s-.1-3.98-.29-5.23c-.19-1.26-.52-2.39-1-3.38-.57-1.71-1.58-3.06-3.03-4.06-1.45-1-3.17-1.5-5.16-1.5s-3.49.5-4.77,1.5-2.23,2.33-2.85,3.99c-.43.95-.74,2.07-.93,3.35-.19,1.28-.29,3.06-.29,5.34s.09,4.07.29,5.38c.19,1.31.52,2.46,1,3.45.57,1.61,1.51,2.91,2.81,3.88,1.31.97,2.86,1.46,4.67,1.46,1.9,0,3.55-.47,4.95-1.42,1.4-.95,2.41-2.21,3.03-3.77.52-1.04.91-2.22,1.17-3.53Z"/>
    <path class="cls-2" d="m1072.98,68.69V20.26c0-.47.24-.71.71-.71h3.63c.47,0,.71.24.71.71v48.43c0,.48-.24.71-.71.71h-3.63c-.48,0-.71-.24-.71-.71Z"/>
    <path class="cls-2" d="m1111.72,36.07c2.33,2.18,3.49,5.08,3.49,8.69v23.93c0,.48-.24.71-.71.71h-3.63c-.47,0-.71-.24-.71-.71v-2.92c0-.09-.04-.17-.11-.21-.07-.05-.16-.02-.25.07-1.19,1.42-2.73,2.51-4.63,3.24-1.9.74-4.01,1.1-6.34,1.1-3.37,0-6.2-.85-8.48-2.56-2.28-1.71-3.42-4.32-3.42-7.83s1.29-6.37,3.88-8.44c2.59-2.07,6.18-3.1,10.79-3.1h8.26c.19,0,.29-.09.29-.29v-2.71c0-2.42-.68-4.33-2.03-5.73-1.35-1.4-3.46-2.1-6.3-2.1-2.28,0-4.13.44-5.55,1.32-1.42.88-2.3,2.1-2.64,3.67-.14.48-.43.69-.85.64l-3.85-.5c-.52-.09-.74-.29-.64-.57.38-2.66,1.8-4.82,4.27-6.48,2.47-1.66,5.56-2.49,9.26-2.49,4.27,0,7.57,1.09,9.9,3.28Zm-4.63,27.46c2.04-1.4,3.06-3.29,3.06-5.66v-5.56c0-.19-.1-.28-.29-.28h-7.48c-3.13,0-5.65.64-7.55,1.92-1.9,1.28-2.85,3.06-2.85,5.34,0,2.09.72,3.67,2.17,4.74,1.45,1.07,3.33,1.6,5.66,1.6,2.8,0,5.22-.7,7.26-2.1Z"/>
    <path class="cls-2" d="m1130.56,67.3c-2.45-1.78-4.12-4.19-5.02-7.23-.62-2.09-.93-5.03-.93-8.83,0-3.42.31-6.31.93-8.69.85-2.94,2.52-5.31,4.99-7.09,2.47-1.78,5.41-2.67,8.83-2.67s6.47.88,9.01,2.63c2.54,1.76,4.19,3.94,4.95,6.55.24.85.38,1.57.43,2.14v.14c0,.33-.21.55-.64.64l-3.56.5h-.14c-.33,0-.55-.21-.64-.64l-.21-1.07c-.43-1.8-1.47-3.33-3.13-4.59-1.66-1.26-3.68-1.89-6.05-1.89s-4.36.63-5.95,1.89c-1.59,1.26-2.62,2.93-3.1,5.02-.43,1.81-.64,4.2-.64,7.19s.21,5.56.64,7.26c.47,2.14,1.51,3.83,3.1,5.09,1.59,1.26,3.57,1.89,5.95,1.89s4.33-.61,6.02-1.82c1.68-1.21,2.74-2.77,3.17-4.67v-.28l.07-.29c.05-.47.33-.66.85-.57l3.49.57c.47.1.69.36.64.78l-.28,1.42c-.71,2.75-2.35,4.99-4.92,6.69-2.56,1.71-5.58,2.56-9.04,2.56s-6.35-.89-8.8-2.67Z"/>
    <path class="cls-2" d="m1190.49,50.32v2.28c0,.48-.24.71-.71.71h-23c-.19,0-.28.1-.28.29.09,2.61.24,4.3.43,5.06.52,2.14,1.64,3.82,3.35,5.06,1.71,1.24,3.89,1.85,6.55,1.85,1.99,0,3.75-.45,5.27-1.35,1.52-.9,2.71-2.18,3.56-3.85.29-.43.62-.52,1-.29l2.78,1.64c.38.24.47.57.29,1-1.19,2.28-2.97,4.07-5.34,5.38-2.38,1.31-5.1,1.96-8.19,1.96-3.37-.05-6.2-.85-8.48-2.42-2.28-1.57-3.92-3.75-4.91-6.55-.85-2.28-1.28-5.56-1.28-9.83,0-1.99.04-3.62.11-4.88.07-1.26.25-2.39.53-3.38.81-3.09,2.43-5.56,4.88-7.41,2.44-1.85,5.4-2.78,8.87-2.78,4.32,0,7.64,1.09,9.97,3.28,2.33,2.18,3.77,5.27,4.34,9.26.19,1.33.29,2.99.29,4.99Zm-20.4-11.29c-1.54,1.21-2.55,2.84-3.03,4.88-.29,1-.48,2.61-.57,4.84,0,.19.09.29.28.29h18.45c.19,0,.29-.09.29-.29-.1-2.14-.24-3.66-.43-4.56-.52-2.14-1.58-3.83-3.17-5.09-1.59-1.26-3.6-1.89-6.02-1.89s-4.26.61-5.8,1.82Z"/>
  </g>
</svg>