<svg width="235" height="22" viewBox="0 0 235 22" fill="none" xmlns="http://www.w3.org/2000/svg">
<path d="M24.8979 1.1001H39.8931V5.06055H29.1399V8.88023H37.3443V12.6999H29.1399V16.6604H39.8931V20.9043H24.8979V1.1001Z" fill="#0D0359"/>
<path d="M44.9895 1.1001H48.8092L55.6019 9.58805L62.3946 1.1001H66.2143V20.9043H61.9615V7.88987L55.596 15.8118L49.2295 7.88987V20.9043H44.9895V1.1001Z" fill="#0D0359"/>
<path d="M71.2981 1.1001H75.5421V20.9043H71.2981V1.1001Z" fill="#0D0359"/>
<path d="M80.6347 1.1001H87.8488C93.9317 1.1001 98.3174 5.48583 98.3174 11.0027C98.3174 16.5196 93.9317 20.9043 87.8488 20.9043H80.6347V1.1001ZM87.8488 16.9439C91.3859 16.9439 93.9317 14.3971 93.9317 11.0027C93.9317 7.60831 91.3859 5.06055 87.8488 5.06055H84.8787V16.9439H87.8488Z" fill="#0D0359"/>
<path d="M103.692 15.3873C104.044 15.8025 104.454 16.1646 104.909 16.4623C105.928 17.1518 107.131 17.5169 108.361 17.5098C110.625 17.5098 111.609 16.5204 111.609 15.2456C111.609 11.8787 101.708 13.3751 101.708 6.47506C101.708 3.36321 104.395 0.675652 108.922 0.675652C110.675 0.660412 112.398 1.13024 113.901 2.03321C114.51 2.40777 115.072 2.85432 115.575 3.36321L112.746 6.18859C112.443 5.87576 112.112 5.59168 111.756 5.33999C110.963 4.79938 110.028 4.50424 109.068 4.49139C106.918 4.49139 106.097 5.33999 106.097 6.47113C106.097 9.83796 116 8.34159 116 15.2416C116 18.4952 113.171 21.3246 108.502 21.3246C105.928 21.3246 104.032 20.5606 102.759 19.7691C102.046 19.3585 101.405 18.8326 100.864 18.2127L103.692 15.3873Z" fill="#0D0359"/>
<path d="M19.8043 4.384V12.3905H8.51556V1.09888H16.5192C16.9506 1.09888 17.3778 1.18385 17.7763 1.34894C18.1749 1.51403 18.537 1.75601 18.8421 2.06107C19.1471 2.36612 19.3891 2.72827 19.5542 3.12684C19.7193 3.5254 19.8043 3.95259 19.8043 4.384Z" fill="#0FE4BD"/>
<path d="M14.9095 12.3905V18.7846H3.57258C3.38211 18.7847 3.19349 18.7473 3.0175 18.6744C2.8415 18.6016 2.68159 18.4948 2.54692 18.3601C2.41224 18.2254 2.30543 18.0655 2.2326 17.8895C2.15977 17.7136 2.12235 17.5249 2.12248 17.3345V5.9916H8.51551V3.87207H0V17.619C0 18.4902 0.34611 19.3258 0.962189 19.9419C1.57827 20.558 2.41385 20.9041 3.28512 20.9041H17.031V12.3905H14.9095Z" fill="#0D0359"/>
<rect x="132" y="3" width="1" height="16" fill="#D5D5E0"/>
<path d="M157.56 5.896C157.613 5.832 157.677 5.8 157.752 5.8H158.968C159.075 5.8 159.128 5.85333 159.128 5.96V16.84C159.128 16.9467 159.075 17 158.968 17H157.752C157.645 17 157.592 16.9467 157.592 16.84V8.648C157.592 8.616 157.581 8.59467 157.56 8.584C157.539 8.57333 157.523 8.584 157.512 8.616L155.224 12.104C155.181 12.168 155.117 12.2 155.032 12.2H154.424C154.349 12.2 154.285 12.168 154.232 12.104L151.928 8.648C151.917 8.616 151.901 8.60533 151.88 8.616C151.859 8.62667 151.848 8.648 151.848 8.68V16.84C151.848 16.9467 151.795 17 151.688 17H150.472C150.365 17 150.312 16.9467 150.312 16.84V5.96C150.312 5.85333 150.365 5.8 150.472 5.8H151.688C151.773 5.8 151.837 5.832 151.88 5.896L154.68 10.088C154.691 10.0987 154.707 10.104 154.728 10.104C154.749 10.104 154.765 10.0987 154.776 10.088L157.56 5.896ZM164.534 8.728C165.184 8.728 165.75 8.84533 166.23 9.08C166.72 9.304 167.094 9.624 167.35 10.04C167.616 10.4453 167.75 10.9093 167.75 11.432V16.84C167.75 16.9467 167.696 17 167.59 17H166.374C166.267 17 166.214 16.9467 166.214 16.84V16.264C166.214 16.2107 166.187 16.2 166.134 16.232C165.856 16.52 165.515 16.744 165.11 16.904C164.715 17.0533 164.272 17.128 163.782 17.128C162.992 17.128 162.336 16.9307 161.814 16.536C161.302 16.1307 161.046 15.5227 161.046 14.712C161.046 13.88 161.334 13.2293 161.91 12.76C162.496 12.28 163.312 12.04 164.358 12.04H166.15C166.192 12.04 166.214 12.0187 166.214 11.976V11.544C166.214 11.0747 166.075 10.712 165.798 10.456C165.531 10.1893 165.12 10.056 164.566 10.056C164.118 10.056 163.75 10.1467 163.462 10.328C163.184 10.4987 163.014 10.7333 162.95 11.032C162.918 11.1387 162.854 11.1867 162.758 11.176L161.462 11C161.355 10.9787 161.307 10.936 161.318 10.872C161.403 10.2427 161.739 9.73067 162.326 9.336C162.912 8.93067 163.648 8.728 164.534 8.728ZM164.118 15.832C164.683 15.832 165.174 15.6827 165.59 15.384C166.006 15.0853 166.214 14.7067 166.214 14.248V13.304C166.214 13.2613 166.192 13.24 166.15 13.24H164.646C164.016 13.24 163.515 13.3627 163.142 13.608C162.768 13.8533 162.582 14.1947 162.582 14.632C162.582 15.0267 162.72 15.3253 162.998 15.528C163.286 15.7307 163.659 15.832 164.118 15.832ZM173.391 8.776C173.732 8.776 174.042 8.84533 174.319 8.984C174.394 9.016 174.42 9.08 174.399 9.176L174.143 10.376C174.132 10.472 174.068 10.504 173.951 10.472C173.77 10.3973 173.556 10.36 173.311 10.36L173.087 10.376C172.586 10.3973 172.17 10.5733 171.839 10.904C171.519 11.224 171.359 11.6453 171.359 12.168V16.84C171.359 16.9467 171.306 17 171.199 17H169.983C169.876 17 169.823 16.9467 169.823 16.84V9.016C169.823 8.90933 169.876 8.856 169.983 8.856H171.199C171.306 8.856 171.359 8.90933 171.359 9.016V9.864C171.359 9.896 171.364 9.91733 171.375 9.928C171.396 9.928 171.412 9.91733 171.423 9.896C171.903 9.14933 172.559 8.776 173.391 8.776ZM175.921 17C175.814 17 175.761 16.9467 175.761 16.84V5.96C175.761 5.85333 175.814 5.8 175.921 5.8H177.137C177.243 5.8 177.297 5.85333 177.297 5.96V12.12C177.297 12.1413 177.307 12.1573 177.329 12.168C177.35 12.1787 177.366 12.1733 177.377 12.152L180.337 8.936C180.379 8.88267 180.443 8.856 180.529 8.856H181.953C182.017 8.856 182.054 8.87733 182.065 8.92C182.086 8.952 182.075 8.99467 182.033 9.048L179.969 11.432C179.947 11.4747 179.942 11.5067 179.953 11.528L182.401 16.808L182.417 16.872C182.417 16.9573 182.369 17 182.273 17H180.993C180.907 17 180.849 16.9573 180.817 16.872L178.913 12.52C178.891 12.4667 178.865 12.4613 178.833 12.504L177.329 14.168C177.307 14.2107 177.297 14.2373 177.297 14.248V16.84C177.297 16.9467 177.243 17 177.137 17H175.921ZM190.071 11.912C190.114 12.3493 190.13 12.84 190.119 13.384C190.119 13.4907 190.066 13.544 189.959 13.544H184.855C184.813 13.544 184.791 13.5653 184.791 13.608C184.791 13.9707 184.823 14.248 184.887 14.44C185.005 14.8667 185.239 15.2027 185.591 15.448C185.954 15.6827 186.407 15.8 186.951 15.8C187.741 15.8 188.349 15.4747 188.775 14.824C188.829 14.7173 188.898 14.7013 188.983 14.776L189.895 15.384C189.97 15.448 189.986 15.5173 189.943 15.592C189.645 16.072 189.218 16.4507 188.663 16.728C188.119 17.0053 187.501 17.144 186.807 17.144C186.029 17.144 185.373 16.9733 184.839 16.632C184.306 16.2907 183.906 15.8053 183.639 15.176C183.383 14.5467 183.255 13.784 183.255 12.888C183.255 12.1093 183.314 11.5173 183.431 11.112C183.623 10.376 184.007 9.79467 184.583 9.368C185.159 8.94133 185.858 8.728 186.679 8.728C187.757 8.728 188.562 9 189.095 9.544C189.629 10.0773 189.954 10.8667 190.071 11.912ZM186.679 10.056C186.221 10.056 185.842 10.1733 185.543 10.408C185.245 10.632 185.042 10.936 184.935 11.32C184.861 11.5547 184.813 11.8533 184.791 12.216C184.791 12.2587 184.813 12.28 184.855 12.28H188.519C188.562 12.28 188.583 12.2587 188.583 12.216C188.562 11.864 188.53 11.6027 188.487 11.432C188.381 11.016 188.167 10.6853 187.847 10.44C187.538 10.184 187.149 10.056 186.679 10.056ZM195.949 9.96C195.949 10.0667 195.895 10.12 195.789 10.12H194.061C194.018 10.12 193.997 10.1413 193.997 10.184V14.424C193.997 14.872 194.098 15.1973 194.301 15.4C194.503 15.592 194.818 15.688 195.245 15.688H195.709C195.815 15.688 195.869 15.7413 195.869 15.848V16.84C195.869 16.9467 195.815 17 195.709 17C195.367 17.0213 195.122 17.032 194.973 17.032C194.162 17.032 193.549 16.888 193.133 16.6C192.727 16.3013 192.525 15.7573 192.525 14.968V10.184C192.525 10.1413 192.503 10.12 192.461 10.12H191.485C191.378 10.12 191.325 10.0667 191.325 9.96V9.016C191.325 8.90933 191.378 8.856 191.485 8.856H192.461C192.503 8.856 192.525 8.83467 192.525 8.792V6.904C192.525 6.79733 192.578 6.744 192.685 6.744H193.837C193.943 6.744 193.997 6.79733 193.997 6.904V8.792C193.997 8.83467 194.018 8.856 194.061 8.856H195.789C195.895 8.856 195.949 8.90933 195.949 9.016V9.96ZM204.447 10.904C204.649 11.48 204.751 12.1627 204.751 12.952C204.751 13.6987 204.665 14.344 204.495 14.888C204.271 15.6027 203.903 16.1573 203.391 16.552C202.879 16.936 202.223 17.128 201.423 17.128C201.06 17.128 200.713 17.0587 200.383 16.92C200.063 16.7707 199.785 16.5627 199.551 16.296C199.529 16.2747 199.508 16.2693 199.487 16.28C199.476 16.2907 199.471 16.3067 199.471 16.328V19.896C199.471 20.0027 199.417 20.056 199.311 20.056H198.095C197.988 20.056 197.935 20.0027 197.935 19.896V9.016C197.935 8.90933 197.988 8.856 198.095 8.856H199.311C199.417 8.856 199.471 8.90933 199.471 9.016V9.544C199.471 9.56533 199.476 9.58133 199.487 9.592C199.508 9.60267 199.529 9.59733 199.551 9.576C199.785 9.30933 200.063 9.10133 200.383 8.952C200.703 8.80267 201.049 8.728 201.423 8.728C202.191 8.728 202.825 8.92 203.327 9.304C203.839 9.67733 204.212 10.2107 204.447 10.904ZM202.687 15.032C203.028 14.52 203.199 13.816 203.199 12.92C203.199 12.0987 203.065 11.4373 202.799 10.936C202.489 10.3493 201.983 10.056 201.279 10.056C200.66 10.056 200.191 10.344 199.871 10.92C199.615 11.3787 199.487 12.0507 199.487 12.936C199.487 13.832 199.625 14.5147 199.903 14.984C200.212 15.528 200.665 15.8 201.263 15.8C201.903 15.8 202.377 15.544 202.687 15.032ZM206.921 17C206.814 17 206.761 16.9467 206.761 16.84V5.96C206.761 5.85333 206.814 5.8 206.921 5.8H208.137C208.243 5.8 208.297 5.85333 208.297 5.96V16.84C208.297 16.9467 208.243 17 208.137 17H206.921ZM213.502 8.728C214.153 8.728 214.718 8.84533 215.198 9.08C215.689 9.304 216.062 9.624 216.318 10.04C216.585 10.4453 216.718 10.9093 216.718 11.432V16.84C216.718 16.9467 216.665 17 216.558 17H215.342C215.236 17 215.182 16.9467 215.182 16.84V16.264C215.182 16.2107 215.156 16.2 215.102 16.232C214.825 16.52 214.484 16.744 214.078 16.904C213.684 17.0533 213.241 17.128 212.75 17.128C211.961 17.128 211.305 16.9307 210.782 16.536C210.27 16.1307 210.014 15.5227 210.014 14.712C210.014 13.88 210.302 13.2293 210.878 12.76C211.465 12.28 212.281 12.04 213.326 12.04H215.118C215.161 12.04 215.182 12.0187 215.182 11.976V11.544C215.182 11.0747 215.044 10.712 214.766 10.456C214.5 10.1893 214.089 10.056 213.534 10.056C213.086 10.056 212.718 10.1467 212.43 10.328C212.153 10.4987 211.982 10.7333 211.918 11.032C211.886 11.1387 211.822 11.1867 211.726 11.176L210.43 11C210.324 10.9787 210.276 10.936 210.286 10.872C210.372 10.2427 210.708 9.73067 211.294 9.336C211.881 8.93067 212.617 8.728 213.502 8.728ZM213.086 15.832C213.652 15.832 214.142 15.6827 214.558 15.384C214.974 15.0853 215.182 14.7067 215.182 14.248V13.304C215.182 13.2613 215.161 13.24 215.118 13.24H213.614C212.985 13.24 212.484 13.3627 212.11 13.608C211.737 13.8533 211.55 14.1947 211.55 14.632C211.55 15.0267 211.689 15.3253 211.966 15.528C212.254 15.7307 212.628 15.832 213.086 15.832ZM222.056 17.128C221.245 17.128 220.552 16.9253 219.976 16.52C219.4 16.104 219.005 15.544 218.792 14.84C218.632 14.3493 218.552 13.704 218.552 12.904C218.552 12.168 218.632 11.5227 218.792 10.968C219.005 10.2853 219.4 9.74133 219.976 9.336C220.563 8.93067 221.256 8.728 222.056 8.728C222.856 8.728 223.555 8.93067 224.152 9.336C224.749 9.74133 225.139 10.2533 225.32 10.872C225.384 11.0427 225.427 11.2187 225.448 11.4C225.448 11.4853 225.4 11.5387 225.304 11.56L224.104 11.736H224.072C223.997 11.736 223.944 11.688 223.912 11.592L223.864 11.336C223.779 10.9733 223.571 10.6693 223.24 10.424C222.909 10.1787 222.509 10.056 222.04 10.056C221.581 10.056 221.192 10.1787 220.872 10.424C220.552 10.6693 220.344 10.9947 220.248 11.4C220.152 11.784 220.104 12.2907 220.104 12.92C220.104 13.5387 220.152 14.04 220.248 14.424C220.355 14.8507 220.563 15.1867 220.872 15.432C221.192 15.6773 221.581 15.8 222.04 15.8C222.509 15.8 222.909 15.6773 223.24 15.432C223.581 15.1867 223.795 14.8667 223.88 14.472C223.891 14.4613 223.891 14.4507 223.88 14.44C223.88 14.4187 223.885 14.4027 223.896 14.392V14.328C223.928 14.2427 223.987 14.2107 224.072 14.232L225.272 14.424C225.357 14.4453 225.4 14.488 225.4 14.552V14.616C225.4 14.712 225.373 14.8293 225.32 14.968C225.139 15.6187 224.749 16.1413 224.152 16.536C223.555 16.9307 222.856 17.128 222.056 17.128ZM233.743 11.912C233.786 12.3493 233.802 12.84 233.791 13.384C233.791 13.4907 233.738 13.544 233.631 13.544H228.527C228.485 13.544 228.463 13.5653 228.463 13.608C228.463 13.9707 228.495 14.248 228.559 14.44C228.677 14.8667 228.911 15.2027 229.263 15.448C229.626 15.6827 230.079 15.8 230.623 15.8C231.413 15.8 232.021 15.4747 232.447 14.824C232.501 14.7173 232.57 14.7013 232.655 14.776L233.567 15.384C233.642 15.448 233.658 15.5173 233.615 15.592C233.317 16.072 232.89 16.4507 232.335 16.728C231.791 17.0053 231.173 17.144 230.479 17.144C229.701 17.144 229.045 16.9733 228.511 16.632C227.978 16.2907 227.578 15.8053 227.311 15.176C227.055 14.5467 226.927 13.784 226.927 12.888C226.927 12.1093 226.986 11.5173 227.103 11.112C227.295 10.376 227.679 9.79467 228.255 9.368C228.831 8.94133 229.53 8.728 230.351 8.728C231.429 8.728 232.234 9 232.767 9.544C233.301 10.0773 233.626 10.8667 233.743 11.912ZM230.351 10.056C229.893 10.056 229.514 10.1733 229.215 10.408C228.917 10.632 228.714 10.936 228.607 11.32C228.533 11.5547 228.485 11.8533 228.463 12.216C228.463 12.2587 228.485 12.28 228.527 12.28H232.191C232.234 12.28 232.255 12.2587 232.255 12.216C232.234 11.864 232.202 11.6027 232.159 11.432C232.053 11.016 231.839 10.6853 231.519 10.44C231.21 10.184 230.821 10.056 230.351 10.056Z" fill="#0D0359"/>
</svg>
