<svg width="24" height="25" viewBox="0 0 24 25" fill="none" xmlns="http://www.w3.org/2000/svg">
<path fill-rule="evenodd" clip-rule="evenodd" d="M7.26486 7.01486C8.39488 5.88484 9.92752 5.25 11.5256 5.25C13.1237 5.25 14.6563 5.88484 15.7864 7.01486C16.9164 8.14488 17.5512 9.67752 17.5512 11.2756C17.5512 13.6091 16.033 15.873 14.369 17.6295C13.5523 18.4916 12.733 19.1973 12.1171 19.6878C11.8871 19.8709 11.6863 20.0234 11.5256 20.1421C11.365 20.0234 11.1641 19.8709 10.9341 19.6878C10.3182 19.1973 9.49897 18.4916 8.68227 17.6295C7.01821 15.873 5.5 13.6091 5.5 11.2756C5.5 9.67752 6.13484 8.14488 7.26486 7.01486ZM11.1092 21.6864C11.1094 21.6865 11.1096 21.6866 11.5256 21.0626L11.1096 21.6866C11.3615 21.8546 11.6897 21.8546 11.9416 21.6866L11.5256 21.0626C11.9416 21.6866 11.9418 21.6865 11.942 21.6864L11.9426 21.686L11.9442 21.6849L11.9492 21.6816L11.9664 21.6699C11.9811 21.66 12.002 21.6457 12.0287 21.6272C12.0822 21.5901 12.159 21.5362 12.2559 21.4662C12.4495 21.3264 12.7236 21.1222 13.0515 20.8612C13.706 20.34 14.5807 19.5871 15.4579 18.6611C17.1816 16.8416 19.0512 14.212 19.0512 11.2756C19.0512 9.2797 18.2583 7.36553 16.847 5.9542C15.4357 4.54287 13.5215 3.75 11.5256 3.75C9.5297 3.75 7.61553 4.54287 6.2042 5.9542C4.79287 7.36553 4 9.2797 4 11.2756C4 14.212 5.8696 16.8416 7.59334 18.6611C8.47055 19.5871 9.34521 20.34 9.99973 20.8612C10.3276 21.1222 10.6017 21.3264 10.7954 21.4662C10.8922 21.5362 10.969 21.5901 11.0225 21.6272C11.0492 21.6457 11.0701 21.66 11.0848 21.6699L11.102 21.6816L11.107 21.6849L11.1086 21.686L11.1092 21.6864ZM10.0171 11.2757C10.0171 10.4425 10.6925 9.76714 11.5257 9.76714C12.3588 9.76714 13.0342 10.4425 13.0342 11.2757C13.0342 12.1088 12.3588 12.7842 11.5257 12.7842C10.6925 12.7842 10.0171 12.1088 10.0171 11.2757ZM11.5257 8.26714C9.86411 8.26714 8.51714 9.61411 8.51714 11.2757C8.51714 12.9372 9.86411 14.2842 11.5257 14.2842C13.1872 14.2842 14.5342 12.9372 14.5342 11.2757C14.5342 9.61411 13.1872 8.26714 11.5257 8.26714Z" fill="#222529"/>
</svg>
