<svg width="158" height="129" viewBox="0 0 158 129" fill="none" xmlns="http://www.w3.org/2000/svg">
<g filter="url(#filter0_d_837_15535)">
<rect x="20" y="8.60547" width="114" height="30" rx="4" fill="white"/>
<rect x="20.5" y="9.10547" width="113" height="29" rx="3.5" stroke="white"/>
</g>
<rect x="50" y="18" width="56" height="4" rx="2" fill="#D5D5E0"/>
<rect x="50" y="27" width="40" height="4" rx="2" fill="#EDEDF0"/>
<path fill-rule="evenodd" clip-rule="evenodd" d="M30.9993 17.9008H31.2189C31.3138 16.6529 32.3564 15.6699 33.6286 15.6699H35.1159C36.3881 15.6699 37.4308 16.6529 37.5257 17.9008H37.7453C38.4177 17.9008 38.96 17.9008 39.3975 17.9405C39.8484 17.9813 40.2423 18.0678 40.6002 18.2744C41.0242 18.5192 41.3762 18.8712 41.621 19.2952C41.8275 19.653 41.914 20.047 41.9549 20.4979C41.9946 20.9354 41.9946 21.4777 41.9946 22.1501V22.2034C41.9946 22.8758 41.9946 23.4181 41.9549 23.8556C41.914 24.3065 41.8275 24.7004 41.621 25.0583C41.565 25.1552 41.5035 25.2483 41.4368 25.3372H36.3403C36.0975 24.4788 35.3084 23.8499 34.3723 23.8499C33.4362 23.8499 32.647 24.4788 32.4043 25.3372H27.3077C27.241 25.2483 27.1795 25.1552 27.1236 25.0583C26.917 24.7004 26.8305 24.3065 26.7896 23.8556C26.75 23.4181 26.75 22.8758 26.75 22.2034V22.1501C26.75 21.4777 26.75 20.9354 26.7896 20.4979C26.8305 20.047 26.917 19.653 27.1236 19.2952C27.3684 18.8712 27.7204 18.5192 28.1443 18.2744C28.5022 18.0678 28.8962 17.9813 29.3471 17.9405C29.7846 17.9008 30.3269 17.9008 30.9993 17.9008ZM36.4041 17.9008H32.3405C32.4307 17.2702 32.9731 16.7854 33.6286 16.7854H35.1159C35.7715 16.7854 36.3139 17.2702 36.4041 17.9008Z" fill="#FB2166"/>
<path opacity="0.3" d="M40.878 26.4521H36.3396C36.0968 27.3105 35.3077 27.9394 34.3716 27.9394C33.4355 27.9394 32.6464 27.3105 32.4036 26.4521H27.8652C27.8674 27.2343 27.8799 28.8089 27.9514 29.3406C28.0414 30.01 28.2339 30.5735 28.6815 31.0211C29.1292 31.4687 29.6927 31.6613 30.3621 31.7513C31.0068 31.8379 31.8265 31.8379 32.8435 31.8379H35.8997C36.9167 31.8379 37.7364 31.8379 38.3811 31.7513C39.0505 31.6613 39.614 31.4687 40.0617 31.0211C40.5093 30.5735 40.7018 30.01 40.7918 29.3406C40.8633 28.8089 40.8758 27.2343 40.878 26.4521Z" fill="#FB2166"/>
<path d="M34.3733 24.7793C33.7572 24.7793 33.2578 25.2787 33.2578 25.8948C33.2578 26.5108 33.7572 27.0102 34.3733 27.0102C34.9893 27.0102 35.4887 26.5108 35.4887 25.8948C35.4887 25.2787 34.9893 24.7793 34.3733 24.7793Z" fill="#EDEDF0"/>
<rect y="85.3936" width="114" height="30" rx="4" fill="white"/>
<path fill-rule="evenodd" clip-rule="evenodd" d="M10.9993 94.6889H11.2189C11.3138 93.441 12.3564 92.458 13.6286 92.458H15.1159C16.3881 92.458 17.4308 93.441 17.5257 94.6889H17.7453C18.4177 94.6889 18.96 94.6889 19.3975 94.7286C19.8484 94.7694 20.2423 94.8559 20.6002 95.0625C21.0242 95.3073 21.3762 95.6593 21.621 96.0832C21.8275 96.4411 21.914 96.8351 21.9549 97.286C21.9946 97.7235 21.9946 98.2658 21.9946 98.9382V98.9915C21.9946 99.6639 21.9946 100.206 21.9549 100.644C21.914 101.095 21.8275 101.489 21.621 101.846C21.565 101.943 21.5035 102.036 21.4368 102.125H16.3403C16.0975 101.267 15.3084 100.638 14.3723 100.638C13.4362 100.638 12.647 101.267 12.4043 102.125H7.30773C7.24104 102.036 7.17953 101.943 7.12361 101.846C6.91699 101.489 6.83051 101.095 6.78964 100.644C6.74999 100.206 6.74999 99.6639 6.75 98.9915V98.9382C6.74999 98.2658 6.74999 97.7235 6.78964 97.286C6.83051 96.8351 6.91699 96.4411 7.12361 96.0832C7.36836 95.6593 7.72039 95.3073 8.14432 95.0625C8.5022 94.8559 8.89618 94.7694 9.34708 94.7286C9.78455 94.6889 10.3269 94.6889 10.9993 94.6889ZM16.4041 94.6889H12.3405C12.4307 94.0583 12.9731 93.5735 13.6286 93.5735H15.1159C15.7715 93.5735 16.3139 94.0583 16.4041 94.6889Z" fill="#E2A600"/>
<path opacity="0.44" d="M20.878 103.24H16.3396C16.0968 104.099 15.3077 104.728 14.3716 104.728C13.4355 104.728 12.6464 104.099 12.4036 103.24H7.86523C7.86742 104.022 7.87994 105.597 7.95143 106.129C8.04142 106.798 8.23394 107.362 8.68155 107.809C9.12916 108.257 9.69274 108.449 10.3621 108.539C11.0068 108.626 11.8265 108.626 12.8435 108.626H15.8997C16.9167 108.626 17.7364 108.626 18.3811 108.539C19.0505 108.449 19.614 108.257 20.0617 107.809C20.5093 107.362 20.7018 106.798 20.7918 106.129C20.8633 105.597 20.8758 104.022 20.878 103.24Z" fill="#E2A600"/>
<path d="M14.3733 101.567C13.7572 101.567 13.2578 102.067 13.2578 102.683C13.2578 103.299 13.7572 103.798 14.3733 103.798C14.9893 103.798 15.4887 103.299 15.4887 102.683C15.4887 102.067 14.9893 101.567 14.3733 101.567Z" fill="#EDEDF0"/>
<mask id="path-12-outside-1_837_15535" maskUnits="userSpaceOnUse" x="96" y="78" width="52" height="51" fill="black">
<rect fill="white" x="96" y="78" width="52" height="51"/>
<path fill-rule="evenodd" clip-rule="evenodd" d="M135.551 98.9721C135.551 108.681 127.824 116.551 118.292 116.551C108.759 116.551 100.416 108.703 101.032 98.3862C101.032 88.6775 108.759 82 118.292 82C127.824 82 135.551 89.2635 135.551 98.9721ZM116.5 87C114.137 87.2145 111.609 88.3922 110 90C108.888 91.1117 108.139 92.8344 107.464 94.3892L107.464 94.3892C107.202 94.9911 106.951 95.5678 106.695 96.0741C106.389 96.6772 105.997 97.4446 105.321 97.4446C105.059 97.4446 104.848 97.2331 104.848 96.9715C104.848 90.6225 110.014 85.4563 116.363 85.4563C116.625 85.4563 116.836 85.6693 116.836 85.9294C116.836 86.1912 116.762 87 116.5 87ZM142.576 118.496C143.317 119.126 143.746 120.009 143.785 120.982C143.825 121.955 143.467 122.872 142.777 123.561C142.09 124.248 141.175 124.606 140.202 124.567C139.229 124.529 138.345 124.099 137.712 123.357L131.023 114.926C130.341 114.067 130.489 112.824 131.265 112.048C132.04 111.273 133.284 111.124 134.143 111.806L142.576 118.496Z"/>
</mask>
<path fill-rule="evenodd" clip-rule="evenodd" d="M135.551 98.9721C135.551 108.681 127.824 116.551 118.292 116.551C108.759 116.551 100.416 108.703 101.032 98.3862C101.032 88.6775 108.759 82 118.292 82C127.824 82 135.551 89.2635 135.551 98.9721ZM116.5 87C114.137 87.2145 111.609 88.3922 110 90C108.888 91.1117 108.139 92.8344 107.464 94.3892L107.464 94.3892C107.202 94.9911 106.951 95.5678 106.695 96.0741C106.389 96.6772 105.997 97.4446 105.321 97.4446C105.059 97.4446 104.848 97.2331 104.848 96.9715C104.848 90.6225 110.014 85.4563 116.363 85.4563C116.625 85.4563 116.836 85.6693 116.836 85.9294C116.836 86.1912 116.762 87 116.5 87ZM142.576 118.496C143.317 119.126 143.746 120.009 143.785 120.982C143.825 121.955 143.467 122.872 142.777 123.561C142.09 124.248 141.175 124.606 140.202 124.567C139.229 124.529 138.345 124.099 137.712 123.357L131.023 114.926C130.341 114.067 130.489 112.824 131.265 112.048C132.04 111.273 133.284 111.124 134.143 111.806L142.576 118.496Z" fill="white"/>
<path d="M101.032 98.3862L105.025 98.6247L105.032 98.5056V98.3862H101.032ZM110 90L107.172 87.1707L107.172 87.1707L110 90ZM116.5 87V83H116.319L116.138 83.0164L116.5 87ZM107.464 94.3892L103.795 92.7952L103.725 92.957L103.669 93.1243L107.464 94.3892ZM107.464 94.3892L111.132 95.9833L111.202 95.8215L111.258 95.6542L107.464 94.3892ZM142.576 118.496L145.168 115.449L145.115 115.405L145.062 115.362L142.576 118.496ZM142.777 123.561L145.606 126.39L145.606 126.389L142.777 123.561ZM140.202 124.567L140.364 120.57L140.358 120.57L140.202 124.567ZM137.712 123.357L134.579 125.844L134.623 125.9L134.669 125.954L137.712 123.357ZM134.143 111.806L131.657 114.94L134.143 111.806ZM131.023 114.926L127.889 117.412L131.023 114.926ZM118.292 120.551C130.102 120.551 139.551 110.82 139.551 98.9721H131.551C131.551 106.541 125.546 112.551 118.292 112.551V120.551ZM97.0392 98.1476C96.2754 110.932 106.629 120.551 118.292 120.551V112.551C110.89 112.551 104.556 106.475 105.025 98.6247L97.0392 98.1476ZM118.292 78C106.858 78 97.0321 86.1728 97.0321 98.3862H105.032C105.032 91.1823 110.661 86 118.292 86V78ZM139.551 98.9721C139.551 86.9401 129.917 78 118.292 78V86C125.731 86 131.551 91.5869 131.551 98.9721H139.551ZM112.828 92.8293C113.757 91.9004 115.405 91.1159 116.862 90.9836L116.138 83.0164C112.869 83.3132 109.461 84.8839 107.172 87.1707L112.828 92.8293ZM111.132 95.9833C111.896 94.2261 112.361 93.2953 112.828 92.8293L107.172 87.1707C105.414 88.928 104.383 91.4426 103.795 92.7952L111.132 95.9833ZM111.258 95.6542L111.258 95.6541L103.669 93.1243L103.669 93.1243L111.258 95.6542ZM110.263 97.8817C110.583 97.2496 110.883 96.5577 111.132 95.9833L103.795 92.7952C103.521 93.4244 103.319 93.8859 103.127 94.2666L110.263 97.8817ZM100.848 96.9715C100.848 99.4417 102.849 101.445 105.321 101.445V93.4446C107.269 93.4446 108.848 95.0246 108.848 96.9715H100.848ZM116.363 81.4563C107.805 81.4563 100.848 88.4133 100.848 96.9715H108.848C108.848 92.8316 112.223 89.4563 116.363 89.4563V81.4563ZM120.836 85.9294C120.836 83.4695 118.843 81.4563 116.363 81.4563V89.4563C114.406 89.4563 112.836 87.8691 112.836 85.9294H120.836ZM116.5 91C118.886 91 119.968 89.1615 120.171 88.791C120.487 88.2141 120.619 87.6689 120.674 87.4158C120.797 86.8521 120.836 86.2927 120.836 85.9294H112.836C112.836 85.8279 112.838 85.8037 112.858 85.71C112.862 85.6918 112.926 85.3652 113.155 84.948C113.272 84.733 113.536 84.304 114.025 83.895C114.565 83.4443 115.414 83 116.5 83V91ZM147.782 120.821C147.697 118.736 146.762 116.806 145.168 115.449L139.983 121.542C139.939 121.504 139.886 121.443 139.846 121.36C139.806 121.277 139.791 121.2 139.788 121.144L147.782 120.821ZM145.606 126.389C147.085 124.911 147.866 122.91 147.782 120.821L139.788 121.144C139.786 121.087 139.796 121.007 139.829 120.922C139.862 120.837 139.909 120.773 139.949 120.733L145.606 126.389ZM140.04 128.564C142.131 128.648 144.129 127.866 145.606 126.39L139.949 120.732C139.99 120.691 140.055 120.645 140.141 120.611C140.226 120.578 140.306 120.568 140.364 120.57L140.04 128.564ZM134.669 125.954C136.024 127.541 137.954 128.483 140.047 128.564L140.358 120.57C140.417 120.572 140.496 120.589 140.578 120.628C140.66 120.668 140.719 120.719 140.755 120.761L134.669 125.954ZM127.889 117.412L134.579 125.844L140.846 120.871L134.156 112.44L127.889 117.412ZM145.062 115.362L136.629 108.672L131.657 114.94L140.09 121.629L145.062 115.362ZM134.093 114.877C133.623 115.347 132.592 115.682 131.657 114.94L136.629 108.672C133.975 106.567 130.458 107.198 128.436 109.22L134.093 114.877ZM134.156 112.44C134.898 113.375 134.564 114.406 134.093 114.877L128.436 109.22C126.415 111.241 125.784 114.758 127.889 117.412L134.156 112.44ZM103.127 94.2666C103.045 94.4275 103.009 94.4959 102.981 94.5457C102.952 94.5945 102.979 94.5392 103.063 94.4375C103.201 94.2705 103.954 93.4446 105.321 93.4446V101.445C107.364 101.445 108.651 100.235 109.23 99.5335C109.784 98.8629 110.15 98.1047 110.263 97.8817L103.127 94.2666Z" fill="#EDEDF0" mask="url(#path-12-outside-1_837_15535)"/>
<path fill-rule="evenodd" clip-rule="evenodd" d="M124.471 94.0606C124.861 93.6701 124.861 93.0369 124.471 92.6464C124.08 92.2559 123.447 92.2559 123.056 92.6464L117.668 98.0349L112.279 92.6464C111.889 92.2559 111.256 92.2559 110.865 92.6464C110.475 93.0369 110.475 93.6701 110.865 94.0606L116.254 99.4491L110.865 104.838C110.475 105.228 110.475 105.861 110.865 106.252C111.256 106.642 111.889 106.642 112.279 106.252L117.668 100.863L123.056 106.252C123.447 106.642 124.08 106.642 124.471 106.252C124.861 105.861 124.861 105.228 124.471 104.838L119.082 99.4491L124.471 94.0606Z" fill="#FB2166"/>
<rect x="40.5" y="47.8936" width="113" height="29" rx="3.5" fill="white" fill-opacity="0.6" stroke="url(#paint0_linear_837_15535)"/>
<rect x="71" y="56" width="56" height="4" rx="2" fill="#D5D5E0"/>
<rect x="71" y="65" width="40" height="4" rx="2" fill="#EDEDF0"/>
<rect x="31" y="95" width="56" height="4" rx="2" fill="#D5D5E0"/>
<rect x="31" y="104" width="40" height="4" rx="2" fill="#EDEDF0"/>
<path fill-rule="evenodd" clip-rule="evenodd" d="M51.4993 56.6889H51.7189C51.8138 55.441 52.8564 54.458 54.1286 54.458H55.6159C56.8881 54.458 57.9308 55.441 58.0257 56.6889H58.2453C58.9177 56.6889 59.46 56.6889 59.8975 56.7286C60.3484 56.7694 60.7423 56.8559 61.1002 57.0625C61.5242 57.3073 61.8762 57.6593 62.121 58.0832C62.3275 58.4411 62.414 58.8351 62.4549 59.286C62.4946 59.7235 62.4946 60.2658 62.4946 60.9382V60.9915C62.4946 61.6639 62.4946 62.2062 62.4549 62.6437C62.414 63.0945 62.3275 63.4885 62.121 63.8464C62.065 63.9433 62.0035 64.0364 61.9368 64.1253H56.8403C56.5975 63.2669 55.8084 62.638 54.8723 62.638C53.9362 62.638 53.147 63.2669 52.9043 64.1253H47.8077C47.741 64.0364 47.6795 63.9433 47.6236 63.8464C47.417 63.4885 47.3305 63.0945 47.2896 62.6437C47.25 62.2062 47.25 61.6639 47.25 60.9915V60.9382C47.25 60.2658 47.25 59.7235 47.2896 59.286C47.3305 58.8351 47.417 58.4411 47.6236 58.0832C47.8684 57.6593 48.2204 57.3073 48.6443 57.0625C49.0022 56.8559 49.3962 56.7694 49.8471 56.7286C50.2846 56.6889 50.8269 56.6889 51.4993 56.6889ZM56.9041 56.6889H52.8405C52.9307 56.0583 53.4731 55.5735 54.1286 55.5735H55.6159C56.2715 55.5735 56.8139 56.0583 56.9041 56.6889Z" fill="#533EED"/>
<path opacity="0.4" d="M61.378 65.2402H56.8396C56.5968 66.0986 55.8077 66.7275 54.8716 66.7275C53.9355 66.7275 53.1464 66.0986 52.9036 65.2402H48.3652C48.3674 66.0224 48.3799 67.597 48.4514 68.1287C48.5414 68.798 48.7339 69.3616 49.1815 69.8092C49.6292 70.2568 50.1927 70.4494 50.8621 70.5393C51.5068 70.626 52.3265 70.626 53.3435 70.626H56.3997C57.4167 70.626 58.2364 70.626 58.8811 70.5393C59.5505 70.4494 60.114 70.2568 60.5617 69.8092C61.0093 69.3616 61.2018 68.798 61.2918 68.1287C61.3633 67.597 61.3758 66.0224 61.378 65.2402Z" fill="#533EED"/>
<path d="M54.8733 63.5674C54.2572 63.5674 53.7578 64.0668 53.7578 64.6828C53.7578 65.2989 54.2572 65.7983 54.8733 65.7983C55.4893 65.7983 55.9887 65.2989 55.9887 64.6828C55.9887 64.0668 55.4893 63.5674 54.8733 63.5674Z" fill="#EDEDF0"/>
<defs>
<filter id="filter0_d_837_15535" x="12" y="0.605469" width="146" height="62" filterUnits="userSpaceOnUse" color-interpolation-filters="sRGB">
<feFlood flood-opacity="0" result="BackgroundImageFix"/>
<feColorMatrix in="SourceAlpha" type="matrix" values="0 0 0 0 0 0 0 0 0 0 0 0 0 0 0 0 0 0 127 0" result="hardAlpha"/>
<feOffset dx="8" dy="8"/>
<feGaussianBlur stdDeviation="8"/>
<feComposite in2="hardAlpha" operator="out"/>
<feColorMatrix type="matrix" values="0 0 0 0 0.835294 0 0 0 0 0.835294 0 0 0 0 0.878431 0 0 0 0.6 0"/>
<feBlend mode="normal" in2="BackgroundImageFix" result="effect1_dropShadow_837_15535"/>
<feBlend mode="normal" in="SourceGraphic" in2="effect1_dropShadow_837_15535" result="shape"/>
</filter>
<linearGradient id="paint0_linear_837_15535" x1="43" y1="49.9995" x2="137.5" y2="72.4995" gradientUnits="userSpaceOnUse">
<stop stop-color="white"/>
<stop offset="1" stop-color="white" stop-opacity="0"/>
</linearGradient>
</defs>
</svg>
