<?xml version="1.0" standalone="no"?>
<!DOCTYPE svg PUBLIC "-//W3C//DTD SVG 20010904//EN"
 "http://www.w3.org/TR/2001/REC-SVG-20010904/DTD/svg10.dtd">
<svg version="1.0" xmlns="http://www.w3.org/2000/svg"
 width="50.000000pt" height="50.000000pt" viewBox="0 0 50.000000 50.000000"
 preserveAspectRatio="xMidYMid meet">

<g transform="translate(0.000000,50.000000) scale(0.100000,-0.100000)"
fill="#000000" stroke="none">
<path d="M120 461 c0 -5 -10 -11 -22 -13 -23 -3 -23 -3 -23 -208 l0 -205 175
0 175 0 3 203 c2 176 0 203 -13 208 -9 4 -19 3 -23 -1 -4 -4 -1 -10 6 -12 9
-4 12 -52 12 -194 l0 -189 -160 0 -160 0 0 190 c0 162 2 190 15 190 8 0 15 -4
15 -10 0 -5 5 -10 10 -10 6 0 10 14 10 30 0 17 -4 30 -10 30 -5 0 -10 -4 -10
-9z"/>
<path d="M180 460 c0 -5 -7 -10 -15 -10 -8 0 -15 -4 -15 -10 0 -5 7 -10 15
-10 8 0 15 -4 15 -10 0 -5 5 -10 10 -10 6 0 10 14 10 30 0 17 -4 30 -10 30 -5
0 -10 -4 -10 -10z"/>
<path d="M240 460 c0 -5 -7 -10 -15 -10 -8 0 -15 -4 -15 -10 0 -5 7 -10 15
-10 8 0 15 -4 15 -10 0 -5 5 -10 10 -10 6 0 10 14 10 30 0 17 -4 30 -10 30 -5
0 -10 -4 -10 -10z"/>
<path d="M300 460 c0 -5 -7 -10 -15 -10 -8 0 -15 -4 -15 -10 0 -5 7 -10 15
-10 8 0 15 -4 15 -10 0 -5 5 -10 10 -10 6 0 10 14 10 30 0 17 -4 30 -10 30 -5
0 -10 -4 -10 -10z"/>
<path d="M360 460 c0 -5 -7 -10 -15 -10 -8 0 -15 -4 -15 -10 0 -5 7 -10 15
-10 8 0 15 -4 15 -10 0 -5 5 -10 10 -10 6 0 10 14 10 30 0 17 -4 30 -10 30 -5
0 -10 -4 -10 -10z"/>
<path d="M140 330 c0 -6 37 -10 90 -10 53 0 90 4 90 10 0 6 -37 10 -90 10 -53
0 -90 -4 -90 -10z"/>
<path d="M140 260 c0 -6 43 -10 110 -10 67 0 110 4 110 10 0 6 -43 10 -110 10
-67 0 -110 -4 -110 -10z"/>
<path d="M140 190 c0 -6 37 -10 90 -10 53 0 90 4 90 10 0 6 -37 10 -90 10 -53
0 -90 -4 -90 -10z"/>
<path d="M140 120 c0 -6 40 -10 100 -10 60 0 100 4 100 10 0 6 -40 10 -100 10
-60 0 -100 -4 -100 -10z"/>
</g>
</svg>
