<svg width="154" height="154" viewBox="0 0 154 154" fill="none" xmlns="http://www.w3.org/2000/svg">
<circle cx="71.2246" cy="83.0039" r="70.5" fill="white" fill-opacity="0.2" stroke="white"/>
<mask id="path-2-outside-1_2297_27150" maskUnits="userSpaceOnUse" x="56.2246" y="0" width="28" height="27" fill="black">
<rect fill="white" x="56.2246" width="28" height="27"/>
<path d="M82.7746 13.0594C82.7746 19.9578 77.284 25.55 70.511 25.55C63.738 25.55 57.8095 19.9738 58.2474 12.643C58.2474 5.74466 63.738 1 70.511 1C77.284 1 82.7746 6.16101 82.7746 13.0594Z"/>
</mask>
<path d="M82.7746 13.0594C82.7746 19.9578 77.284 25.55 70.511 25.55C63.738 25.55 57.8095 19.9738 58.2474 12.643C58.2474 5.74466 63.738 1 70.511 1C77.284 1 82.7746 6.16101 82.7746 13.0594Z" fill="white"/>
<path d="M58.2474 12.643L59.2457 12.7027L59.2474 12.6729V12.643H58.2474ZM81.7746 13.0594C81.7746 19.4228 76.7145 24.55 70.511 24.55V26.55C77.8535 26.55 83.7746 20.4927 83.7746 13.0594H81.7746ZM70.511 24.55C64.2707 24.55 58.8445 19.4167 59.2457 12.7027L57.2492 12.5834C56.7744 20.531 63.2053 26.55 70.511 26.55V24.55ZM59.2474 12.643C59.2474 6.37085 64.2134 2 70.511 2V0C63.2627 0 57.2474 5.11847 57.2474 12.643H59.2474ZM70.511 2C76.7607 2 81.7746 6.74185 81.7746 13.0594H83.7746C83.7746 5.58017 77.8073 0 70.511 0V2Z" fill="#EDEDF0" mask="url(#path-2-outside-1_2297_27150)"/>
<path opacity="0.3" d="M70.137 12.9108C72.0626 12.9108 73.6236 11.3497 73.6236 9.42413C73.6236 7.49852 72.0626 5.9375 70.137 5.9375C68.2114 5.9375 66.6504 7.49852 66.6504 9.42413C66.6504 11.3497 68.2114 12.9108 70.137 12.9108Z" fill="#FB2166"/>
<path d="M64.8418 17.702V18.336C64.8418 18.8403 65.0422 19.3241 65.3988 19.6807C65.7555 20.0374 66.2392 20.2378 66.7436 20.2378H73.0829C73.5873 20.2378 74.071 20.0374 74.4277 19.6807C74.7843 19.3241 74.9847 18.8403 74.9847 18.336V17.702C74.9847 16.6933 74.584 15.7258 73.8707 15.0125C73.1573 14.2992 72.1899 13.8984 71.1811 13.8984H68.6454C67.6366 13.8984 66.6692 14.2992 65.9558 15.0125C65.2425 15.7258 64.8418 16.6933 64.8418 17.702Z" fill="#FB2166"/>
<circle cx="71.2246" cy="83.0039" r="47.5" stroke="white"/>
<path opacity="0.7" d="M71.18 77.6002C78.8005 77.6002 84.9781 71.4225 84.9781 63.802C84.9781 56.1815 78.8005 50.0039 71.18 50.0039C63.5595 50.0039 57.3818 56.1815 57.3818 63.802C57.3818 71.4225 63.5595 77.6002 71.18 77.6002Z" fill="#D5D5E0"/>
<path d="M50.2246 96.5603V99.0691C50.2246 101.065 51.0176 102.979 52.429 104.391C53.8404 105.802 55.7548 106.595 57.7509 106.595H82.8384C84.8344 106.595 86.7488 105.802 88.1602 104.391C89.5717 102.979 90.3646 101.065 90.3646 99.0691V96.5603C90.3646 92.5681 88.7787 88.7395 85.9558 85.9166C83.1329 83.0937 79.3043 81.5078 75.3121 81.5078H65.2771C61.2849 81.5078 57.4563 83.0937 54.6334 85.9166C51.8105 88.7395 50.2246 92.5681 50.2246 96.5603Z" fill="#BEBECA"/>
<path d="M86.0096 112.074C92.7944 112.074 98.2946 106.574 98.2946 99.7889C98.2946 93.0041 92.7944 87.5039 86.0096 87.5039C79.2248 87.5039 73.7246 93.0041 73.7246 99.7889C73.7246 106.574 79.2248 112.074 86.0096 112.074Z" fill="#FB2166" stroke="#EDEDF0" stroke-width="3"/>
<path fill-rule="evenodd" clip-rule="evenodd" d="M92.1285 96.5191C92.5252 96.1348 92.5353 95.5018 92.1511 95.1051C91.7668 94.7083 91.1337 94.6982 90.737 95.0825L84.0112 101.597L81.7071 99.2929C81.3166 98.9024 80.6834 98.9024 80.2929 99.2929C79.9024 99.6834 79.9024 100.317 80.2929 100.707L83.2914 103.706C83.6765 104.093 84.3023 104.099 84.6957 103.718L84.6971 103.717" fill="white"/>
<mask id="path-11-outside-2_2297_27150" maskUnits="userSpaceOnUse" x="126.225" y="73.0039" width="28" height="27" fill="black">
<rect fill="white" x="126.225" y="73.0039" width="28" height="27"/>
<path d="M152.775 86.0633C152.775 92.9617 147.284 98.5539 140.511 98.5539C133.738 98.5539 127.809 92.9777 128.247 85.6469C128.247 78.7486 133.738 74.0039 140.511 74.0039C147.284 74.0039 152.775 79.1649 152.775 86.0633Z"/>
</mask>
<path d="M152.775 86.0633C152.775 92.9617 147.284 98.5539 140.511 98.5539C133.738 98.5539 127.809 92.9777 128.247 85.6469C128.247 78.7486 133.738 74.0039 140.511 74.0039C147.284 74.0039 152.775 79.1649 152.775 86.0633Z" fill="white"/>
<path d="M128.247 85.6469L129.246 85.7066L129.247 85.6768V85.6469H128.247ZM151.775 86.0633C151.775 92.4268 146.715 97.5539 140.511 97.5539V99.5539C147.854 99.5539 153.775 93.4966 153.775 86.0633H151.775ZM140.511 97.5539C134.271 97.5539 128.845 92.4206 129.246 85.7066L127.249 85.5873C126.774 93.5349 133.205 99.5539 140.511 99.5539V97.5539ZM129.247 85.6469C129.247 79.3748 134.213 75.0039 140.511 75.0039V73.0039C133.263 73.0039 127.247 78.1224 127.247 85.6469H129.247ZM140.511 75.0039C146.761 75.0039 151.775 79.7458 151.775 86.0633H153.775C153.775 78.5841 147.807 73.0039 140.511 73.0039V75.0039Z" fill="#EDEDF0" mask="url(#path-11-outside-2_2297_27150)"/>
<path opacity="0.4" d="M141.238 86.274C143.163 86.274 144.724 84.713 144.724 82.7874C144.724 80.8618 143.163 79.3008 141.238 79.3008C139.312 79.3008 137.751 80.8618 137.751 82.7874C137.751 84.713 139.312 86.274 141.238 86.274Z" fill="#533EED"/>
<path d="M136.166 90.7059V91.3399C136.166 91.8443 136.366 92.328 136.723 92.6846C137.08 93.0413 137.563 93.2417 138.068 93.2417H144.407C144.912 93.2417 145.395 93.0413 145.752 92.6846C146.109 92.328 146.309 91.8443 146.309 91.3399V90.7059C146.309 89.6972 145.908 88.7297 145.195 88.0164C144.482 87.3031 143.514 86.9023 142.505 86.9023H139.97C138.961 86.9023 137.993 87.3031 137.28 88.0164C136.567 88.7297 136.166 89.6972 136.166 90.7059Z" fill="#533EED"/>
<mask id="path-15-outside-3_2297_27150" maskUnits="userSpaceOnUse" x="0.224609" y="112.004" width="28" height="27" fill="black">
<rect fill="white" x="0.224609" y="112.004" width="28" height="27"/>
<path d="M26.7746 125.063C26.7746 131.962 21.284 137.554 14.511 137.554C7.73803 137.554 1.80945 131.978 2.24744 124.647C2.24744 117.749 7.73803 113.004 14.511 113.004C21.284 113.004 26.7746 118.165 26.7746 125.063Z"/>
</mask>
<path d="M26.7746 125.063C26.7746 131.962 21.284 137.554 14.511 137.554C7.73803 137.554 1.80945 131.978 2.24744 124.647C2.24744 117.749 7.73803 113.004 14.511 113.004C21.284 113.004 26.7746 118.165 26.7746 125.063Z" fill="white"/>
<path d="M2.24744 124.647L3.24566 124.707L3.24744 124.677V124.647H2.24744ZM25.7746 125.063C25.7746 131.427 20.7145 136.554 14.511 136.554V138.554C21.8535 138.554 27.7746 132.497 27.7746 125.063H25.7746ZM14.511 136.554C8.27074 136.554 2.84452 131.421 3.24566 124.707L1.24922 124.587C0.774383 132.535 7.20532 138.554 14.511 138.554V136.554ZM3.24744 124.647C3.24744 118.375 8.2134 114.004 14.511 114.004V112.004C7.26266 112.004 1.24744 117.122 1.24744 124.647H3.24744ZM14.511 114.004C20.7607 114.004 25.7746 118.746 25.7746 125.063H27.7746C27.7746 117.584 21.8073 112.004 14.511 112.004V114.004Z" fill="#EDEDF0" mask="url(#path-15-outside-3_2297_27150)"/>
<path opacity="0.44" d="M13.9134 125.274C15.839 125.274 17.4 123.713 17.4 121.787C17.4 119.862 15.839 118.301 13.9134 118.301C11.9878 118.301 10.4268 119.862 10.4268 121.787C10.4268 123.713 11.9878 125.274 13.9134 125.274Z" fill="#E2A600"/>
<path d="M8.8418 129.706V130.34C8.8418 130.844 9.04216 131.328 9.39882 131.685C9.75548 132.041 10.2392 132.242 10.7436 132.242H17.0829C17.5873 132.242 18.071 132.041 18.4277 131.685C18.7843 131.328 18.9847 130.844 18.9847 130.34V129.706C18.9847 128.697 18.584 127.73 17.8707 127.016C17.1573 126.303 16.1899 125.902 15.1811 125.902H12.6454C11.6366 125.902 10.6692 126.303 9.95584 127.016C9.24253 127.73 8.8418 128.697 8.8418 129.706Z" fill="#E2A600"/>
</svg>
