<svg width="24" height="24" viewBox="0 0 24 24" fill="none" xmlns="http://www.w3.org/2000/svg">
<path fill-rule="evenodd" clip-rule="evenodd" d="M8.02344 7.72754C7.52077 7.72754 7.11328 8.13503 7.11328 8.6377C7.11328 9.14037 7.52077 9.54786 8.02344 9.54786C8.52611 9.54786 8.9336 9.14037 8.9336 8.6377C8.9336 8.13503 8.52611 7.72754 8.02344 7.72754ZM5.61328 8.6377C5.61328 7.3066 6.69235 6.22754 8.02344 6.22754C9.35454 6.22754 10.4336 7.3066 10.4336 8.6377C10.4336 9.96879 9.35454 11.0479 8.02344 11.0479C6.69235 11.0479 5.61328 9.96879 5.61328 8.6377ZM16.8546 7.11126C17.1475 7.40416 17.1475 7.87903 16.8546 8.17192L7.55769 17.4688C7.2648 17.7617 6.78993 17.7617 6.49703 17.4688C6.20414 17.1759 6.20414 16.701 6.49703 16.4082L15.7939 7.11126C16.0868 6.81837 16.5617 6.81837 16.8546 7.11126ZM14.418 15.9425C14.418 15.4398 14.8255 15.0323 15.3282 15.0323C15.8308 15.0323 16.2383 15.4398 16.2383 15.9425C16.2383 16.4451 15.8308 16.8526 15.3282 16.8526C14.8255 16.8526 14.418 16.4451 14.418 15.9425ZM15.3282 13.5323C13.9971 13.5323 12.918 14.6114 12.918 15.9425C12.918 17.2736 13.9971 18.3526 15.3282 18.3526C16.6593 18.3526 17.7383 17.2736 17.7383 15.9425C17.7383 14.6114 16.6593 13.5323 15.3282 13.5323Z" fill="#222529"/>
</svg>
