<svg width="16" height="16" viewBox="0 0 16 16" fill="none" xmlns="http://www.w3.org/2000/svg">
<path d="M9.55221 3.97773C10.1601 4.09634 10.7188 4.39363 11.1567 4.83158C11.5946 5.26952 11.8919 5.82819 12.0105 6.43607M9.55221 1.48828C10.8152 1.62858 11.9929 2.19415 12.892 3.09212C13.7911 3.99008 14.3581 5.16708 14.5 6.42985M13.8776 11.3963V13.2634C13.8783 13.4367 13.8428 13.6083 13.7734 13.7671C13.704 13.9259 13.6021 14.0685 13.4744 14.1857C13.3467 14.3028 13.1959 14.392 13.0317 14.4476C12.8675 14.5031 12.6935 14.5237 12.5209 14.5081C10.6058 14.3 8.76617 13.6456 7.14989 12.5975C5.64615 11.6419 4.37124 10.367 3.41571 8.86329C2.3639 7.23967 1.70934 5.39112 1.50505 3.4674C1.4895 3.29529 1.50995 3.12184 1.56511 2.95807C1.62027 2.7943 1.70892 2.64382 1.82542 2.51619C1.94193 2.38856 2.08373 2.28659 2.2418 2.21677C2.39987 2.14695 2.57075 2.11081 2.74355 2.11064H4.61065C4.91268 2.10767 5.2055 2.21463 5.43451 2.41158C5.66352 2.60853 5.8131 2.88203 5.85537 3.18111C5.93418 3.77862 6.08033 4.3653 6.29103 4.92995C6.37476 5.15271 6.39288 5.3948 6.34325 5.62755C6.29361 5.86029 6.17829 6.07392 6.01096 6.24314L5.22056 7.03354C6.10653 8.59165 7.39663 9.88175 8.95474 10.7677L9.74514 9.97732C9.91436 9.80999 10.128 9.69467 10.3607 9.64503C10.5935 9.5954 10.8356 9.61352 11.0583 9.69725C11.623 9.90796 12.2097 10.0541 12.8072 10.1329C13.1095 10.1756 13.3856 10.3278 13.583 10.5608C13.7803 10.7937 13.8852 11.0911 13.8776 11.3963Z" stroke="#666666" stroke-width="1.5" stroke-linecap="round" stroke-linejoin="round"/>
</svg>
