<svg width="24" height="24" viewBox="0 0 24 24" fill="none" xmlns="http://www.w3.org/2000/svg">
<path d="M13.5973 5.82353L12.8516 5.74372L12.8473 5.78351V5.82353H13.5973ZM20.5973 8.92771L19.8512 8.8521L19.8473 8.88981V8.92771H20.5973ZM12.9393 4.25H10.2599V5.75H12.9393V4.25ZM14.3431 5.90334C14.4299 5.09209 13.8298 4.25 12.9393 4.25V5.75C12.9039 5.75 12.8776 5.74075 12.863 5.73319C12.8493 5.7261 12.8452 5.72047 12.8462 5.72167C12.8492 5.72534 12.8527 5.7336 12.8516 5.74372L14.3431 5.90334ZM14.3473 18.2314V5.82353H12.8473V18.2314H14.3473ZM12.9393 19.75C13.8345 19.75 14.3473 18.9713 14.3473 18.2314H12.8473C12.8473 18.2922 12.8283 18.3058 12.8396 18.2926C12.8454 18.2859 12.8578 18.2742 12.8785 18.2644C12.8999 18.2542 12.9218 18.25 12.9393 18.25V19.75ZM10.2599 19.75H12.9393V18.25H10.2599V19.75ZM8.85183 18.2314C8.85183 18.9713 9.36463 19.75 10.2599 19.75V18.25C10.2773 18.25 10.2993 18.2543 10.3207 18.2644C10.3413 18.2742 10.3538 18.2859 10.3596 18.2926C10.3708 18.3058 10.3518 18.2922 10.3518 18.2314H8.85183ZM8.85183 5.76863V18.2314H10.3518V5.76863H8.85183ZM10.2599 4.25C9.36463 4.25 8.85183 5.02867 8.85183 5.76863H10.3518C10.3518 5.70779 10.3708 5.69421 10.3596 5.70739C10.3538 5.71413 10.3413 5.72576 10.3207 5.73557C10.2993 5.74575 10.2773 5.75 10.2599 5.75V4.25ZM17.2599 8.75H19.9393V7.25H17.2599V8.75ZM17.3518 8.92771C17.3518 8.78842 17.3898 8.71559 17.4016 8.69899C17.4062 8.69248 17.3989 8.70528 17.372 8.72078C17.3425 8.73772 17.3025 8.75 17.2599 8.75V7.25C16.781 7.25 16.4061 7.50973 16.1781 7.83113C15.9549 8.14586 15.8518 8.53688 15.8518 8.92771H17.3518ZM17.3518 18.0723V8.92771H15.8518V18.0723H17.3518ZM17.2599 18.25C17.3025 18.25 17.3425 18.2623 17.372 18.2792C17.3989 18.2947 17.4062 18.3075 17.4016 18.301C17.3898 18.2844 17.3518 18.2116 17.3518 18.0723H15.8518C15.8518 18.4631 15.9549 18.8541 16.1781 19.1689C16.4061 19.4903 16.781 19.75 17.2599 19.75V18.25ZM19.9393 18.25H17.2599V19.75H19.9393V18.25ZM19.8473 18.0723C19.8473 18.2116 19.8094 18.2844 19.7976 18.301C19.793 18.3075 19.8002 18.2947 19.8272 18.2792C19.8567 18.2623 19.8967 18.25 19.9393 18.25V19.75C20.4182 19.75 20.793 19.4903 21.021 19.1689C21.2443 18.8541 21.3473 18.4631 21.3473 18.0723H19.8473ZM19.8473 8.92771V18.0723H21.3473V8.92771H19.8473ZM19.9393 8.75C19.8756 8.75 19.833 8.72991 19.8162 8.71963C19.801 8.71036 19.804 8.70806 19.8152 8.72384C19.8258 8.73881 19.8372 8.76098 19.8444 8.78727C19.8516 8.81311 19.8528 8.83551 19.8512 8.8521L21.3435 9.00333C21.3866 8.5781 21.2594 8.1671 21.0387 7.85598C20.8246 7.55418 20.4455 7.25 19.9393 7.25V8.75ZM3.59322 12.7114H6.00847V11.2114H3.59322V12.7114ZM3.75 12.5546C3.75 12.5777 3.73897 12.6221 3.69982 12.6612C3.66068 12.7004 3.61629 12.7114 3.59322 12.7114V11.2114C2.84002 11.2114 2.25 11.8015 2.25 12.5546H3.75ZM3.75 18.4021V12.5546H2.25V18.4021H3.75ZM3.59322 18.2453C3.61629 18.2453 3.66068 18.2564 3.69982 18.2955C3.73897 18.3346 3.75 18.379 3.75 18.4021H2.25C2.25 19.1553 2.84002 19.7453 3.59322 19.7453V18.2453ZM6.00847 18.2453H3.59322V19.7453H6.00847V18.2453ZM5.8517 18.4021C5.8517 18.379 5.86273 18.3346 5.90187 18.2955C5.94102 18.2564 5.9854 18.2453 6.00847 18.2453V19.7453C6.76167 19.7453 7.3517 19.1553 7.3517 18.4021H5.8517ZM5.8517 12.5546V18.4021H7.3517V12.5546H5.8517ZM6.00847 12.7114C5.95038 12.7114 5.90855 12.6845 5.8891 12.664C5.87458 12.6488 5.8517 12.6161 5.8517 12.5546H7.3517C7.3517 11.8787 6.79573 11.2114 6.00847 11.2114V12.7114Z" fill="white"/>
</svg>
