<svg width="24" height="25" viewBox="0 0 24 25" fill="none" xmlns="http://www.w3.org/2000/svg">
<path fill-rule="evenodd" clip-rule="evenodd" d="M10.2794 11.5608C12.312 11.5608 13.9597 9.91309 13.9597 7.88051C13.9597 5.84793 12.312 4.2002 10.2794 4.2002C8.24683 4.2002 6.59909 5.84793 6.59909 7.88051C6.59909 9.91309 8.24683 11.5608 10.2794 11.5608ZM11.235 17.5283H4C4 14.7421 6.72385 12.4757 10.1131 12.4757C10.4873 12.4757 10.8408 12.4965 11.1943 12.5589V12.9332V17.0709L11.235 17.0732V14.9124H16.2679V13.0619C16.2679 12.75 16.3927 12.5836 16.559 12.5836C16.663 12.5836 16.7877 12.6668 16.9333 12.7915L19.7195 15.453C20.0938 15.8065 20.0938 16.3679 19.7195 16.7214L16.9125 19.3621C16.7669 19.4868 16.6422 19.5492 16.5382 19.5492C16.3719 19.5492 16.2471 19.3828 16.2471 19.0917V17.7002H11.235V17.5283Z" fill="#0FE4BD"/>
<path fill-rule="evenodd" clip-rule="evenodd" d="M10.2794 4.9502C8.66104 4.9502 7.34909 6.26214 7.34909 7.88051C7.34909 9.49888 8.66104 10.8108 10.2794 10.8108C11.8978 10.8108 13.2097 9.49888 13.2097 7.88051C13.2097 6.26214 11.8978 4.9502 10.2794 4.9502ZM5.84909 7.88051C5.84909 5.43371 7.83261 3.4502 10.2794 3.4502C12.7262 3.4502 14.7097 5.43371 14.7097 7.88051C14.7097 9.81035 13.4758 11.452 11.7539 12.0595C11.873 12.1931 11.9443 12.3688 11.9443 12.5589V14.1624H15.5179V13.0619C15.5179 12.8188 15.5646 12.5414 15.7209 12.2992C15.8925 12.0332 16.1888 11.8336 16.559 11.8336C16.8026 11.8336 16.996 11.9273 17.1085 11.993C17.2286 12.0631 17.3362 12.149 17.4214 12.2221C17.4316 12.2309 17.4416 12.2399 17.4513 12.2492L20.2345 14.9078C20.2351 14.9083 20.2356 14.9089 20.2362 14.9094C20.9221 15.559 20.9215 16.6177 20.2345 17.2666L17.4264 19.9083C17.418 19.9162 17.4094 19.924 17.4006 19.9315C17.2205 20.0858 16.9204 20.2992 16.5382 20.2992C16.1715 20.2992 15.8781 20.1034 15.7063 19.8457C15.5474 19.6073 15.4971 19.3333 15.4971 19.0917V18.4502H11.235C11.0535 18.4502 10.887 18.3857 10.7573 18.2783H4C3.58579 18.2783 3.25 17.9426 3.25 17.5283C3.25 14.7269 5.51818 12.5286 8.42321 11.9044C6.90355 11.2022 5.84909 9.66451 5.84909 7.88051ZM11.985 16.9502H16.2471C16.6613 16.9502 16.9971 17.286 16.9971 17.7002V18.2527L19.2045 16.1761C19.2046 16.176 19.2045 16.1762 19.2045 16.1761C19.2432 16.1395 19.2502 16.1071 19.2502 16.0872C19.2502 16.0673 19.2435 16.035 19.2045 15.9983L19.2015 15.9954L17.0179 13.9096V14.9124C17.0179 15.3266 16.6821 15.6624 16.2679 15.6624H11.985V16.9502ZM10.4443 16.7783V13.2325C10.3375 13.2278 10.2274 13.2257 10.1131 13.2257C7.35072 13.2257 5.26841 14.8447 4.83385 16.7783H10.4443Z" fill="#0FE4BD"/>
</svg>
