<svg width="36" height="63" viewBox="0 0 36 63" fill="none" xmlns="http://www.w3.org/2000/svg">
<rect y="6" width="36" height="36" rx="5" fill="#CB6660"/>
<path d="M17.235 29.4297H17.985C17.985 29.0155 17.6493 28.6797 17.235 28.6797V29.4297ZM10 29.4297H9.25C9.25 29.8439 9.58579 30.1797 10 30.1797V29.4297ZM17.1943 24.4603H17.9443C17.9443 24.0963 17.683 23.7849 17.3246 23.7217L17.1943 24.4603ZM17.1943 28.9723H16.4443C16.4443 29.3702 16.755 29.6988 17.1523 29.7211L17.1943 28.9723ZM17.235 28.9746L17.1931 29.7234C17.3989 29.7349 17.6005 29.6612 17.7503 29.5195C17.9001 29.3779 17.985 29.1808 17.985 28.9746H17.235ZM17.235 26.8138V26.0638C16.8208 26.0638 16.485 26.3996 16.485 26.8138H17.235ZM22.2679 26.8138V27.5638C22.6821 27.5638 23.0179 27.228 23.0179 26.8138H22.2679ZM22.9333 24.6929L23.4513 24.1506C23.4416 24.1413 23.4316 24.1322 23.4214 24.1235L22.9333 24.6929ZM25.7195 27.3544L25.2015 27.8967L25.2045 27.8996L25.7195 27.3544ZM25.7195 28.6227L26.2334 29.169L26.2345 29.168L25.7195 28.6227ZM22.9125 31.2634L23.4006 31.8329C23.4094 31.8253 23.418 31.8176 23.4264 31.8097L22.9125 31.2634ZM22.2471 29.6016H22.9971C22.9971 29.1873 22.6613 28.8516 22.2471 28.8516V29.6016ZM17.235 29.6016H16.485C16.485 30.0158 16.8208 30.3516 17.235 30.3516V29.6016ZM19.2097 19.7819C19.2097 21.4002 17.8978 22.7122 16.2794 22.7122V24.2122C18.7262 24.2122 20.7097 22.2287 20.7097 19.7819H19.2097ZM16.2794 16.8516C17.8978 16.8516 19.2097 18.1635 19.2097 19.7819H20.7097C20.7097 17.3351 18.7262 15.3516 16.2794 15.3516V16.8516ZM13.3491 19.7819C13.3491 18.1635 14.661 16.8516 16.2794 16.8516V15.3516C13.8326 15.3516 11.8491 17.3351 11.8491 19.7819H13.3491ZM16.2794 22.7122C14.661 22.7122 13.3491 21.4002 13.3491 19.7819H11.8491C11.8491 22.2287 13.8326 24.2122 16.2794 24.2122V22.7122ZM17.235 28.6797H10V30.1797H17.235V28.6797ZM10.75 29.4297C10.75 27.1838 12.9996 25.1271 16.1131 25.1271V23.6271C12.4481 23.6271 9.25 26.1032 9.25 29.4297H10.75ZM16.1131 25.1271C16.46 25.1271 16.7671 25.1464 17.0639 25.1988L17.3246 23.7217C16.9146 23.6493 16.5147 23.6271 16.1131 23.6271V25.1271ZM16.4443 24.4603V24.8345H17.9443V24.4603H16.4443ZM16.4443 24.8345V28.9723H17.9443V24.8345H16.4443ZM17.1523 29.7211L17.1931 29.7234L17.277 28.2257L17.2363 28.2235L17.1523 29.7211ZM16.485 26.8138V28.9746H17.985V26.8138H16.485ZM22.2679 26.0638H17.235V27.5638H22.2679V26.0638ZM21.5179 24.9632V26.8138H23.0179V24.9632H21.5179ZM22.559 23.735C22.1888 23.735 21.8925 23.9345 21.7209 24.2005C21.5646 24.4428 21.5179 24.7202 21.5179 24.9632H23.0179C23.0179 24.8943 23.0336 24.9327 22.9813 25.0137C22.9525 25.0585 22.9017 25.1168 22.8213 25.1637C22.7387 25.2118 22.6468 25.235 22.559 25.235V23.735ZM23.4214 24.1235C23.3362 24.0504 23.2286 23.9644 23.1085 23.8943C22.996 23.8287 22.8026 23.735 22.559 23.735V25.235C22.4853 25.235 22.4298 25.2204 22.3989 25.2098C22.383 25.2044 22.3713 25.1993 22.3642 25.1959C22.357 25.1925 22.3531 25.1903 22.3527 25.19C22.3525 25.1899 22.3605 25.1947 22.378 25.2078C22.3952 25.2207 22.4172 25.2384 22.4452 25.2624L23.4214 24.1235ZM26.2376 26.8121L23.4513 24.1506L22.4152 25.2352L25.2015 27.8967L26.2376 26.8121ZM26.2345 29.168C26.9221 28.5186 26.9221 27.4586 26.2345 26.8091L25.2045 27.8996C25.2435 27.9364 25.2502 27.9686 25.2502 27.9886C25.2502 28.0085 25.2435 28.0407 25.2045 28.0775L26.2345 29.168ZM23.4264 31.8097L26.2334 29.169L25.2056 28.0765L22.3986 30.7171L23.4264 31.8097ZM22.5382 32.2006C22.9204 32.2006 23.2205 31.9872 23.4006 31.8329L22.4244 30.694C22.3822 30.7302 22.3658 30.7372 22.3744 30.7329C22.3822 30.729 22.441 30.7006 22.5382 30.7006V32.2006ZM21.4971 30.9931C21.4971 31.2347 21.5474 31.5087 21.7063 31.747C21.8781 32.0048 22.1715 32.2006 22.5382 32.2006V30.7006C22.6258 30.7006 22.7158 30.7236 22.796 30.7696C22.8741 30.8144 22.9246 30.8704 22.9543 30.915C23.0093 30.9974 22.9971 31.0427 22.9971 30.9931H21.4971ZM21.4971 29.6016V30.9931H22.9971V29.6016H21.4971ZM17.235 30.3516H22.2471V28.8516H17.235V30.3516ZM16.485 29.4297V29.6016H17.985V29.4297H16.485Z" fill="white"/>
</svg>
