<svg width="24" height="24" viewBox="0 0 24 24" fill="none" xmlns="http://www.w3.org/2000/svg">
<path fill-rule="evenodd" clip-rule="evenodd" d="M10.2794 4.8501C8.66104 4.8501 7.34909 6.16204 7.34909 7.78041C7.34909 9.39878 8.66104 10.7107 10.2794 10.7107C11.8978 10.7107 13.2097 9.39878 13.2097 7.78041C13.2097 6.16204 11.8978 4.8501 10.2794 4.8501ZM5.84909 7.78041C5.84909 5.33362 7.83261 3.3501 10.2794 3.3501C12.7262 3.3501 14.7097 5.33362 14.7097 7.78041C14.7097 9.71025 13.4758 11.3519 11.7539 11.9594C11.873 12.093 11.9443 12.2687 11.9443 12.4588V14.0623H15.5179V12.9618C15.5179 12.7187 15.5646 12.4413 15.7209 12.1991C15.8925 11.9331 16.1888 11.7335 16.559 11.7335C16.8026 11.7335 16.996 11.8272 17.1085 11.8929C17.2286 11.963 17.3362 12.0489 17.4214 12.122C17.4316 12.1308 17.4416 12.1398 17.4513 12.1491L20.2345 14.8077C20.2351 14.8082 20.2356 14.8088 20.2362 14.8093C20.9221 15.4589 20.9215 16.5176 20.2345 17.1665L17.4264 19.8082C17.418 19.8161 17.4094 19.8239 17.4006 19.8314C17.2205 19.9857 16.9204 20.1991 16.5382 20.1991C16.1715 20.1991 15.8781 20.0033 15.7063 19.7456C15.5474 19.5072 15.4971 19.2332 15.4971 18.9916V18.3501H11.235C11.0535 18.3501 10.887 18.2856 10.7573 18.1783H4C3.58579 18.1783 3.25 17.8425 3.25 17.4283C3.25 14.6268 5.51818 12.4285 8.42321 11.8043C6.90355 11.1021 5.84909 9.56441 5.84909 7.78041ZM11.985 16.8501H16.2471C16.6613 16.8501 16.9971 17.1859 16.9971 17.6001V18.1526L19.2045 16.076C19.2046 16.0759 19.2045 16.0761 19.2045 16.076C19.2432 16.0394 19.2502 16.007 19.2502 15.9871C19.2502 15.9672 19.2435 15.9349 19.2045 15.8982L19.2015 15.8953L17.0179 13.8095V14.8123C17.0179 15.2265 16.6821 15.5623 16.2679 15.5623H11.985V16.8501ZM10.4443 16.6783V13.1324C10.3375 13.1277 10.2274 13.1256 10.1131 13.1256C7.35072 13.1256 5.26841 14.7446 4.83385 16.6783H10.4443Z" fill="white"/>
</svg>
