<svg width="154" height="154" viewBox="0 0 154 154" fill="none" xmlns="http://www.w3.org/2000/svg">
<circle cx="71.2251" cy="83.0039" r="70.5" fill="white" fill-opacity="0.2" stroke="white"/>
<mask id="path-2-outside-1_2322_23503" maskUnits="userSpaceOnUse" x="56.2251" y="0" width="28" height="27" fill="black">
<rect fill="white" x="56.2251" width="28" height="27"/>
<path d="M82.7751 13.0594C82.7751 19.9578 77.2845 25.55 70.5115 25.55C63.7385 25.55 57.8099 19.9738 58.2479 12.643C58.2479 5.74466 63.7385 1 70.5115 1C77.2845 1 82.7751 6.16101 82.7751 13.0594Z"/>
</mask>
<path d="M82.7751 13.0594C82.7751 19.9578 77.2845 25.55 70.5115 25.55C63.7385 25.55 57.8099 19.9738 58.2479 12.643C58.2479 5.74466 63.7385 1 70.5115 1C77.2845 1 82.7751 6.16101 82.7751 13.0594Z" fill="white"/>
<path d="M58.2479 12.643L59.2461 12.7027L59.2479 12.6729V12.643H58.2479ZM81.7751 13.0594C81.7751 19.4228 76.715 24.55 70.5115 24.55V26.55C77.854 26.55 83.7751 20.4927 83.7751 13.0594H81.7751ZM70.5115 24.55C64.2712 24.55 58.845 19.4167 59.2461 12.7027L57.2497 12.5834C56.7749 20.531 63.2058 26.55 70.5115 26.55V24.55ZM59.2479 12.643C59.2479 6.37085 64.2139 2 70.5115 2V0C63.2632 0 57.2479 5.11847 57.2479 12.643H59.2479ZM70.5115 2C76.7612 2 81.7751 6.74185 81.7751 13.0594H83.7751C83.7751 5.58017 77.8078 0 70.5115 0V2Z" fill="#EDEDF0" mask="url(#path-2-outside-1_2322_23503)"/>
<path opacity="0.3" d="M70.1375 12.9108C72.0631 12.9108 73.6241 11.3497 73.6241 9.42413C73.6241 7.49852 72.0631 5.9375 70.1375 5.9375C68.2119 5.9375 66.6509 7.49852 66.6509 9.42413C66.6509 11.3497 68.2119 12.9108 70.1375 12.9108Z" fill="#FB2166"/>
<path d="M64.8423 17.702V18.336C64.8423 18.8403 65.0427 19.3241 65.3993 19.6807C65.756 20.0374 66.2397 20.2378 66.7441 20.2378H73.0834C73.5878 20.2378 74.0715 20.0374 74.4282 19.6807C74.7848 19.3241 74.9852 18.8403 74.9852 18.336V17.702C74.9852 16.6933 74.5845 15.7258 73.8712 15.0125C73.1578 14.2992 72.1904 13.8984 71.1816 13.8984H68.6459C67.6371 13.8984 66.6696 14.2992 65.9563 15.0125C65.243 15.7258 64.8423 16.6933 64.8423 17.702Z" fill="#FB2166"/>
<circle cx="71.2251" cy="83.0039" r="47.5" stroke="white"/>
<path d="M67.6244 56.3552L48.4096 59.3773C45.3671 59.7857 43.0801 62.3789 43.0801 65.4623V103.157C43.0801 106.24 45.3671 108.833 48.4096 109.242L67.6244 112.264C67.8898 112.305 68.1553 112.305 68.4003 112.305C69.8909 112.305 71.3203 111.774 72.4434 110.794C73.7706 109.63 74.5262 107.955 74.5262 106.179V62.4402C74.5262 60.6637 73.7706 58.9893 72.4434 57.8254C71.1365 56.6615 69.36 56.1306 67.6244 56.3552Z" fill="white"/>
<path opacity="0.7" d="M93.802 62.7891H78.6099V82.2285H85.2054L83.1022 80.3499C82.265 79.5943 82.2037 78.3079 82.9388 77.4707C83.6943 76.6335 84.9808 76.5518 85.8384 77.3073L91.903 82.7389C92.3114 83.1269 92.5768 83.6782 92.5768 84.2704C92.5768 84.8626 92.3114 85.4139 91.903 85.8019L85.8384 91.2335C85.4504 91.5806 84.9603 91.744 84.4703 91.744C83.8985 91.744 83.3472 91.5193 82.9388 91.0701C82.2037 90.2329 82.265 88.9465 83.1022 88.191L85.2054 86.3124H78.6099V105.833H93.802C97.1916 105.833 99.9279 103.077 99.9279 99.7076V68.9149C99.9279 65.5457 97.1916 62.7891 93.802 62.7891Z" fill="#D5D5E0"/>
<path d="M74.0101 122.074C80.7949 122.074 86.2951 116.574 86.2951 109.789C86.2951 103.004 80.7949 97.5039 74.0101 97.5039C67.2253 97.5039 61.7251 103.004 61.7251 109.789C61.7251 116.574 67.2253 122.074 74.0101 122.074Z" fill="#FB2166" stroke="#EDEDF0" stroke-width="3"/>
<path fill-rule="evenodd" clip-rule="evenodd" d="M80.1292 106.519C80.5259 106.135 80.536 105.502 80.1518 105.105C79.7676 104.708 79.1345 104.698 78.7378 105.082L72.0119 111.597L69.7078 109.293C69.3173 108.902 68.6841 108.902 68.2936 109.293C67.9031 109.683 67.9031 110.317 68.2936 110.707L71.2921 113.706C71.6772 114.093 72.3031 114.099 72.6965 113.718L72.6978 113.717" fill="white"/>
<mask id="path-11-outside-2_2322_23503" maskUnits="userSpaceOnUse" x="126.225" y="73.0039" width="28" height="27" fill="black">
<rect fill="white" x="126.225" y="73.0039" width="28" height="27"/>
<path d="M152.775 86.0633C152.775 92.9617 147.285 98.5539 140.512 98.5539C133.739 98.5539 127.81 92.9777 128.248 85.6469C128.248 78.7486 133.739 74.0039 140.512 74.0039C147.285 74.0039 152.775 79.1649 152.775 86.0633Z"/>
</mask>
<path d="M152.775 86.0633C152.775 92.9617 147.285 98.5539 140.512 98.5539C133.739 98.5539 127.81 92.9777 128.248 85.6469C128.248 78.7486 133.739 74.0039 140.512 74.0039C147.285 74.0039 152.775 79.1649 152.775 86.0633Z" fill="white"/>
<path d="M128.248 85.6469L129.246 85.7066L129.248 85.6768V85.6469H128.248ZM151.775 86.0633C151.775 92.4268 146.715 97.5539 140.512 97.5539V99.5539C147.854 99.5539 153.775 93.4966 153.775 86.0633H151.775ZM140.512 97.5539C134.271 97.5539 128.845 92.4206 129.246 85.7066L127.25 85.5873C126.775 93.5349 133.206 99.5539 140.512 99.5539V97.5539ZM129.248 85.6469C129.248 79.3748 134.214 75.0039 140.512 75.0039V73.0039C133.263 73.0039 127.248 78.1224 127.248 85.6469H129.248ZM140.512 75.0039C146.761 75.0039 151.775 79.7458 151.775 86.0633H153.775C153.775 78.5841 147.808 73.0039 140.512 73.0039V75.0039Z" fill="#EDEDF0" mask="url(#path-11-outside-2_2322_23503)"/>
<path opacity="0.4" d="M141.238 86.274C143.163 86.274 144.724 84.713 144.724 82.7874C144.724 80.8618 143.163 79.3008 141.238 79.3008C139.312 79.3008 137.751 80.8618 137.751 82.7874C137.751 84.713 139.312 86.274 141.238 86.274Z" fill="#533EED"/>
<path d="M136.166 90.7059V91.3399C136.166 91.8443 136.367 92.328 136.723 92.6846C137.08 93.0413 137.564 93.2417 138.068 93.2417H144.407C144.912 93.2417 145.395 93.0413 145.752 92.6846C146.109 92.328 146.309 91.8443 146.309 91.3399V90.7059C146.309 89.6972 145.908 88.7297 145.195 88.0164C144.482 87.3031 143.514 86.9023 142.506 86.9023H139.97C138.961 86.9023 137.994 87.3031 137.28 88.0164C136.567 88.7297 136.166 89.6972 136.166 90.7059Z" fill="#533EED"/>
<mask id="path-15-outside-3_2322_23503" maskUnits="userSpaceOnUse" x="0.225098" y="112.004" width="28" height="27" fill="black">
<rect fill="white" x="0.225098" y="112.004" width="28" height="27"/>
<path d="M26.7751 125.063C26.7751 131.962 21.2845 137.554 14.5115 137.554C7.73852 137.554 1.80994 131.978 2.24793 124.647C2.24793 117.749 7.73852 113.004 14.5115 113.004C21.2845 113.004 26.7751 118.165 26.7751 125.063Z"/>
</mask>
<path d="M26.7751 125.063C26.7751 131.962 21.2845 137.554 14.5115 137.554C7.73852 137.554 1.80994 131.978 2.24793 124.647C2.24793 117.749 7.73852 113.004 14.5115 113.004C21.2845 113.004 26.7751 118.165 26.7751 125.063Z" fill="white"/>
<path d="M2.24793 124.647L3.24615 124.707L3.24793 124.677V124.647H2.24793ZM25.7751 125.063C25.7751 131.427 20.715 136.554 14.5115 136.554V138.554C21.854 138.554 27.7751 132.497 27.7751 125.063H25.7751ZM14.5115 136.554C8.27123 136.554 2.84501 131.421 3.24615 124.707L1.24971 124.587C0.774872 132.535 7.20581 138.554 14.5115 138.554V136.554ZM3.24793 124.647C3.24793 118.375 8.21389 114.004 14.5115 114.004V112.004C7.26315 112.004 1.24793 117.122 1.24793 124.647H3.24793ZM14.5115 114.004C20.7612 114.004 25.7751 118.746 25.7751 125.063H27.7751C27.7751 117.584 21.8078 112.004 14.5115 112.004V114.004Z" fill="#EDEDF0" mask="url(#path-15-outside-3_2322_23503)"/>
<path opacity="0.44" d="M13.9139 125.274C15.8395 125.274 17.4005 123.713 17.4005 121.787C17.4005 119.862 15.8395 118.301 13.9139 118.301C11.9883 118.301 10.4272 119.862 10.4272 121.787C10.4272 123.713 11.9883 125.274 13.9139 125.274Z" fill="#E2A600"/>
<path d="M8.84229 129.706V130.34C8.84229 130.844 9.04265 131.328 9.39931 131.685C9.75596 132.041 10.2397 132.242 10.7441 132.242H17.0834C17.5878 132.242 18.0715 132.041 18.4282 131.685C18.7848 131.328 18.9852 130.844 18.9852 130.34V129.706C18.9852 128.697 18.5845 127.73 17.8712 127.016C17.1578 126.303 16.1904 125.902 15.1816 125.902H12.6459C11.6371 125.902 10.6696 126.303 9.95633 127.016C9.24302 127.73 8.84229 128.697 8.84229 129.706Z" fill="#E2A600"/>
</svg>
