<svg width="24" height="24" viewBox="0 0 24 24" fill="none" xmlns="http://www.w3.org/2000/svg">
<g opacity="0.7">
<path fill-rule="evenodd" clip-rule="evenodd" d="M4.21248 12.6795C4.06278 12.4477 3.9433 12.2484 3.85496 12.095C3.9433 11.9415 4.06278 11.7423 4.21248 11.5105C4.57913 10.9427 5.12217 10.1877 5.82738 9.43544C7.25146 7.91641 9.24804 6.5 11.7243 6.5C14.2006 6.5 16.1972 7.91641 17.6213 9.43544C18.3265 10.1877 18.8695 10.9427 19.2362 11.5105C19.3859 11.7423 19.5054 11.9415 19.5937 12.095C19.5054 12.2484 19.3859 12.4477 19.2362 12.6795C18.8695 13.2472 18.3265 14.0023 17.6213 14.7545C16.1972 16.2735 14.2006 17.6899 11.7243 17.6899C9.24804 17.6899 7.25146 16.2735 5.82738 14.7545C5.12217 14.0023 4.57913 13.2472 4.21248 12.6795ZM21.1192 11.759C21.1194 11.7593 21.1195 11.7596 20.4487 12.095C21.1195 12.4304 21.1194 12.4306 21.1192 12.4309L21.1189 12.4316L21.118 12.4334L21.1153 12.4387L21.1064 12.4561C21.0989 12.4707 21.0883 12.4911 21.0746 12.517C21.0472 12.5688 21.0073 12.6427 20.9552 12.7353C20.851 12.9205 20.6975 13.1816 20.4962 13.4933C20.0946 14.1152 19.4975 14.9464 18.7156 15.7804C17.1655 17.4339 14.7999 19.1899 11.7243 19.1899C8.64878 19.1899 6.28319 17.4339 4.73307 15.7804C3.95117 14.9464 3.3541 14.1152 2.95242 13.4933C2.75111 13.1816 2.59765 12.9205 2.49348 12.7353C2.44137 12.6427 2.4015 12.5688 2.37408 12.517C2.36036 12.4911 2.34975 12.4707 2.34226 12.4561L2.33337 12.4387L2.33069 12.4334L2.32979 12.4316L2.32945 12.4309C2.32931 12.4306 2.32918 12.4304 3 12.095C2.32918 11.7596 2.32931 11.7593 2.32945 11.759L2.32979 11.7583L2.33069 11.7566L2.33337 11.7512L2.34226 11.7338C2.34975 11.7193 2.36036 11.6988 2.37408 11.6729C2.4015 11.6211 2.44137 11.5473 2.49348 11.4546C2.59765 11.2694 2.75111 11.0084 2.95242 10.6967C3.3541 10.0747 3.95117 9.24355 4.73307 8.40953C6.28319 6.75607 8.64878 5 11.7243 5C14.7999 5 17.1655 6.75607 18.7156 8.40953C19.4975 9.24355 20.0946 10.0747 20.4962 10.6967C20.6975 11.0084 20.851 11.2694 20.9552 11.4546C21.0073 11.5473 21.0472 11.6211 21.0746 11.6729C21.0883 11.6988 21.0989 11.7193 21.1064 11.7338L21.1153 11.7512L21.118 11.7566L21.1189 11.7583L21.1192 11.759ZM20.4487 12.095L21.1195 11.7596C21.2251 11.9707 21.2251 12.2192 21.1195 12.4304L20.4487 12.095ZM2.32918 11.7596L3 12.095L2.32918 12.4304C2.22361 12.2192 2.22361 11.9707 2.32918 11.7596ZM10.0951 12.0945C10.0951 11.1946 10.8246 10.4651 11.7244 10.4651C12.6243 10.4651 13.3538 11.1946 13.3538 12.0945C13.3538 12.9944 12.6243 13.7239 11.7244 13.7239C10.8246 13.7239 10.0951 12.9944 10.0951 12.0945ZM11.7244 8.96515C9.99614 8.96515 8.59507 10.3662 8.59507 12.0945C8.59507 13.8228 9.99614 15.2239 11.7244 15.2239C13.4527 15.2239 14.8538 13.8228 14.8538 12.0945C14.8538 10.3662 13.4527 8.96515 11.7244 8.96515Z" fill="white"/>
</g>
</svg>
