<svg width="16" height="16" viewBox="0 0 16 16" fill="none" xmlns="http://www.w3.org/2000/svg">
<path fill-rule="evenodd" clip-rule="evenodd" d="M5.20412 10.7909L8.03989 13.6296C8.37966 13.9699 8.87097 14.1176 9.32325 13.954C10.0936 13.6754 11.2354 13.114 11.5682 12.1587C11.6425 11.9455 11.6863 11.743 11.7067 11.5525C11.7109 11.5144 11.714 11.4766 11.716 11.4395C11.7209 11.3599 11.7215 11.2826 11.7188 11.2076C11.716 11.1273 11.7092 11.0498 11.6991 10.975C11.5948 10.2012 11.5662 9.26165 12.1179 8.70931L13.7908 7.03451C14.4655 6.35907 15.0041 5.55682 15.2997 4.649C15.7796 3.17424 16.3548 0.944706 15.7026 0.292481C15.0507 -0.359228 12.8247 0.214276 11.35 0.694037C10.4395 0.990287 9.63537 1.53098 8.95865 2.20842L7.28991 3.87904C6.73784 4.43182 5.79731 4.4036 5.0232 4.29846C4.85298 4.27533 4.66791 4.26911 4.47007 4.2881C4.27222 4.3071 4.06126 4.35121 3.83856 4.42881C2.88249 4.76191 2.3221 5.90546 2.04415 6.67655C1.88119 7.12867 2.02896 7.61921 2.36906 7.95884L5.20412 10.7909ZM14.0422 1.46789C13.3364 1.57251 12.4991 1.80738 11.7875 2.03889C11.127 2.25382 10.5086 2.65788 9.95924 3.20782L8.29056 4.87844C7.71114 5.45833 6.99196 5.66852 6.41121 5.7393C5.83184 5.80999 5.26282 5.7582 4.83295 5.69985C4.70416 5.68233 4.53049 5.68526 4.30399 5.76425C4.21801 5.79411 4.05401 5.89942 3.84857 6.19506C3.80127 6.26308 3.75638 6.33499 3.71356 6.40948C3.60274 6.60257 3.5064 6.81285 3.42699 7.01665L6.2037 9.79023L8.98178 12.5716C9.26385 12.461 9.55808 12.319 9.80218 12.1493C9.92579 12.0633 10.0162 11.9845 10.0815 11.9156C10.1723 11.82 10.2151 11.7434 10.2328 11.6932C10.2724 11.579 10.2931 11.4782 10.3014 11.3899C10.3097 11.3028 10.3063 11.2279 10.2977 11.164C10.2396 10.7352 10.1882 10.167 10.2586 9.58827C10.3291 9.00821 10.5387 8.28914 11.1173 7.70979L12.7902 6.03503C13.3378 5.48673 13.7404 4.86998 13.9548 4.21119C14.1865 3.49949 14.422 2.66125 14.5269 1.95455C14.5587 1.74014 14.5749 1.56051 14.5794 1.41558C14.4351 1.42006 14.2559 1.43621 14.0422 1.46789ZM4.70715 11.2933C4.43093 11.0171 3.98345 11.0171 3.70723 11.2933L1.20717 13.7933C0.930945 14.0695 0.930945 14.5172 1.20717 14.7934C1.48339 15.0695 1.93086 15.0695 2.20709 14.7934L4.70715 12.2933C4.98337 12.0172 4.98337 11.5694 4.70715 11.2933ZM3.20727 9.79345C2.93105 9.51718 2.48357 9.51718 2.20735 9.79345L1.20717 10.7934C0.930945 11.0695 0.930945 11.5173 1.20717 11.7934C1.48339 12.0696 1.93121 12.0696 2.20743 11.7934L3.20727 10.7935C3.48349 10.5173 3.48349 10.0696 3.20727 9.79345ZM6.21255 12.7932C5.93634 12.517 5.48885 12.517 5.21264 12.7932L4.21245 13.7932C3.93623 14.0693 3.93623 14.5171 4.21245 14.7932C4.48867 15.0694 4.93649 15.0694 5.21272 14.7932L6.21255 13.7932C6.35619 13.6497 6.42524 13.4599 6.41937 13.2719C6.4142 13.0981 6.34514 12.9259 6.21255 12.7932ZM9.20923 6.79378C9.76128 7.34606 10.6569 7.34606 11.2091 6.79378C11.7615 6.24143 11.7615 5.34604 11.2091 4.79369C10.6569 4.24141 9.76128 4.24141 9.20923 4.79369C8.65675 5.34604 8.65675 6.24143 9.20923 6.79378Z" fill="#666666"/>
</svg>
