<svg width="24" height="25" viewBox="0 0 24 25" fill="none" xmlns="http://www.w3.org/2000/svg">
<path fill-rule="evenodd" clip-rule="evenodd" d="M10.6853 6.57414C10.6853 5.56669 11.502 4.75 12.5095 4.75C13.5169 4.75 14.3336 5.56669 14.3336 6.57414C14.3336 7.58158 13.5169 8.39827 12.5095 8.39827C11.502 8.39827 10.6853 7.58158 10.6853 6.57414ZM12.5095 3.25C10.6736 3.25 9.18531 4.73827 9.18531 6.57414C9.18531 8.41001 10.6736 9.89827 12.5095 9.89827C14.3453 9.89827 15.8336 8.41001 15.8336 6.57414C15.8336 4.73827 14.3453 3.25 12.5095 3.25ZM16.9857 14.1901H8.03288C8.25049 13.5871 8.72069 13.0035 9.38683 12.5084C10.3198 11.815 11.5067 11.3999 12.5095 11.3999C13.5122 11.3999 14.699 11.8149 15.6319 12.5084C16.2979 13.0035 16.7681 13.587 16.9857 14.1901ZM12.5095 9.89985C11.1428 9.89985 9.64821 10.4452 8.49203 11.3045C7.34336 12.1582 6.39648 13.428 6.39648 14.9401C6.39648 15.3543 6.73227 15.6901 7.14648 15.6901H17.8721C18.2863 15.6901 18.6221 15.3543 18.6221 14.9401C18.6221 13.4281 17.6753 12.1583 16.5267 11.3045C15.3706 10.4452 13.8761 9.89985 12.5095 9.89985ZM5.2 17.25C4.67533 17.25 4.25 17.6753 4.25 18.2V20.9612C4.25 21.4859 4.67533 21.9112 5.2 21.9112H7.96122C8.48589 21.9112 8.91122 21.4859 8.91122 20.9612V18.2C8.91122 17.6753 8.48589 17.25 7.96122 17.25H5.2ZM5.75 20.4112V18.75H7.41122V20.4112H5.75ZM11.0144 17.25C10.4897 17.25 10.0644 17.6753 10.0644 18.2V20.9612C10.0644 21.4859 10.4897 21.9112 11.0144 21.9112H13.7756C14.3003 21.9112 14.7256 21.4859 14.7256 20.9612V18.2C14.7256 17.6753 14.3003 17.25 13.7756 17.25H11.0144ZM11.5644 20.4112V18.75H13.2256V20.4112H11.5644ZM16.8288 17.25C16.3041 17.25 15.8788 17.6753 15.8788 18.2V20.9612C15.8788 21.4859 16.3041 21.9112 16.8288 21.9112H19.59C20.1147 21.9112 20.54 21.4859 20.54 20.9612V18.2C20.54 17.6753 20.1147 17.25 19.59 17.25H16.8288ZM17.3788 20.4112V18.75H19.04V20.4112H17.3788Z" fill="#222529"/>
</svg>
