<svg width="24" height="24" viewBox="0 0 24 24" fill="none" xmlns="http://www.w3.org/2000/svg">
<g opacity="0.7">
<path fill-rule="evenodd" clip-rule="evenodd" d="M7.76125 7.76137C7.76125 6.51245 8.7737 5.5 10.0226 5.5C11.2715 5.5 12.284 6.51245 12.284 7.76137C12.284 9.01028 11.2715 10.0227 10.0226 10.0227C8.7737 10.0227 7.76125 9.01028 7.76125 7.76137ZM10.0226 4C7.94527 4 6.26125 5.68402 6.26125 7.76137C6.26125 9.83871 7.94527 11.5227 10.0226 11.5227C12.1 11.5227 13.784 9.83871 13.784 7.76137C13.784 5.68402 12.1 4 10.0226 4ZM7.01137 13.034C6.01379 13.034 5.05707 13.4303 4.35168 14.1357C3.64629 14.8411 3.25 15.7978 3.25 16.7954V18.301C3.25 18.7153 3.58579 19.051 4 19.051H16.0455C16.4597 19.051 16.7955 18.7153 16.7955 18.301V16.7954C16.7955 15.7978 16.3992 14.8411 15.6938 14.1357C14.9884 13.4303 14.0317 13.034 13.0341 13.034H7.01137ZM5.41234 15.1963C5.83643 14.7722 6.41162 14.534 7.01137 14.534H13.0341C13.6339 14.534 14.209 14.7722 14.6331 15.1963C15.0572 15.6204 15.2955 16.1956 15.2955 16.7954V17.551H4.75V16.7954C4.75 16.1956 4.98825 15.6204 5.41234 15.1963ZM17.5778 13.6946C17.6814 13.2936 18.0905 13.0524 18.4915 13.156C19.2985 13.3643 20.0133 13.8348 20.5239 14.4934C21.0345 15.1521 21.3119 15.9617 21.3125 16.7951L21.3125 16.7956L21.3125 18.3013C21.3125 18.7155 20.9768 19.0513 20.5625 19.0513C20.1483 19.0513 19.8125 18.7155 19.8125 18.3013V16.7962V16.796C19.8121 16.2951 19.6454 15.8084 19.3384 15.4124C19.0315 15.0164 18.6017 14.7336 18.1165 14.6083C17.7155 14.5048 17.4743 14.0957 17.5778 13.6946ZM15.4788 4.12137C15.0775 4.01863 14.6689 4.26063 14.5662 4.6619C14.4635 5.06317 14.7055 5.47175 15.1067 5.57449C15.5932 5.69904 16.0243 5.98193 16.3322 6.37858C16.6401 6.77523 16.8072 7.26307 16.8072 7.76519C16.8072 8.26731 16.6401 8.75515 16.3322 9.1518C16.0243 9.54845 15.5932 9.83134 15.1067 9.95589C14.7055 10.0586 14.4635 10.4672 14.5662 10.8685C14.6689 11.2698 15.0775 11.5118 15.4788 11.409C16.2879 11.2019 17.005 10.7313 17.5171 10.0716C18.0292 9.4118 18.3072 8.60037 18.3072 7.76519C18.3072 6.93001 18.0292 6.11858 17.5171 5.45882C17.005 4.79907 16.2879 4.32852 15.4788 4.12137Z" fill="white"/>
</g>
</svg>
