<svg width="24" height="24" viewBox="0 0 24 24" fill="none" xmlns="http://www.w3.org/2000/svg">
<path fill-rule="evenodd" clip-rule="evenodd" d="M11.5 2.25C11.7908 2.25 12.0554 2.41808 12.1789 2.6813L14.6356 7.9146L20.114 8.7566C20.3917 8.79929 20.6223 8.9937 20.7114 9.26025C20.8004 9.5268 20.733 9.82077 20.5366 10.0219L16.5512 14.1037L17.4932 19.8793C17.5395 20.1628 17.4197 20.4477 17.1849 20.6132C16.9501 20.7786 16.6414 20.7953 16.3901 20.6563L11.5 17.9522L6.60996 20.6563C6.3586 20.7953 6.04994 20.7786 5.81511 20.6132C5.58029 20.4477 5.46056 20.1628 5.5068 19.8793L6.44884 14.1037L2.46339 10.0219C2.26706 9.82077 2.19962 9.5268 2.28867 9.26025C2.37772 8.9937 2.60831 8.79929 2.88608 8.7566L8.36447 7.9146L10.8211 2.6813C10.9447 2.41808 11.2092 2.25 11.5 2.25ZM11.5 4.76498L9.55244 8.91386C9.44626 9.14005 9.23442 9.2985 8.98745 9.33646L4.55567 10.0176L7.78665 13.3267C7.95301 13.4971 8.02857 13.7364 7.99024 13.9714L7.23591 18.5961L11.1371 16.4388C11.3629 16.3139 11.6371 16.3139 11.863 16.4388L15.7641 18.5961L15.0098 13.9714C14.9715 13.7364 15.047 13.4971 15.2134 13.3267L18.4444 10.0176L14.0126 9.33646C13.7656 9.2985 13.5538 9.14005 13.4476 8.91386L11.5 4.76498Z" fill="#222529"/>
</svg>
