<svg width="13" height="13" viewBox="0 0 13 13" fill="none" xmlns="http://www.w3.org/2000/svg">
<path d="M5.13292 1.42705C5.43228 0.505739 6.73569 0.50574 7.03504 1.42705L7.76784 3.68237C7.90171 4.0944 8.28567 4.37336 8.71889 4.37336L11.0903 4.37336C12.059 4.37336 12.4618 5.61297 11.6781 6.18237L9.75957 7.57624C9.40908 7.83088 9.26243 8.28225 9.3963 8.69427L10.1291 10.9496C10.4285 11.8709 9.37397 12.637 8.59026 12.0676L6.67177 10.6738C6.32128 10.4191 5.84668 10.4191 5.4962 10.6738L3.5777 12.0676C2.79399 12.637 1.73951 11.8709 2.03886 10.9496L2.77166 8.69427C2.90554 8.28225 2.75888 7.83088 2.40839 7.57624L0.489897 6.18237C-0.293816 5.61297 0.108959 4.37336 1.07768 4.37336L3.44907 4.37336C3.8823 4.37336 4.26625 4.0944 4.40013 3.68237L5.13292 1.42705Z" fill="#E2A600"/>
</svg>
