<svg width="36" height="63" viewBox="0 0 36 63" fill="none" xmlns="http://www.w3.org/2000/svg">
<rect y="6" width="36" height="36" rx="5" fill="#6CBAE5"/>
<path d="M29.7005 16.7391C29.6686 16.7509 29.6368 16.7629 29.6051 16.7752L29.6595 16.6282L29.7005 16.7391ZM29.7005 16.7391C29.8034 16.701 29.8034 16.5554 29.7005 16.5173M29.7005 16.7391L29.6595 16.6282L29.7005 16.5173M29.7005 16.5173C29.6686 16.5055 29.6368 16.4935 29.6051 16.4813L29.6595 16.6282L29.7005 16.5173ZM29.6594 16.6282L29.605 16.4812C29.444 16.419 29.2858 16.3512 29.1308 16.2781C28.9933 16.4876 28.9933 16.7689 29.1308 16.9783L29.6594 16.6282ZM29.6594 16.6282L29.605 16.7752L29.6594 16.6282ZM16.3176 17.4019C17.9844 21.0724 20.9276 24.0156 24.5981 25.6824C20.9276 27.3495 17.9844 30.2926 16.3176 33.9629C14.6505 30.2927 11.7073 27.3495 8.0371 25.6824C11.7074 24.0156 14.6505 21.0724 16.3176 17.4019ZM25.3718 13.8112C26.0541 14.9755 27.0245 15.9459 28.1888 16.6282C27.0245 17.3106 26.0541 18.2809 25.3718 19.4451C24.6894 18.2809 23.7191 17.3106 22.5549 16.6282C23.7191 15.9459 24.6894 14.9755 25.3718 13.8112Z" stroke="white" stroke-width="1.5"/>
</svg>
