<svg width="20" height="19" viewBox="0 0 20 19" fill="none" xmlns="http://www.w3.org/2000/svg">
<g clip-path="url(#clip0_1563_36978)">
<path fill-rule="evenodd" clip-rule="evenodd" d="M14.0046 9.05763C14.3987 9.25471 14.6287 9.64888 14.6287 10.1087C14.6287 10.7 14.2345 11.1927 13.5776 11.3569C13.8403 11.5869 14.0046 11.9153 14.0046 12.2767C14.0046 12.8351 13.6104 13.3278 13.052 13.4592C13.3805 13.7219 13.5447 14.1818 13.4462 14.6417C13.3476 15.2001 12.7892 15.5942 12.198 15.5942H8.81471C7.36943 15.5942 5.98985 15.3643 4.51172 14.9373C4.54457 14.8716 4.54457 14.8059 4.54457 14.7402V7.15249V7.05395C5.43144 6.4627 6.35117 5.44443 6.71249 5.01742C6.84387 4.88603 6.90956 4.75465 6.97526 4.62326L6.97526 4.62325C7.20519 4.16339 7.73075 2.98089 7.86214 2.15971C7.92783 1.73269 8.22346 1.46991 8.61763 1.50276C9.24172 1.53561 10.1286 2.32394 10.1286 3.60498C10.1286 4.69803 9.71291 5.76139 9.47436 6.3716C9.46201 6.4032 9.45013 6.43358 9.43881 6.4627C9.42786 6.49555 9.41691 6.53205 9.40596 6.56855C9.38406 6.64154 9.36216 6.71453 9.34027 6.75832H13.2819C13.9389 6.75832 14.5301 7.21818 14.5958 7.84228C14.6615 8.36784 14.3987 8.8277 14.0046 9.05763ZM1.28585 6.46289H2.86956C3.26372 6.46289 3.55935 6.79136 3.5265 7.15268V14.7076C3.5265 15.0689 3.23088 15.3645 2.86956 15.3645H1.28585C0.924531 15.3645 0.628906 15.0689 0.628906 14.7076V7.11984C0.628906 6.75852 0.924531 6.46289 1.28585 6.46289Z" fill="#BEBECA"/>
</g>
<defs>
<clipPath id="clip0_1563_36978">
<rect width="19" height="18" fill="white" transform="translate(0.628906 0.5)"/>
</clipPath>
</defs>
</svg>
