<svg width="36" height="63" viewBox="0 0 36 63" fill="none" xmlns="http://www.w3.org/2000/svg">
<rect y="6" width="36" height="36" rx="5" fill="#7BD863"/>
<path fill-rule="evenodd" clip-rule="evenodd" d="M13.3462 19.4068C13.3462 18.0193 14.471 16.8945 15.8585 16.8945C17.246 16.8945 18.3708 18.0193 18.3708 19.4068C18.3708 20.7944 17.246 21.9192 15.8585 21.9192C14.471 21.9192 13.3462 20.7944 13.3462 19.4068ZM15.8585 15.3945C13.6425 15.3945 11.8462 17.1909 11.8462 19.4068C11.8462 21.6228 13.6425 23.4192 15.8585 23.4192C18.0744 23.4192 19.8708 21.6228 19.8708 19.4068C19.8708 17.1909 18.0744 15.3945 15.8585 15.3945ZM12.5963 25.1814C11.5322 25.1814 10.5116 25.6041 9.75916 26.3565C9.00671 27.109 8.58398 28.1295 8.58398 29.1937V30.8248C8.58398 31.239 8.91977 31.5748 9.33398 31.5748H22.3832C22.7975 31.5748 23.1332 31.239 23.1332 30.8248V29.1937C23.1332 28.1295 22.7105 27.109 21.9581 26.3565C21.2056 25.6041 20.1851 25.1814 19.1209 25.1814H12.5963ZM10.8198 27.4172C11.291 26.946 11.93 26.6814 12.5963 26.6814H19.1209C19.7872 26.6814 20.4262 26.946 20.8974 27.4172C21.3685 27.8883 21.6332 28.5274 21.6332 29.1937V30.0748H10.084V29.1937C10.084 28.5274 10.3487 27.8883 10.8198 27.4172ZM24.1038 25.8502C24.2074 25.4491 24.6164 25.208 25.0175 25.3115C25.8783 25.5338 26.6409 26.0356 27.1855 26.7382C27.7302 27.4408 28.0261 28.3044 28.0267 29.1934V29.194V30.8251C28.0267 31.2393 27.691 31.5751 27.2767 31.5751C26.8625 31.5751 26.5267 31.2393 26.5267 30.8251V29.1942C26.5263 28.6377 26.341 28.0971 26 27.6572C25.659 27.2173 25.1815 26.903 24.6425 26.7639C24.2414 26.6603 24.0003 26.2512 24.1038 25.8502ZM21.7538 15.5241C21.3526 15.4213 20.944 15.6633 20.8413 16.0646C20.7385 16.4659 20.9805 16.8744 21.3818 16.9772C21.9222 17.1155 22.4012 17.4298 22.7432 17.8705C23.0853 18.3112 23.271 18.8531 23.271 19.411C23.271 19.9688 23.0853 20.5108 22.7432 20.9515C22.4012 21.3921 21.9222 21.7064 21.3818 21.8448C20.9805 21.9475 20.7385 22.3561 20.8413 22.7574C20.944 23.1587 21.3526 23.4007 21.7538 23.2979C22.6169 23.0769 23.3819 22.575 23.9282 21.8712C24.4744 21.1675 24.771 20.3019 24.771 19.411C24.771 18.5201 24.4744 17.6545 23.9282 16.9507C23.3819 16.247 22.6169 15.745 21.7538 15.5241Z" fill="white"/>
</svg>
