<svg width="24" height="24" viewBox="0 0 24 24" fill="none" xmlns="http://www.w3.org/2000/svg">
<path fill-rule="evenodd" clip-rule="evenodd" d="M13.3654 4.0002C13.2348 4.00443 13.1096 4.05287 13.0101 4.13757C12.9107 4.22228 12.843 4.33824 12.818 4.46646C12.8035 4.54078 12.8037 4.61725 12.8186 4.69149C12.8336 4.76573 12.8631 4.83629 12.9053 4.89914C12.9476 4.962 13.0018 5.01591 13.0649 5.05781C13.128 5.09971 13.1987 5.12877 13.273 5.14333C14.618 5.40943 15.8535 6.0682 16.8229 7.03764C19.0306 9.2453 19.4869 12.648 17.939 15.3593C17.9013 15.425 17.8769 15.4974 17.8671 15.5725C17.8574 15.6477 17.8626 15.7239 17.8824 15.797C17.9021 15.8701 17.9361 15.9386 17.9824 15.9986C18.0286 16.0586 18.0862 16.1089 18.1519 16.1466C18.2175 16.1843 18.29 16.2087 18.3651 16.2184C18.4402 16.2281 18.5165 16.2229 18.5896 16.2032C18.6627 16.1834 18.7312 16.1494 18.7911 16.1032C18.8511 16.057 18.9014 15.9994 18.9391 15.9337C20.7421 12.7756 20.2075 8.79141 17.636 6.21999C16.5051 5.08906 15.0639 4.32189 13.4949 4.01146C13.4523 4.00285 13.4088 3.99905 13.3654 4.0002ZM10.0058 4.09706C9.9724 4.09943 9.93924 4.1047 9.90672 4.11283C8.51226 4.47374 7.2391 5.20147 6.22057 6.22C5.20233 7.23824 4.47442 8.51212 4.1134 9.90614C4.07502 10.054 4.09686 10.211 4.17414 10.3428C4.25142 10.4745 4.37782 10.5702 4.5256 10.6089C4.6736 10.6473 4.83077 10.6253 4.96256 10.5477C5.09434 10.4702 5.18995 10.3436 5.22837 10.1956C5.53783 9.00065 6.16426 7.91046 7.03709 7.03764C7.91015 6.16458 9.00086 5.54167 10.1962 5.2323C10.3437 5.19363 10.4699 5.09809 10.5471 4.96659C10.6244 4.8351 10.6464 4.67835 10.6084 4.53066C10.5751 4.39901 10.4964 4.28333 10.3861 4.20401C10.2759 4.12469 10.1412 4.08682 10.0058 4.09706ZM4.5898 12.8118C4.54713 12.8105 4.50445 12.8139 4.46253 12.822C4.31305 12.8521 4.18161 12.9403 4.09697 13.0671C4.01233 13.194 3.98139 13.3492 4.01091 13.4988C4.32148 15.0674 5.08989 16.5059 6.22057 17.6366C8.79199 20.208 12.7717 20.7415 15.9298 18.9385C16.0618 18.8629 16.1586 18.7383 16.1991 18.5917C16.2396 18.4451 16.2205 18.2884 16.146 18.1558C16.1087 18.0897 16.0587 18.0317 15.9989 17.985C15.9391 17.9383 15.8707 17.9039 15.7975 17.8837C15.7244 17.8635 15.648 17.858 15.5727 17.8673C15.4974 17.8767 15.4247 17.9009 15.3588 17.9384C12.6474 19.4864 9.24475 19.0311 7.03709 16.8234C6.06786 15.8542 5.40562 14.6182 5.13939 13.2736C5.11347 13.1458 5.04502 13.0306 4.94521 12.9468C4.84539 12.8629 4.72012 12.8153 4.5898 12.8118Z" fill="white" stroke="white" stroke-width="0.3"/>
<path fill-rule="evenodd" clip-rule="evenodd" d="M11.999 7.5C9.59112 7.5 7.62902 9.4621 7.62902 11.87C7.62902 14.2779 9.59112 16.24 11.999 16.24C14.4069 16.24 16.369 14.2779 16.369 11.87C16.369 9.4621 14.4069 7.5 11.999 7.5ZM11.999 8.43892C13.8995 8.43892 15.4301 9.96953 15.4301 11.87C15.4301 13.7705 13.8995 15.3002 11.999 15.3002C10.0986 15.3002 8.56794 13.7705 8.56794 11.87C8.56794 9.96953 10.0986 8.43892 11.999 8.43892Z" fill="white" stroke="white" stroke-width="0.3"/>
</svg>
