<svg width="24" height="24" viewBox="0 0 24 24" fill="none" xmlns="http://www.w3.org/2000/svg">
<path fill-rule="evenodd" clip-rule="evenodd" d="M9.83984 8.09091C9.83984 6.79806 10.8879 5.75 12.1808 5.75C13.4736 5.75 14.5217 6.79806 14.5217 8.09091C14.5217 9.38376 13.4736 10.4318 12.1808 10.4318C10.8879 10.4318 9.83984 9.38376 9.83984 8.09091ZM12.1808 4.25C10.0595 4.25 8.33984 5.96963 8.33984 8.09091C8.33984 10.2122 10.0595 11.9318 12.1808 11.9318C14.302 11.9318 16.0217 10.2122 16.0217 8.09091C16.0217 5.96963 14.302 4.25 12.1808 4.25ZM9.09091 13.5225C8.07224 13.5225 7.09529 13.9271 6.37498 14.6474C5.65467 15.3677 5.25 16.3447 5.25 17.3634V18.9088C5.25 19.323 5.58579 19.6588 6 19.6588H18.3636C18.7778 19.6588 19.1136 19.323 19.1136 18.9088V17.3634C19.1136 16.3447 18.709 15.3677 17.9887 14.6474C17.2683 13.9271 16.2914 13.5225 15.2727 13.5225H9.09091ZM7.43564 15.7081C7.87464 15.2691 8.47006 15.0225 9.09091 15.0225H15.2727C15.8936 15.0225 16.489 15.2691 16.928 15.7081C17.367 16.1471 17.6136 16.7425 17.6136 17.3634V18.1588H6.75V17.3634C6.75 16.7425 6.99663 16.1471 7.43564 15.7081Z" fill="#222529"/>
</svg>
