<svg width="24" height="24" viewBox="0 0 24 24" fill="none" xmlns="http://www.w3.org/2000/svg">
<path fill-rule="evenodd" clip-rule="evenodd" d="M8.24811 8.49811C8.24811 7.39458 9.1427 6.5 10.2462 6.5C11.3497 6.5 12.2443 7.39458 12.2443 8.49811C12.2443 9.60163 11.3497 10.4962 10.2462 10.4962C9.1427 10.4962 8.24811 9.60163 8.24811 8.49811ZM10.2462 5C8.31427 5 6.74811 6.56616 6.74811 8.49811C6.74811 10.4301 8.31427 11.9962 10.2462 11.9962C12.1782 11.9962 13.7443 10.4301 13.7443 8.49811C13.7443 6.56616 12.1782 5 10.2462 5ZM7.49811 13.2443C6.57035 13.2443 5.68059 13.6128 5.02457 14.2688C4.36855 14.9249 4 15.8146 4 16.7424V18.1164C4 18.5307 4.33579 18.8664 4.75 18.8664H15.7424C16.1566 18.8664 16.4924 18.5307 16.4924 18.1164V16.7424C16.4924 15.8146 16.1239 14.9249 15.4679 14.2688C14.8118 13.6128 13.9221 13.2443 12.9943 13.2443H7.49811ZM6.08523 15.3295C6.45995 14.9548 6.96818 14.7443 7.49811 14.7443H12.9943C13.5243 14.7443 14.0325 14.9548 14.4072 15.3295C14.7819 15.7042 14.9924 16.2125 14.9924 16.7424V17.3664H5.5V16.7424C5.5 16.2125 5.71051 15.7042 6.08523 15.3295ZM17.0773 13.8961C17.1809 13.495 17.59 13.2539 17.991 13.3574C18.7415 13.5512 19.4063 13.9887 19.8812 14.6013C20.3561 15.2138 20.614 15.9668 20.6146 16.7418L20.6146 16.7424L20.6146 18.1165C20.6146 18.5307 20.2788 18.8665 19.8646 18.8665C19.4504 18.8665 19.1146 18.5307 19.1146 18.1165V16.7427C19.1142 16.3001 18.9669 15.8701 18.6957 15.5203C18.4244 15.1704 18.0447 14.9205 17.616 14.8098C17.215 14.7062 16.9738 14.2972 17.0773 13.8961ZM15.2414 5.11276C14.8402 5.01002 14.4316 5.25203 14.3288 5.6533C14.2261 6.05457 14.4681 6.46315 14.8694 6.56589C15.2992 6.67593 15.6801 6.9259 15.9522 7.27637C16.2242 7.62684 16.3719 8.05789 16.3719 8.50155C16.3719 8.94522 16.2242 9.37627 15.9522 9.72674C15.6801 10.0772 15.2992 10.3272 14.8694 10.4372C14.4681 10.54 14.2261 10.9485 14.3288 11.3498C14.4316 11.7511 14.8402 11.9931 15.2414 11.8903C15.9939 11.6977 16.6608 11.2601 17.1371 10.6465C17.6134 10.0329 17.8719 9.27828 17.8719 8.50155C17.8719 7.72483 17.6134 6.97019 17.1371 6.35661C16.6608 5.74304 15.9939 5.30542 15.2414 5.11276Z" fill="#222529"/>
</svg>
